<svg width="120" height="120" viewBox="0 0 120 120" fill="none" xmlns="http://www.w3.org/2000/svg">
<path d="M79.2412 118H28.7491C25.5768 118 23 115.426 23 112.256V15.7437C23 12.5744 25.5768 10 28.7491 10H79.2509C82.4232 10 85 12.5744 85 15.7437V112.256C84.9902 115.426 82.4134 118 79.2412 118Z" fill="#F4F2FF"/>
<path d="M79.2004 119H28.4983C24.9208 119 22 116.089 22 112.502V15.4983C22 11.9208 24.911 9 28.4983 9H79.2102C82.7877 9 85.7084 11.911 85.7084 15.4983V112.502C85.6986 116.089 82.7877 119 79.2004 119ZM28.4983 10.4506C25.7147 10.4506 23.4506 12.7147 23.4506 15.4983V112.502C23.4506 115.285 25.7147 117.549 28.4983 117.549H79.2102C81.9938 117.549 84.2579 115.285 84.2579 112.502V15.4983C84.2579 12.7147 81.9938 10.4506 79.2102 10.4506H28.4983Z" fill="#E7E7E7"/>
<path d="M87.5463 113.371L37.0691 114.597C33.8978 114.674 31.2592 112.163 31.1822 108.995L28.8387 12.5106C28.7617 9.34224 31.2753 6.70598 34.4466 6.62896L84.9336 5.40266C88.1049 5.32563 90.7435 7.83675 90.8204 11.0051L93.1639 107.489C93.2311 110.658 90.7176 113.294 87.5463 113.371Z" fill="#F4F2FF"/>
<path d="M86.2004 115H35.4983C31.9208 115 29 112.089 29 108.502V11.4983C29 7.92079 31.911 5 35.4983 5H86.2102C89.7877 5 92.7084 7.91099 92.7084 11.4983V108.502C92.6986 112.089 89.7877 115 86.2004 115ZM35.4983 6.45059C32.7147 6.45059 30.4506 8.71469 30.4506 11.4983V108.502C30.4506 111.285 32.7147 113.549 35.4983 113.549H86.2102C88.9938 113.549 91.2579 111.285 91.2579 108.502V11.4983C91.2579 8.71469 88.9938 6.45059 86.2102 6.45059H35.4983Z" fill="#E7E7E7"/>
<path d="M92.2412 110H41.7491C38.5768 110 36 107.426 36 104.256V7.74374C36 4.57444 38.5768 2 41.7491 2H92.2509C95.4232 2 98 4.57444 98 7.74374V104.256C97.9902 107.426 95.4134 110 92.2412 110Z" fill="white"/>
<path d="M69.1667 102.85C69.1667 104.151 68.1192 105.2 66.8333 105.2C65.5475 105.2 64.5 104.151 64.5 102.85C64.5 101.549 65.5475 100.5 66.8333 100.5C68.1192 100.5 69.1667 101.549 69.1667 102.85Z" fill="#E7E7E7" stroke="white"/>
<path d="M61 6L73 6" stroke="#E7E7E7" stroke-width="2.1011" stroke-miterlimit="10" stroke-linecap="round"/>
<path d="M92.2004 111H41.4983C37.9208 111 35 108.089 35 104.502V7.49826C35 3.92079 37.911 1 41.4983 1H92.2102C95.7877 1 98.7084 3.91099 98.7084 7.49826V104.502C98.6986 108.089 95.7877 111 92.2004 111ZM41.4983 2.45059C38.7147 2.45059 36.4506 4.71469 36.4506 7.49826V104.502C36.4506 107.285 38.7147 109.549 41.4983 109.549H92.2102C94.9938 109.549 97.2579 107.285 97.2579 104.502V7.49826C97.2579 4.71469 94.9938 2.45059 92.2102 2.45059H41.4983Z" fill="#E7E7E7"/>
<path d="M54.3504 57.72H57.0304V55.66C57.0304 55.2467 57.0437 54.7733 57.0704 54.24C57.1104 53.6933 57.1371 53.22 57.1504 52.82H57.0704C56.9104 53.1667 56.7437 53.52 56.5704 53.88C56.3971 54.24 56.2171 54.6 56.0304 54.96L54.3504 57.72ZM57.0304 63V59.96H51.5304V57.94L56.1704 50.3H59.7704V57.72H61.2304V59.96H59.7704V63H57.0304ZM66.9968 63.24C65.6368 63.24 64.5368 62.6733 63.6968 61.54C62.8701 60.4067 62.4568 58.76 62.4568 56.6C62.4568 54.44 62.8701 52.8133 63.6968 51.72C64.5368 50.6133 65.6368 50.06 66.9968 50.06C68.3568 50.06 69.4501 50.6133 70.2768 51.72C71.1168 52.8133 71.5368 54.44 71.5368 56.6C71.5368 58.76 71.1168 60.4067 70.2768 61.54C69.4501 62.6733 68.3568 63.24 66.9968 63.24ZM66.9968 60.96C67.3301 60.96 67.6301 60.84 67.8968 60.6C68.1635 60.3467 68.3701 59.9067 68.5168 59.28C68.6768 58.6533 68.7568 57.76 68.7568 56.6C68.7568 55.44 68.6768 54.5533 68.5168 53.94C68.3701 53.3267 68.1635 52.9067 67.8968 52.68C67.6301 52.4533 67.3301 52.34 66.9968 52.34C66.6768 52.34 66.3835 52.4533 66.1168 52.68C65.8501 52.9067 65.6368 53.3267 65.4768 53.94C65.3168 54.5533 65.2368 55.44 65.2368 56.6C65.2368 57.76 65.3168 58.6533 65.4768 59.28C65.6368 59.9067 65.8501 60.3467 66.1168 60.6C66.3835 60.84 66.6768 60.96 66.9968 60.96ZM75.4832 57.72H78.1632V55.66C78.1632 55.2467 78.1765 54.7733 78.2032 54.24C78.2432 53.6933 78.2699 53.22 78.2832 52.82H78.2032C78.0432 53.1667 77.8765 53.52 77.7032 53.88C77.5299 54.24 77.3499 54.6 77.1632 54.96L75.4832 57.72ZM78.1632 63V59.96H72.6632V57.94L77.3032 50.3H80.9032V57.72H82.3632V59.96H80.9032V63H78.1632Z" fill="#EB5757"/>
</svg>
