<svg width="226" height="154" viewBox="0 0 226 154" fill="none" xmlns="http://www.w3.org/2000/svg">
<path d="M196.516 22.0005H29.8873C26.2215 22.0005 23 25.2454 23 28.9379V144.413C23 148.105 26.2215 146.762 29.8873 146.762H196.072C199.737 146.762 202.959 148.105 202.959 144.413V28.9379C203.403 25.2454 200.182 22.0005 196.516 22.0005Z" fill="#F4F2FF" stroke="#E7E7E7" stroke-width="2" stroke-miterlimit="10" stroke-linejoin="round"/>
<path d="M224 140V143.845C224 148.156 220.339 152 216.234 152H9.76612C5.66117 152 2 148.156 2 143.845V140H224Z" fill="white" stroke="#E7E7E7" stroke-width="2.1011" stroke-miterlimit="10"/>
<path d="M134 140V141.359C134 143.736 132.222 146 129.444 146H95.5556C93.2222 146 91 144.189 91 141.359V140H134Z" fill="#F4F2FF" stroke="#E7E7E7" stroke-width="2" stroke-miterlimit="10" stroke-linejoin="round"/>
<path d="M183.445 37.4324V128.864C183.222 132.664 180.222 135.794 176.333 135.794H41.6658C37.6658 135.794 34.5547 132.664 34.5547 128.864V37.4324C34.5547 33.6321 37.6658 30.5024 41.6658 30.5024H176.444C180.444 30.5024 183.445 33.6321 183.445 37.4324Z" fill="#F4F2FF" stroke="#E7E7E7" stroke-width="2.1011" stroke-miterlimit="10"/>
<path d="M42.6632 41.0104C43.9965 41.0104 45.1077 39.8926 45.1077 38.5513C45.1077 37.21 43.9965 36.0923 42.6632 36.0923C41.3299 36.0923 40.2188 37.21 40.2188 38.5513C40.2188 39.8926 41.3299 41.0104 42.6632 41.0104Z" fill="#E7E7E7"/>
<path d="M49.8898 41.0104C51.2231 41.0104 52.3342 39.8926 52.3342 38.5513C52.3342 37.21 51.2231 36.0923 49.8898 36.0923C48.5564 36.0923 47.4453 37.21 47.4453 38.5513C47.4453 39.8926 48.5564 41.0104 49.8898 41.0104Z" fill="#E7E7E7"/>
<path d="M57.3351 41.0104C58.6684 41.0104 59.7795 39.8926 59.7795 38.5513C59.7795 37.21 58.6684 36.0923 57.3351 36.0923C56.0017 36.0923 54.8906 37.21 54.8906 38.5513C54.8906 39.8926 56.0017 41.0104 57.3351 41.0104Z" fill="#F4F2FF"/>
<path opacity="0.4" d="M183.444 37.4334V126.182H51.2205C47.2205 126.182 44.1094 123.052 44.1094 119.252V30.5034H176.332C180.444 30.5034 183.444 33.6331 183.444 37.4334Z" fill="#F4F2FF"/>
<path d="M198.78 22.1199V113.551C198.78 113.663 198.78 113.887 198.78 113.998C198.447 117.687 195.447 120.481 191.78 120.481H57.0018C53.0018 120.481 49.8906 117.352 49.8906 113.551V22.1199C49.8906 18.3196 53.0018 15.1899 57.0018 15.1899H191.78C195.78 15.1899 198.78 18.2078 198.78 22.1199Z" fill="#F4F2FF" stroke="#E7E7E7" stroke-width="2.1011" stroke-miterlimit="10"/>
<path d="M57.9991 25.6979C59.3325 25.6979 60.4436 24.5801 60.4436 23.2388C60.4436 21.8975 59.3325 20.7798 57.9991 20.7798C56.6658 20.7798 55.5547 21.8975 55.5547 23.2388C55.5547 24.5801 56.6658 25.6979 57.9991 25.6979Z" fill="#E7E7E7"/>
<path d="M65.2257 25.6979C66.5591 25.6979 67.6702 24.5801 67.6702 23.2388C67.6702 21.8975 66.5591 20.7798 65.2257 20.7798C63.8924 20.7798 62.7812 21.8975 62.7812 23.2388C62.7812 24.5801 63.8924 25.6979 65.2257 25.6979Z" fill="#E7E7E7"/>
<path d="M72.6632 25.6979C73.9965 25.6979 75.1077 24.5801 75.1077 23.2388C75.1077 21.8975 73.9965 20.7798 72.6632 20.7798C71.3299 20.7798 70.2188 21.8975 70.2188 23.2388C70.2188 24.5801 71.3299 25.6979 72.6632 25.6979Z" fill="#F4F2FF"/>
<path opacity="0.4" d="M198.772 22.1194V113.551C198.772 113.662 198.772 113.886 198.772 113.998H67.5487C63.5486 113.998 60.4375 110.868 60.4375 107.068V15.5247C60.4375 15.413 60.4375 15.1894 60.4375 15.0776H191.661C195.772 15.1894 198.772 18.2073 198.772 22.1194Z" fill="#F4F2FF"/>
<path d="M214.546 100.362C214.324 104.162 211.324 107.292 207.435 107.292H72.7674C68.7674 107.292 65.6562 104.162 65.6562 100.362V8.93049C65.6562 5.13017 68.7674 2.00049 72.7674 2.00049H207.546C211.546 2.00049 214.657 5.13017 214.657 8.93049V100.362H214.546Z" fill="white" stroke="#E7E7E7" stroke-width="2.1011" stroke-miterlimit="10"/>
<path d="M125.32 64.665H128.536V62.193C128.536 61.697 128.552 61.129 128.584 60.489C128.632 59.833 128.664 59.265 128.68 58.785H128.584C128.392 59.201 128.192 59.625 127.984 60.057C127.776 60.489 127.56 60.921 127.336 61.353L125.32 64.665ZM128.536 71.001V67.353H121.936V64.929L127.504 55.761H131.824V64.665H133.576V67.353H131.824V71.001H128.536ZM140.496 71.289C138.864 71.289 137.544 70.609 136.536 69.249C135.544 67.889 135.048 65.913 135.048 63.321C135.048 60.729 135.544 58.777 136.536 57.465C137.544 56.137 138.864 55.473 140.496 55.473C142.128 55.473 143.44 56.137 144.432 57.465C145.44 58.777 145.944 60.729 145.944 63.321C145.944 65.913 145.44 67.889 144.432 69.249C143.44 70.609 142.128 71.289 140.496 71.289ZM140.496 68.553C140.896 68.553 141.256 68.409 141.576 68.121C141.896 67.817 142.144 67.289 142.32 66.537C142.512 65.785 142.608 64.713 142.608 63.321C142.608 61.929 142.512 60.865 142.32 60.129C142.144 59.393 141.896 58.889 141.576 58.617C141.256 58.345 140.896 58.209 140.496 58.209C140.112 58.209 139.76 58.345 139.44 58.617C139.12 58.889 138.864 59.393 138.672 60.129C138.48 60.865 138.384 61.929 138.384 63.321C138.384 64.713 138.48 65.785 138.672 66.537C138.864 67.289 139.12 67.817 139.44 68.121C139.76 68.409 140.112 68.553 140.496 68.553ZM150.68 64.665H153.896V62.193C153.896 61.697 153.912 61.129 153.944 60.489C153.992 59.833 154.024 59.265 154.04 58.785H153.944C153.752 59.201 153.552 59.625 153.344 60.057C153.136 60.489 152.92 60.921 152.696 61.353L150.68 64.665ZM153.896 71.001V67.353H147.296V64.929L152.864 55.761H157.184V64.665H158.936V67.353H157.184V71.001H153.896Z" fill="#EB5757"/>
<path d="M65.6562 17.9839H214.324" stroke="#E7E7E7" stroke-width="2.1011" stroke-miterlimit="10"/>
<path d="M73.7726 12.6182C75.1059 12.6182 76.217 11.5005 76.217 10.1592C76.217 8.8179 75.1059 7.58838 73.7726 7.58838C72.4392 7.58838 71.3281 8.70612 71.3281 10.0474C71.3281 11.3887 72.4392 12.6182 73.7726 12.6182Z" fill="#E7E7E7"/>
<path d="M80.9913 12.6182C82.3247 12.6182 83.4358 11.5005 83.4358 10.1592C83.4358 8.8179 82.3247 7.58838 80.9913 7.58838C79.658 7.58838 78.5469 8.70612 78.5469 10.0474C78.5469 11.3887 79.658 12.6182 80.9913 12.6182Z" fill="#E7E7E7"/>
<path d="M88.4367 12.6182C89.77 12.6182 90.8811 11.5005 90.8811 10.1592C90.8811 8.8179 89.77 7.58838 88.4367 7.58838C87.1033 7.58838 85.9922 8.70612 85.9922 10.0474C85.9922 11.3887 86.9922 12.6182 88.4367 12.6182Z" fill="#E7E7E7"/>
</svg>
