<svg width="20" height="20" viewBox="0 0 20 20" fill="none" xmlns="http://www.w3.org/2000/svg">
<path fill-rule="evenodd" clip-rule="evenodd" d="M10.0013 2.41675C5.81314 2.41675 2.41797 5.81192 2.41797 10.0001C2.41797 11.5749 2.89741 13.0368 3.71903 14.249C4.63842 12.9644 5.91711 11.9836 7.33817 11.4289C6.46857 10.6801 5.91797 9.57103 5.91797 8.33342C5.91797 6.07825 7.74614 4.25008 10.0013 4.25008C12.2565 4.25008 14.0846 6.07825 14.0846 8.33342C14.0846 9.57102 13.534 10.68 12.6645 11.4289C14.0855 11.9836 15.3642 12.9643 16.2836 14.2489C17.1052 13.0367 17.5846 11.5749 17.5846 10.0001C17.5846 5.81192 14.1895 2.41675 10.0013 2.41675ZM15.2803 15.4443C14.1067 13.5757 12.0362 12.4167 10.0013 12.4167C7.96646 12.4167 5.89596 13.5757 4.72239 15.4444C6.08835 16.7692 7.94914 17.5834 10.0013 17.5834C12.0535 17.5834 13.9143 16.7691 15.2803 15.4443ZM0.917969 10.0001C0.917969 4.98349 4.98472 0.916748 10.0013 0.916748C15.0179 0.916748 19.0846 4.98349 19.0846 10.0001C19.0846 12.452 18.1121 14.6784 16.5334 16.3119C14.8827 18.0199 12.5655 19.0834 10.0013 19.0834C7.43707 19.0834 5.11993 18.0199 3.4692 16.3119C1.89048 14.6784 0.917969 12.452 0.917969 10.0001ZM10.0013 5.75008C8.57457 5.75008 7.41797 6.90668 7.41797 8.33342C7.41797 9.76015 8.57457 10.9167 10.0013 10.9167C11.428 10.9167 12.5846 9.76015 12.5846 8.33342C12.5846 6.90668 11.428 5.75008 10.0013 5.75008Z" fill="currentColor"/>
</svg>
