<svg width="30" height="30" viewBox="0 0 30 30" fill="none" xmlns="http://www.w3.org/2000/svg">
<path fill-rule="evenodd" clip-rule="evenodd" d="M14.9998 1.50024C7.54404 1.50024 1.5 7.54429 1.5 15C1.5 18.0839 2.53339 20.9254 4.27376 23.1986C5.98715 20.4875 8.64295 18.505 11.5722 17.6173C9.75435 16.4766 8.5458 14.4544 8.5458 12.15C8.5458 8.58779 11.4335 5.70007 14.9957 5.70007C18.5579 5.70007 21.4456 8.58779 21.4456 12.15C21.4456 14.4525 20.2391 16.4732 18.4239 17.6144C21.3554 18.5001 24.0138 20.4823 25.7292 23.1941C27.4675 20.9217 28.4995 18.0819 28.4995 15C28.4995 7.54429 22.4555 1.50024 14.9998 1.50024ZM24.6995 24.3893C22.6471 20.837 18.8116 18.6037 15.0127 18.5999C15.007 18.5999 15.0014 18.5999 14.9957 18.5999C14.992 18.5999 14.9883 18.5999 14.9846 18.5999C11.187 18.607 7.35418 20.8414 5.30398 24.3934C7.75875 26.9266 11.1949 28.4997 14.9998 28.4997C18.8066 28.4997 22.2444 26.925 24.6995 24.3893ZM15.0112 17.0999C17.7378 17.0915 19.9456 14.8786 19.9456 12.15C19.9456 9.41622 17.7295 7.20007 14.9957 7.20007C12.2619 7.20007 10.0458 9.41622 10.0458 12.15C10.0458 14.8801 12.256 17.0939 14.9847 17.0999C14.9908 17.0999 14.9968 17.0998 15.0029 17.0998C15.0057 17.0998 15.0084 17.0999 15.0112 17.0999ZM0 15C0 6.71586 6.71562 0.000244141 14.9998 0.000244141C23.2839 0.000244141 29.9995 6.71586 29.9995 15C29.9995 19.0492 28.3941 22.725 25.7866 25.4229C23.06 28.2441 19.2343 29.9997 14.9998 29.9997C10.7652 29.9997 6.93946 28.2441 4.21293 25.4229C1.60545 22.725 0 19.0492 0 15Z" fill="currentColor"/>
</svg>
