<svg width="20" height="20" viewBox="0 0 20 20" fill="none" xmlns="http://www.w3.org/2000/svg">
<path d="M10.0001 0C6.44784 0 4.00017 2.448 4.00017 6C4.00017 6.485 4.00017 7.97 4.00017 8C4.00017 8.322 3.83757 8.541 3.28138 9C3.21828 9.052 2.95378 9.27899 2.87518 9.34399C1.6098 10.39 0.987006 11.37 1.00021 13C1.01351 14.648 2.35689 15.981 4.00017 16H7.17614C7.17614 16 7.00014 16.611 7.00014 17C7.00014 18.657 8.34312 20 10.0001 20C11.6571 20 13.0001 18.657 13.0001 17C13.0001 16.611 12.8321 16 12.8321 16H16C17.64 16.006 19.002 14.655 19 13C18.998 11.382 18.374 10.385 17.125 9.34399C17.043 9.27499 16.753 9.054 16.687 9C16.143 8.546 16 8.318 16 8C16 6.75 16 6 16 6C16 2.448 13.5521 0 10.0001 0ZM10.0001 2C12.4481 2 14.0001 3.552 14.0001 6C14.0001 6 14.0001 6.75 14.0001 8C14.0001 9.062 14.448 9.73201 15.406 10.531C15.482 10.594 15.803 10.846 15.875 10.906C16.713 11.605 16.999 12.078 17 13C17.001 13.544 16.535 14.002 16 14C15.811 13.999 12.9001 13.999 10.0001 14C7.10043 14.001 4.21267 14.002 4.00017 14C3.44198 13.993 3.00468 13.555 3.00018 13C2.99278 12.08 3.27868 11.606 4.12517 10.906C4.19427 10.849 4.48997 10.591 4.56266 10.531C5.53585 9.72701 6.00015 9.072 6.00015 8C6.00015 7.97 6.00015 6.485 6.00015 6C6.00015 3.552 7.55243 2 10.0001 2ZM10.0001 16C10.5521 16 11.0001 16.448 11.0001 17C11.0001 17.552 10.5521 18 10.0001 18C9.44811 18 9.00011 17.552 9.00011 17C9.00011 16.448 9.44811 16 10.0001 16Z" fill="currentColor"/>
</svg>
