<svg width="58" height="36" viewBox="0 0 58 36" fill="none" xmlns="http://www.w3.org/2000/svg">
<rect x="0.5" y="0.5" width="57" height="35" rx="3.5" fill="white" stroke="#E7E7E7"/>
<g clip-path="url(#clip0_1196_109452)">
<path fill-rule="evenodd" clip-rule="evenodd" d="M42.9577 13H36.125C36.4923 15.2143 38.6964 17.2857 41.1209 17.2857H46.5577C46.6311 17.0714 46.6311 16.7857 46.6311 16.5714C46.6311 14.5714 45.0148 13 42.9577 13Z" fill="url(#paint0_linear_1196_109452)"/>
<path fill-rule="evenodd" clip-rule="evenodd" d="M36.7148 17.6428V23H40.021V20.1428H42.9597C44.5761 20.1428 45.972 19.0714 46.4128 17.6428H36.7148Z" fill="#4DB45F"/>
<path fill-rule="evenodd" clip-rule="evenodd" d="M24.9609 13V23H27.8997C27.8997 23 28.6344 23 29.0018 22.2857C30.9854 18.4286 31.5732 17.2857 31.5732 17.2857H31.9405V23H35.2467V13H32.3079C32.3079 13 31.5732 13.0714 31.2058 13.7143C29.516 17 28.6344 18.7143 28.6344 18.7143H28.2671V13H24.9609Z" fill="#4DB45F"/>
<path fill-rule="evenodd" clip-rule="evenodd" d="M11 23V13H14.3061C14.3061 13 15.2612 13 15.7755 14.4286C17.098 18.2143 17.2449 18.7143 17.2449 18.7143C17.2449 18.7143 17.5388 17.7857 18.7143 14.4286C19.2286 13 20.1837 13 20.1837 13H23.4898V23H20.1837V17.6429H19.8163L17.9796 23H16.5102L14.6735 17.6429H14.3061V23H11Z" fill="#4DB45F"/>
</g>
<defs>
<linearGradient id="paint0_linear_1196_109452" x1="36.106" y1="15.1429" x2="46.6311" y2="15.1429" gradientUnits="userSpaceOnUse">
<stop stop-color="#00B4E6"/>
<stop offset="1" stop-color="#088CCB"/>
</linearGradient>
<clipPath id="clip0_1196_109452">
<rect width="36" height="10" fill="white" transform="translate(11 13)"/>
</clipPath>
</defs>
</svg>
