<svg width="54" height="49" viewBox="0 0 54 49" fill="none" xmlns="http://www.w3.org/2000/svg">
<g clip-path="url(#clip0_1196_39707)">
<path fill-rule="evenodd" clip-rule="evenodd" d="M5.34766 0.350586C2.7243 0.350586 0.597656 2.47724 0.597656 5.10059V12.1785V36.4886C0.597656 39.112 2.7243 41.2386 5.34766 41.2386H24.7343C24.8376 41.2386 24.936 41.2178 25.0255 41.18C27.7512 45.6441 32.6684 48.6239 38.2815 48.6239C46.8533 48.6239 53.8021 41.6751 53.8021 33.1033C53.8021 29.9926 52.8869 27.0956 51.3111 24.6669C51.3252 24.6093 51.3327 24.5491 51.3327 24.4872V12.1785V5.10059C51.3327 2.47723 49.2061 0.350586 46.5827 0.350586H5.34766ZM49.8327 22.737V12.9285H2.09766V36.4886C2.09766 38.2836 3.55273 39.7386 5.34766 39.7386H24.2468C23.294 37.7268 22.761 35.4773 22.761 33.1033C22.761 24.5316 29.7098 17.5828 38.2815 17.5828C42.8689 17.5828 46.9914 19.573 49.8327 22.737ZM49.8327 11.4285H2.09766V5.10059C2.09766 3.30566 3.55273 1.85059 5.34766 1.85059H46.5827C48.3777 1.85059 49.8327 3.30566 49.8327 5.10059V11.4285ZM24.261 33.1033C24.261 25.36 30.5382 19.0828 38.2815 19.0828C46.0249 19.0828 52.3021 25.36 52.3021 33.1033C52.3021 40.8467 46.0249 47.1239 38.2815 47.1239C30.5382 47.1239 24.261 40.8467 24.261 33.1033ZM45.6664 33.8533C46.0806 33.8533 46.4164 33.5175 46.4164 33.1033C46.4164 32.6891 46.0806 32.3533 45.6664 32.3533H39.0334V25.718C39.0334 25.3038 38.6976 24.968 38.2834 24.968C37.8692 24.968 37.5334 25.3038 37.5334 25.718V32.3533H30.8959C30.4817 32.3533 30.1459 32.6891 30.1459 33.1033C30.1459 33.5175 30.4817 33.8533 30.8959 33.8533H37.5334V40.4885C37.5334 40.9028 37.8692 41.2385 38.2834 41.2385C38.6976 41.2385 39.0334 40.9028 39.0334 40.4885V33.8533H45.6664Z" fill="currentColor"/>
</g>
<defs>
<clipPath id="clip0_1196_39707">
<rect width="54" height="49" fill="white"/>
</clipPath>
</defs>
</svg>
