<svg width="14" height="14" viewBox="0 0 14 14" fill="none" xmlns="http://www.w3.org/2000/svg">
<g clip-path="url(#clip0_1196_109358)">
<path fill-rule="evenodd" clip-rule="evenodd" d="M1.52344 7.01201C1.52344 3.99451 3.96961 1.54834 6.98711 1.54834H8.85121C9.26542 1.54834 9.60121 1.21255 9.60121 0.79834C9.60121 0.384126 9.26542 0.0483398 8.85121 0.0483398H6.98711C3.14118 0.0483398 0.0234375 3.16608 0.0234375 7.01201C0.0234375 10.8579 3.14118 13.9757 6.98711 13.9757C10.833 13.9757 13.9508 10.8579 13.9508 7.01201V6.70133C13.9508 6.28711 13.615 5.95133 13.2008 5.95133C12.7866 5.95133 12.4508 6.28711 12.4508 6.70133V7.01201C12.4508 10.0295 10.0046 12.4757 6.98711 12.4757C3.96961 12.4757 1.52344 10.0295 1.52344 7.01201ZM13.1094 3.81422C13.4023 3.52133 13.4023 3.04646 13.1094 2.75356C12.8165 2.46067 12.3416 2.46067 12.0487 2.75356L6.95255 7.84972L4.99514 6.13698C4.68341 5.86422 4.20959 5.89581 3.93683 6.20753C3.66407 6.51926 3.69566 6.99308 4.00739 7.26585L6.49285 9.44063C6.79001 9.70064 7.23786 9.68573 7.51706 9.40653L13.1094 3.81422Z" fill="currentColor"/>
</g>
<defs>
<clipPath id="clip0_1196_109358">
<rect width="14" height="14" fill="white"/>
</clipPath>
</defs>
</svg>
