<svg width="16" height="16" viewBox="0 0 16 16" fill="none" xmlns="http://www.w3.org/2000/svg">
<g clip-path="url(#clip0_1196_109374)">
<path fill-rule="evenodd" clip-rule="evenodd" d="M7.99872 0.583275L7.86392 0.583263C6.44279 0.583076 5.57622 0.582962 4.84384 0.779202C2.85957 1.31089 1.30967 2.86079 0.777981 4.84506C0.581742 5.57744 0.581856 6.44401 0.582043 7.86514L0.582054 7.99994L0.582043 8.13474C0.581856 9.55587 0.581742 10.4224 0.777981 11.1548C1.30967 13.1391 2.85957 14.689 4.84384 15.2207C5.57622 15.4169 6.44279 15.4168 7.86392 15.4166L7.99872 15.4166H10.6654C13.2887 15.4166 15.4154 13.29 15.4154 10.6666V9.99994C15.4154 9.58573 15.0796 9.24994 14.6654 9.24994C14.2512 9.24994 13.9154 9.58573 13.9154 9.99994V10.6666C13.9154 12.4615 12.4603 13.9166 10.6654 13.9166H7.99872C6.40048 13.9166 5.74849 13.9102 5.23207 13.7718C3.76543 13.3788 2.61986 12.2332 2.22687 10.7666C2.0885 10.2502 2.08205 9.59818 2.08205 7.99994C2.08205 6.4017 2.0885 5.74971 2.22687 5.23329C2.61986 3.76665 3.76543 2.62108 5.23207 2.22809C5.74849 2.08972 6.40048 2.08327 7.99872 2.08327H9.99872C10.4129 2.08327 10.7487 1.74749 10.7487 1.33328C10.7487 0.919061 10.4129 0.583275 9.99872 0.583275H7.99872ZM14.5291 4.53027C14.8219 4.23738 14.8219 3.7625 14.5291 3.46961C14.2362 3.17672 13.7613 3.17672 13.4684 3.46961L7.96454 8.97346L5.82593 7.10218C5.5142 6.82941 5.04038 6.861 4.76762 7.17273C4.49486 7.48446 4.52645 7.95828 4.83818 8.23104L7.50484 10.5644C7.802 10.8244 8.24985 10.8095 8.52905 10.5303L14.5291 4.53027Z" fill="currentColor"/>
</g>
<defs>
<clipPath id="clip0_1196_109374">
<rect width="16" height="16" fill="white"/>
</clipPath>
</defs>
</svg>
