<svg width="20" height="20" viewBox="0 0 20 20" fill="none" xmlns="http://www.w3.org/2000/svg">
<g clip-path="url(#clip0_1196_109480)">
<path fill-rule="evenodd" clip-rule="evenodd" d="M9.66797 0.916748H9.63441C8.26269 0.916744 7.18725 0.91674 6.3229 0.98736C5.44276 1.05927 4.71565 1.20813 4.05752 1.54346C2.97559 2.09473 2.09595 2.97437 1.54468 4.0563C1.20935 4.71443 1.06049 5.44154 0.988581 6.32168C0.917961 7.18603 0.917964 8.26147 0.917969 9.63319V9.66675V10.3334V10.367C0.917964 11.7387 0.917961 12.8141 0.988581 13.6785C1.06049 14.5586 1.20935 15.2857 1.54468 15.9439C2.09595 17.0258 2.97559 17.9054 4.05752 18.4567C4.71565 18.792 5.44276 18.9409 6.32291 19.0128C7.18724 19.0834 8.26266 19.0834 9.63434 19.0834H9.63439H9.66797H13.3346C16.5103 19.0834 19.0846 16.5091 19.0846 13.3334V12.5001C19.0846 12.0859 18.7488 11.7501 18.3346 11.7501C17.9204 11.7501 17.5846 12.0859 17.5846 12.5001V13.3334C17.5846 15.6806 15.6818 17.5834 13.3346 17.5834H9.66797C8.25546 17.5834 7.24119 17.5828 6.44505 17.5178C5.65767 17.4535 5.14994 17.3298 4.73851 17.1202C3.93882 16.7127 3.28865 16.0626 2.88119 15.2629C2.67156 14.8514 2.54793 14.3437 2.4836 13.5563C2.41855 12.7602 2.41797 11.7459 2.41797 10.3334V9.66675C2.41797 8.25424 2.41855 7.23997 2.4836 6.44383C2.54793 5.65645 2.67156 5.14872 2.88119 4.73729C3.28865 3.9376 3.93882 3.28743 4.73851 2.87997C5.14994 2.67034 5.65767 2.54671 6.44505 2.48238C7.24119 2.41733 8.25546 2.41675 9.66797 2.41675H12.5013C12.9155 2.41675 13.2513 2.08096 13.2513 1.66675C13.2513 1.25253 12.9155 0.916748 12.5013 0.916748H9.66797ZM18.0316 5.53041C18.3245 5.23752 18.3245 4.76264 18.0316 4.46975C17.7387 4.17686 17.2639 4.17686 16.971 4.46975L9.96712 11.4736L7.16185 9.01898C6.85012 8.74622 6.3763 8.77781 6.10354 9.08954C5.83077 9.40126 5.86236 9.87509 6.17409 10.1478L9.50742 13.0645C9.80458 13.3245 10.2524 13.3096 10.5316 13.0304L18.0316 5.53041Z" fill="currentColor"/>
</g>
<defs>
<clipPath id="clip0_1196_109480">
<rect width="20" height="20" fill="white"/>
</clipPath>
</defs>
</svg>
