<svg width="20" height="20" viewBox="0 0 20 20" fill="none" xmlns="http://www.w3.org/2000/svg">
<g clip-path="url(#clip0_1196_109400)">
<path fill-rule="evenodd" clip-rule="evenodd" d="M9.99885 0.000244141C4.47662 0.000244141 0 4.47711 0 9.9993C0 15.5215 4.47662 19.9983 9.99885 19.9983C15.5211 19.9983 19.9977 15.5215 19.9977 9.9993C19.9977 4.47711 15.5211 0.000244141 9.99885 0.000244141ZM1.5 9.9993C1.5 5.30549 5.30509 1.50024 9.99885 1.50024C14.6926 1.50024 18.4977 5.30549 18.4977 9.9993C18.4977 14.6931 14.6926 18.4983 9.99885 18.4983C5.30509 18.4983 1.5 14.6931 1.5 9.9993ZM8.72887 12.1102V12.2478H10.6403V12.1102C10.6442 11.7364 10.692 11.4225 10.7839 11.1686C10.8795 10.9111 11.0249 10.6872 11.2201 10.4967C11.4191 10.3063 11.6736 10.1229 11.9835 9.94654C12.3356 9.75257 12.6398 9.53214 12.8962 9.28526C13.1526 9.03839 13.3497 8.75624 13.4875 8.43883C13.6291 8.12142 13.6999 7.76168 13.6999 7.35963C13.6999 6.7636 13.543 6.24868 13.2292 5.81488C12.9192 5.37756 12.4849 5.04075 11.9261 4.80445C11.3713 4.56816 10.7284 4.45001 9.99745 4.45001C9.32776 4.45001 8.71548 4.56287 8.1606 4.78858C7.60954 5.0143 7.16563 5.35287 6.82888 5.8043C6.49595 6.25573 6.31992 6.8165 6.30078 7.48659H8.34428C8.36341 7.15507 8.45143 6.88174 8.60833 6.66661C8.76905 6.44795 8.96996 6.28571 9.21105 6.17991C9.45596 6.07058 9.71427 6.01591 9.98597 6.01591C10.2806 6.01591 10.5466 6.07234 10.7839 6.1852C11.0249 6.29806 11.2163 6.45676 11.3579 6.66132C11.4995 6.86587 11.5703 7.10746 11.5703 7.38608C11.5703 7.63295 11.5167 7.85691 11.4095 8.05793C11.3024 8.25543 11.1551 8.4353 10.9675 8.59754C10.7839 8.75624 10.5753 8.9026 10.3419 9.03662C10.0013 9.2306 9.71235 9.44397 9.47509 9.67674C9.23783 9.90598 9.05415 10.2093 8.92404 10.5867C8.79775 10.964 8.7327 11.4719 8.72887 12.1102ZM8.83794 15.2103C9.08668 15.436 9.38325 15.5489 9.72766 15.5489C9.95727 15.5489 10.1658 15.4977 10.3533 15.3955C10.5447 15.2897 10.6978 15.1486 10.8126 14.9722C10.9312 14.7959 10.9905 14.6002 10.9905 14.385C10.9905 14.0676 10.8642 13.796 10.6116 13.5703C10.3629 13.3446 10.0682 13.2318 9.72766 13.2318C9.38325 13.2318 9.08668 13.3446 8.83794 13.5703C8.5892 13.796 8.46482 14.0676 8.46482 14.385C8.46482 14.7095 8.5892 14.9846 8.83794 15.2103Z" fill="currentColor"/>
</g>
<defs>
<clipPath id="clip0_1196_109400">
<rect width="20" height="20" fill="white"/>
</clipPath>
</defs>
</svg>
