<svg width="14" height="14" viewBox="0 0 14 14" fill="none" xmlns="http://www.w3.org/2000/svg">
<g clip-path="url(#clip0_1196_109368)">
<path fill-rule="evenodd" clip-rule="evenodd" d="M1.50391 7.00256C1.50391 3.96607 3.96549 1.50415 7.00182 1.50415C10.0382 1.50415 12.4997 3.96607 12.4997 7.00256C12.4997 10.0391 10.0382 12.501 7.00182 12.501C3.96549 12.501 1.50391 10.0391 1.50391 7.00256ZM7.00182 0.00415039C3.1369 0.00415039 0.00390625 3.1378 0.00390625 7.00256C0.00390625 10.8673 3.1369 14.001 7.00182 14.001C10.8667 14.001 13.9997 10.8673 13.9997 7.00256C13.9997 3.1378 10.8667 0.00415039 7.00182 0.00415039ZM9.28275 10.3446C9.57563 10.6375 10.0505 10.6376 10.3434 10.3447C10.6363 10.0518 10.6363 9.57692 10.3435 9.28401L7.75154 6.69189V3.87833C7.75154 3.46412 7.41575 3.12833 7.00154 3.12833C6.58733 3.12833 6.25154 3.46412 6.25154 3.87833V7.00254C6.25154 7.20144 6.33055 7.39219 6.47119 7.53285L9.28275 10.3446Z" fill="currentColor"/>
</g>
<defs>
<clipPath id="clip0_1196_109368">
<rect width="14" height="14" fill="white"/>
</clipPath>
</defs>
</svg>
