<svg width="120" height="120" viewBox="0 0 120 120" fill="none" xmlns="http://www.w3.org/2000/svg">
<path d="M79.2412 118H28.7491C25.5768 118 23 115.426 23 112.256V15.7437C23 12.5744 25.5768 10 28.7491 10H79.2509C82.4232 10 85 12.5744 85 15.7437V112.256C84.9902 115.426 82.4134 118 79.2412 118Z" fill="#F4F2FF"/>
<path d="M79.2004 119H28.4983C24.9208 119 22 116.089 22 112.502V15.4983C22 11.9208 24.911 9 28.4983 9H79.2102C82.7877 9 85.7084 11.911 85.7084 15.4983V112.502C85.6986 116.089 82.7877 119 79.2004 119ZM28.4983 10.4506C25.7147 10.4506 23.4506 12.7147 23.4506 15.4983V112.502C23.4506 115.285 25.7147 117.549 28.4983 117.549H79.2102C81.9938 117.549 84.2579 115.285 84.2579 112.502V15.4983C84.2579 12.7147 81.9938 10.4506 79.2102 10.4506H28.4983Z" fill="#E7E7E7"/>
<path d="M85.2412 114H34.7491C31.5768 114 29 111.426 29 108.256V11.7437C29 8.57444 31.5768 6 34.7491 6H85.2509C88.4232 6 91 8.57444 91 11.7437V108.256C90.9902 111.426 88.4134 114 85.2412 114Z" fill="#F4F2FF"/>
<path d="M85.2004 115H34.4983C30.9208 115 28 112.089 28 108.502V11.4983C28 7.92079 30.911 5 34.4983 5H85.2102C88.7877 5 91.7084 7.91099 91.7084 11.4983V108.502C91.6986 112.089 88.7877 115 85.2004 115ZM34.4983 6.45059C31.7147 6.45059 29.4506 8.71469 29.4506 11.4983V108.502C29.4506 111.285 31.7147 113.549 34.4983 113.549H85.2102C87.9938 113.549 90.2579 111.285 90.2579 108.502V11.4983C90.2579 8.71469 87.9938 6.45059 85.2102 6.45059H34.4983Z" fill="#E7E7E7"/>
<path d="M91.2412 110H40.7491C37.5768 110 35 107.426 35 104.256V7.74374C35 4.57444 37.5768 2 40.7491 2H91.2509C94.4232 2 97 4.57444 97 7.74374V104.256C96.9902 107.426 94.4134 110 91.2412 110Z" fill="white"/>
<path fill-rule="evenodd" clip-rule="evenodd" d="M82.0757 51.4637C82.3316 51.7894 82.8031 51.846 83.1288 51.5901C83.4545 51.3342 83.511 50.8627 83.2551 50.537C78.9578 45.0676 72.9784 41.917 65.9987 41.917C59.019 41.917 53.0397 45.0676 48.7423 50.537C48.4864 50.8627 48.543 51.3342 48.8687 51.5901C49.1944 51.846 49.6659 51.7894 49.9218 51.4637C53.9578 46.327 59.5152 43.417 65.9987 43.417C72.4822 43.417 78.0397 46.327 82.0757 51.4637ZM65.9987 66.667C65.4464 66.667 64.9987 67.1147 64.9987 67.667C64.9987 68.2193 65.4464 68.667 65.9987 68.667H66.0154C66.5677 68.667 67.0154 68.2193 67.0154 67.667C67.0154 67.1147 66.5677 66.667 66.0154 66.667H65.9987ZM78.1722 56.5532C77.8668 56.8331 77.3924 56.8125 77.1125 56.5071C74.3415 53.4841 70.5059 51.7503 65.9987 51.7503C61.4915 51.7503 57.656 53.4841 54.8849 56.5071C54.605 56.8125 54.1306 56.8331 53.8253 56.5532C53.5199 56.2733 53.4993 55.7989 53.7792 55.4935C56.8415 52.1529 61.0817 50.2503 65.9987 50.2503C70.9158 50.2503 75.156 52.1529 78.2183 55.4935C78.4982 55.7989 78.4775 56.2733 78.1722 56.5532ZM70.5135 61.5722C70.8293 61.8402 71.3026 61.8014 71.5706 61.4856C71.8386 61.1697 71.7998 60.6964 71.484 60.4284C70.0779 59.2355 68.1671 58.5837 65.9987 58.5837C63.8304 58.5837 61.9195 59.2355 60.5135 60.4284C60.1977 60.6964 60.1589 61.1697 60.4268 61.4856C60.6948 61.8014 61.1681 61.8402 61.484 61.5722C62.5779 60.644 64.1281 60.0837 65.9987 60.0837C67.8693 60.0837 69.4195 60.644 70.5135 61.5722Z" fill="#999999"/>
<path d="M73.2579 56H78.8313C79.1731 56 79.4885 56.1322 79.7251 56.3702L83.6686 60.3372C83.9052 60.5752 84.0366 60.8926 84.0366 61.2364V66.8165C84.0366 67.1603 83.9052 67.4777 83.6686 67.7157L79.7777 71.6298C79.5411 71.8678 79.2256 72 78.8839 72H73.2579C72.9161 72 72.6007 71.8678 72.3641 71.6298L68.3681 67.6099C68.1314 67.3719 68 67.0545 68 66.7107V61.2364C68 60.8926 68.1314 60.5752 68.3681 60.3372L72.3378 56.3702C72.6007 56.1322 72.9161 56 73.2579 56Z" fill="#EB5757"/>
<path d="M76.9671 59.185V61.839C76.9671 62.016 76.9671 62.1929 76.9408 62.3951L76.6516 64.2908C76.6253 64.4425 76.4939 64.5688 76.3098 64.5688H75.7315C75.5737 64.5688 75.416 64.4425 75.3897 64.2908L75.1005 62.3951C75.0742 62.2182 75.0742 62.0412 75.0742 61.839V59.185C75.0742 59.0081 75.232 58.8564 75.416 58.8564H76.6516C76.8093 58.8817 76.9671 59.0081 76.9671 59.185Z" fill="white"/>
<path d="M76.6513 68.5619H75.3631C75.1528 68.5619 74.9688 68.3768 74.9688 68.1652V66.8694C74.9688 66.6578 75.1528 66.4727 75.3631 66.4727H76.6513C76.8616 66.4727 77.0456 66.6578 77.0456 66.8694V68.1652C77.0456 68.3768 76.8616 68.5619 76.6513 68.5619Z" fill="white"/>
<path d="M68.1667 102.85C68.1667 104.151 67.1192 105.2 65.8333 105.2C64.5475 105.2 63.5 104.151 63.5 102.85C63.5 101.549 64.5475 100.5 65.8333 100.5C67.1192 100.5 68.1667 101.549 68.1667 102.85Z" fill="#E7E7E7" stroke="white"/>
<path d="M60 6L72 6" stroke="#E7E7E7" stroke-width="2.1011" stroke-miterlimit="10" stroke-linecap="round"/>
<path d="M91.2004 111H40.4983C36.9208 111 34 108.089 34 104.502V7.49826C34 3.92079 36.911 1 40.4983 1H91.2102C94.7877 1 97.7084 3.91099 97.7084 7.49826V104.502C97.6986 108.089 94.7877 111 91.2004 111ZM40.4983 2.45059C37.7147 2.45059 35.4506 4.71469 35.4506 7.49826V104.502C35.4506 107.285 37.7147 109.549 40.4983 109.549H91.2102C93.9938 109.549 96.2579 107.285 96.2579 104.502V7.49826C96.2579 4.71469 93.9938 2.45059 91.2102 2.45059H40.4983Z" fill="#E7E7E7"/>
</svg>
