<svg width="226" height="154" viewBox="0 0 226 154" fill="none" xmlns="http://www.w3.org/2000/svg">
<path d="M196.516 22H29.8873C26.2215 22 23 25.2449 23 28.9374V144.412C23 148.105 26.2215 146.762 29.8873 146.762H196.072C199.737 146.762 202.959 148.105 202.959 144.412V28.9374C203.403 25.2449 200.182 22 196.516 22Z" fill="#F4F2FF" stroke="#E7E7E7" stroke-width="2" stroke-miterlimit="10" stroke-linejoin="round"/>
<path d="M224 140V143.845C224 148.155 220.339 152 216.234 152H9.76612C5.66117 152 2 148.155 2 143.845V140H224Z" fill="white" stroke="#E7E7E7" stroke-width="2.1011" stroke-miterlimit="10"/>
<path d="M134 140V141.358C134 143.736 132.222 146 129.444 146H95.5556C93.2222 146 91 144.189 91 141.358V140H134Z" fill="#F4F2FF" stroke="#E7E7E7" stroke-width="2" stroke-miterlimit="10" stroke-linejoin="round"/>
<path d="M183.445 37.432V128.863C183.222 132.664 180.222 135.793 176.333 135.793H41.6658C37.6658 135.793 34.5547 132.664 34.5547 128.863V37.432C34.5547 33.6316 37.6658 30.502 41.6658 30.502H176.444C180.444 30.502 183.445 33.6316 183.445 37.432Z" fill="#F4F2FF" stroke="#E7E7E7" stroke-width="2.1011" stroke-miterlimit="10"/>
<path d="M42.6632 41.0099C43.9965 41.0099 45.1077 39.8921 45.1077 38.5508C45.1077 37.2095 43.9965 36.0918 42.6632 36.0918C41.3299 36.0918 40.2188 37.2095 40.2188 38.5508C40.2188 39.8921 41.3299 41.0099 42.6632 41.0099Z" fill="#E7E7E7"/>
<path d="M49.8898 41.0099C51.2231 41.0099 52.3342 39.8921 52.3342 38.5508C52.3342 37.2095 51.2231 36.0918 49.8898 36.0918C48.5564 36.0918 47.4453 37.2095 47.4453 38.5508C47.4453 39.8921 48.5564 41.0099 49.8898 41.0099Z" fill="#E7E7E7"/>
<path d="M57.3351 41.0099C58.6684 41.0099 59.7795 39.8921 59.7795 38.5508C59.7795 37.2095 58.6684 36.0918 57.3351 36.0918C56.0017 36.0918 54.8906 37.2095 54.8906 38.5508C54.8906 39.8921 56.0017 41.0099 57.3351 41.0099Z" fill="#F4F2FF"/>
<path opacity="0.4" d="M183.444 37.4329V126.182H51.2205C47.2205 126.182 44.1094 123.052 44.1094 119.252V30.5029H176.332C180.444 30.5029 183.444 33.6326 183.444 37.4329Z" fill="#F4F2FF"/>
<path d="M198.78 22.1195V113.551C198.78 113.663 198.78 113.886 198.78 113.998C198.447 117.686 195.447 120.481 191.78 120.481H57.0018C53.0018 120.481 49.8906 117.351 49.8906 113.551V22.1195C49.8906 18.3191 53.0018 15.1895 57.0018 15.1895H191.78C195.78 15.1895 198.78 18.2074 198.78 22.1195Z" fill="#F4F2FF" stroke="#E7E7E7" stroke-width="2.1011" stroke-miterlimit="10"/>
<path d="M57.9991 25.6974C59.3325 25.6974 60.4436 24.5796 60.4436 23.2383C60.4436 21.897 59.3325 20.7793 57.9991 20.7793C56.6658 20.7793 55.5547 21.897 55.5547 23.2383C55.5547 24.5796 56.6658 25.6974 57.9991 25.6974Z" fill="#E7E7E7"/>
<path d="M65.2257 25.6974C66.5591 25.6974 67.6702 24.5796 67.6702 23.2383C67.6702 21.897 66.5591 20.7793 65.2257 20.7793C63.8924 20.7793 62.7812 21.897 62.7812 23.2383C62.7812 24.5796 63.8924 25.6974 65.2257 25.6974Z" fill="#E7E7E7"/>
<path d="M72.6632 25.6974C73.9965 25.6974 75.1077 24.5796 75.1077 23.2383C75.1077 21.897 73.9965 20.7793 72.6632 20.7793C71.3299 20.7793 70.2188 21.897 70.2188 23.2383C70.2188 24.5796 71.3299 25.6974 72.6632 25.6974Z" fill="#F4F2FF"/>
<path opacity="0.4" d="M198.772 22.1189V113.55C198.772 113.662 198.772 113.886 198.772 113.997H67.5487C63.5486 113.997 60.4375 110.868 60.4375 107.067V15.5242C60.4375 15.4125 60.4375 15.1889 60.4375 15.0771H191.661C195.772 15.1889 198.772 18.2068 198.772 22.1189Z" fill="#F4F2FF"/>
<path d="M214.546 100.361C214.324 104.162 211.324 107.291 207.435 107.291H72.7674C68.7674 107.291 65.6562 104.162 65.6562 100.361V8.93C65.6562 5.12968 68.7674 2 72.7674 2H207.546C211.546 2 214.657 5.12968 214.657 8.93V100.361H214.546Z" fill="white" stroke="#E7E7E7" stroke-width="2.1011" stroke-miterlimit="10"/>
<path fill-rule="evenodd" clip-rule="evenodd" d="M156.076 56.4637C156.332 56.7894 156.803 56.846 157.129 56.5901C157.454 56.3342 157.511 55.8627 157.255 55.537C152.958 50.0676 146.978 46.917 139.999 46.917C133.019 46.917 127.04 50.0676 122.742 55.537C122.486 55.8627 122.543 56.3342 122.869 56.5901C123.194 56.846 123.666 56.7894 123.922 56.4637C127.958 51.327 133.515 48.417 139.999 48.417C146.482 48.417 152.04 51.327 156.076 56.4637ZM139.999 71.667C139.446 71.667 138.999 72.1147 138.999 72.667C138.999 73.2193 139.446 73.667 139.999 73.667H140.015C140.568 73.667 141.015 73.2193 141.015 72.667C141.015 72.1147 140.568 71.667 140.015 71.667H139.999ZM152.172 61.5532C151.867 61.8331 151.392 61.8125 151.113 61.5071C148.341 58.4841 144.506 56.7503 139.999 56.7503C135.492 56.7503 131.656 58.4841 128.885 61.5071C128.605 61.8125 128.131 61.8331 127.825 61.5532C127.52 61.2733 127.499 60.7989 127.779 60.4935C130.841 57.1529 135.082 55.2503 139.999 55.2503C144.916 55.2503 149.156 57.1529 152.218 60.4935C152.498 60.7989 152.478 61.2733 152.172 61.5532ZM144.513 66.5722C144.829 66.8402 145.303 66.8014 145.571 66.4856C145.839 66.1697 145.8 65.6964 145.484 65.4284C144.078 64.2355 142.167 63.5837 139.999 63.5837C137.83 63.5837 135.92 64.2355 134.513 65.4284C134.198 65.6964 134.159 66.1697 134.427 66.4856C134.695 66.8014 135.168 66.8402 135.484 66.5722C136.578 65.644 138.128 65.0837 139.999 65.0837C141.869 65.0837 143.42 65.644 144.513 66.5722Z" fill="#999999"/>
<path d="M147.258 61H152.831C153.173 61 153.489 61.1322 153.725 61.3702L157.669 65.3372C157.905 65.5752 158.037 65.8926 158.037 66.2364V71.8165C158.037 72.1603 157.905 72.4777 157.669 72.7157L153.778 76.6298C153.541 76.8678 153.226 77 152.884 77H147.258C146.916 77 146.601 76.8678 146.364 76.6298L142.368 72.6099C142.131 72.3719 142 72.0545 142 71.7107V66.2364C142 65.8926 142.131 65.5752 142.368 65.3372L146.338 61.3702C146.601 61.1322 146.916 61 147.258 61Z" fill="#EB5757"/>
<path d="M150.967 64.185V66.839C150.967 67.016 150.967 67.1929 150.941 67.3951L150.652 69.2908C150.625 69.4425 150.494 69.5688 150.31 69.5688H149.731C149.574 69.5688 149.416 69.4425 149.39 69.2908L149.101 67.3951C149.074 67.2182 149.074 67.0412 149.074 66.839V64.185C149.074 64.0081 149.232 63.8564 149.416 63.8564H150.652C150.809 63.8817 150.967 64.0081 150.967 64.185Z" fill="white"/>
<path d="M150.651 73.5619H149.363C149.153 73.5619 148.969 73.3768 148.969 73.1652V71.8694C148.969 71.6578 149.153 71.4727 149.363 71.4727H150.651C150.862 71.4727 151.046 71.6578 151.046 71.8694V73.1652C151.046 73.3768 150.862 73.5619 150.651 73.5619Z" fill="white"/>
<path d="M65.6562 17.9834H214.324" stroke="#E7E7E7" stroke-width="2.1011" stroke-miterlimit="10"/>
<path d="M73.7726 12.6177C75.1059 12.6177 76.217 11.5 76.217 10.1587C76.217 8.81741 75.1059 7.58789 73.7726 7.58789C72.4392 7.58789 71.3281 8.70563 71.3281 10.0469C71.3281 11.3882 72.4392 12.6177 73.7726 12.6177Z" fill="#E7E7E7"/>
<path d="M80.9913 12.6177C82.3247 12.6177 83.4358 11.5 83.4358 10.1587C83.4358 8.81741 82.3247 7.58789 80.9913 7.58789C79.658 7.58789 78.5469 8.70563 78.5469 10.0469C78.5469 11.3882 79.658 12.6177 80.9913 12.6177Z" fill="#E7E7E7"/>
<path d="M88.4367 12.6177C89.77 12.6177 90.8811 11.5 90.8811 10.1587C90.8811 8.81741 89.77 7.58789 88.4367 7.58789C87.1033 7.58789 85.9922 8.70563 85.9922 10.0469C85.9922 11.3882 86.9922 12.6177 88.4367 12.6177Z" fill="#E7E7E7"/>
</svg>
