<svg width="18" height="18" viewBox="0 0 18 18" fill="none" xmlns="http://www.w3.org/2000/svg">
<g clip-path="url(#clip0_1196_109493)">
<path fill-rule="evenodd" clip-rule="evenodd" d="M0.0488054 8.92808C0.0357056 8.89354 0.0251312 8.85799 0.0172184 8.82175C0.00575002 8.7693 0.000131391 8.71658 2.69557e-06 8.66439C-0.000137761 8.61219 0.00520927 8.55945 0.0164071 8.50694C0.0241329 8.47065 0.0345239 8.43506 0.0474454 8.40044C1.3841 4.75531 4.90415 1.99951 8.99852 1.99951C13.0928 1.99951 16.6128 4.75521 17.9495 8.40023C17.959 8.42563 17.9671 8.45156 17.9738 8.4779C18.0071 8.60838 18.0037 8.74118 17.9692 8.86423C17.9632 8.88585 17.9562 8.90717 17.9482 8.92812C16.5604 12.6536 13.0915 15.3254 8.99852 15.3254C4.90558 15.3254 1.43663 12.6535 0.0488054 8.92808ZM8.99852 3.49951C12.3133 3.49951 15.2355 5.68222 16.4425 8.66081C15.194 11.7157 12.317 13.8254 8.99852 13.8254C5.68004 13.8254 2.80303 11.7157 1.55455 8.66081C2.76159 5.68222 5.68375 3.49951 8.99852 3.49951ZM6.4504 8.6612C6.4504 7.1924 7.60851 6.03237 8.99973 6.03237C10.3909 6.03237 11.5491 7.1924 11.5491 8.6612C11.5491 10.13 10.3909 11.29 8.99973 11.29C7.60851 11.29 6.4504 10.13 6.4504 8.6612ZM8.99973 4.53237C6.74661 4.53237 4.9504 6.39785 4.9504 8.6612C4.9504 10.9246 6.74661 12.79 8.99973 12.79C11.2528 12.79 13.0491 10.9246 13.0491 8.6612C13.0491 6.39785 11.2528 4.53237 8.99973 4.53237Z" fill="currentColor"/>
</g>
<defs>
<clipPath id="clip0_1196_109493">
<rect width="18" height="18" fill="white"/>
</clipPath>
</defs>
</svg>
