<svg width="122" height="120" viewBox="0 0 122 120" fill="none" xmlns="http://www.w3.org/2000/svg">
<path d="M99.2231 33.1716H15.8898C14.0564 33.1716 12.4453 34.7923 12.4453 36.6366V94.3117C12.4453 96.156 14.0564 95.4853 15.8898 95.4853H99.0008C100.834 95.4853 102.445 96.156 102.445 94.3117V36.6366C102.668 34.7923 101.056 33.1716 99.2231 33.1716Z" fill="#F4F2FF" stroke="#E7E7E7" stroke-width="2" stroke-miterlimit="10" stroke-linejoin="round"/>
<path d="M113.167 92.2434V94.0877C113.167 96.1555 111.333 97.9997 109.278 97.9997H5.88889C3.83333 97.9997 2 96.1555 2 94.0877V92.2434H113.167Z" fill="white" stroke="#E7E7E7" stroke-width="2.1011" stroke-miterlimit="10"/>
<path d="M68.2226 92.2434V92.914C68.2226 94.0877 67.3338 95.2054 65.9449 95.2054H49.0004C47.8338 95.2054 46.7227 94.3112 46.7227 92.914V92.2434H68.2226Z" fill="#F4F2FF" stroke="#E7E7E7" stroke-width="2" stroke-miterlimit="10" stroke-linejoin="round"/>
<path d="M92.7218 40.716V86.4313C92.6106 88.3314 91.1106 89.8963 89.1662 89.8963H21.8329C19.8329 89.8963 18.2773 88.3314 18.2773 86.4313V40.716C18.2773 38.8158 19.8329 37.251 21.8329 37.251H89.2218C91.2218 37.251 92.7218 38.8158 92.7218 40.716Z" fill="#F4F2FF" stroke="#E7E7E7" stroke-width="2.1011" stroke-miterlimit="10"/>
<path d="M22.3316 42.5049C22.9983 42.5049 23.5538 41.946 23.5538 41.2754C23.5538 40.6048 22.9983 40.0459 22.3316 40.0459C21.6649 40.0459 21.1094 40.6048 21.1094 41.2754C21.1094 41.946 21.6649 42.5049 22.3316 42.5049Z" fill="#E7E7E7"/>
<path d="M25.9449 42.5049C26.6115 42.5049 27.1671 41.946 27.1671 41.2754C27.1671 40.6048 26.6115 40.0459 25.9449 40.0459C25.2782 40.0459 24.7227 40.6048 24.7227 41.2754C24.7227 41.946 25.2782 42.5049 25.9449 42.5049Z" fill="#E7E7E7"/>
<path d="M29.6675 42.5049C30.3342 42.5049 30.8898 41.946 30.8898 41.2754C30.8898 40.6048 30.3342 40.0459 29.6675 40.0459C29.0009 40.0459 28.4453 40.6048 28.4453 41.2754C28.4453 41.946 29.0009 42.5049 29.6675 42.5049Z" fill="#F4F2FF"/>
<path opacity="0.4" d="M92.7213 40.7164V85.0905H26.6102C24.6102 85.0905 23.0547 83.5257 23.0547 81.6255V37.2515H89.1658C91.2213 37.2515 92.7213 38.8163 92.7213 40.7164Z" fill="#F4F2FF"/>
<path d="M100.39 33.0597V78.775C100.39 78.8309 100.39 78.9427 100.39 78.9986C100.223 80.8429 98.7231 82.24 96.8897 82.24H29.5009C27.5009 82.24 25.9453 80.6752 25.9453 78.775V33.0597C25.9453 31.1596 27.5009 29.5947 29.5009 29.5947H96.8897C98.8897 29.5947 100.39 31.1037 100.39 33.0597Z" fill="#F4F2FF" stroke="#E7E7E7" stroke-width="2.1011" stroke-miterlimit="10"/>
<path d="M29.9996 34.8487C30.6662 34.8487 31.2218 34.2898 31.2218 33.6192C31.2218 32.9485 30.6662 32.3896 29.9996 32.3896C29.3329 32.3896 28.7773 32.9485 28.7773 33.6192C28.7773 34.2898 29.3329 34.8487 29.9996 34.8487Z" fill="#E7E7E7"/>
<path d="M33.6128 34.8487C34.2795 34.8487 34.8351 34.2898 34.8351 33.6192C34.8351 32.9485 34.2795 32.3896 33.6128 32.3896C32.9462 32.3896 32.3906 32.9485 32.3906 33.6192C32.3906 34.2898 32.9462 34.8487 33.6128 34.8487Z" fill="#E7E7E7"/>
<path d="M37.3316 34.8487C37.9983 34.8487 38.5538 34.2898 38.5538 33.6192C38.5538 32.9485 37.9983 32.3896 37.3316 32.3896C36.6649 32.3896 36.1094 32.9485 36.1094 33.6192C36.1094 34.2898 36.6649 34.8487 37.3316 34.8487Z" fill="#F4F2FF"/>
<path opacity="0.4" d="M100.385 33.0597V78.775C100.385 78.8309 100.385 78.9427 100.385 78.9986H34.7743C32.7743 78.9986 31.2188 77.4337 31.2188 75.5336V29.7624C31.2188 29.7065 31.2188 29.5947 31.2188 29.5388H96.8298C98.8854 29.5947 100.385 31.1036 100.385 33.0597Z" fill="#F4F2FF"/>
<path d="M108.273 72.1803C108.161 74.0805 106.661 75.6453 104.717 75.6453H37.3837C35.3837 75.6453 33.8281 74.0805 33.8281 72.1803V26.465C33.8281 24.5648 35.3837 23 37.3837 23H104.773C106.773 23 108.328 24.5648 108.328 26.465V72.1803H108.273Z" fill="white" stroke="#E7E7E7" stroke-width="2.1011" stroke-miterlimit="10"/>
<path d="M33.8281 30.9917H108.161" stroke="#E7E7E7" stroke-width="2.1011" stroke-miterlimit="10"/>
<path d="M37.8863 28.3088C38.5529 28.3088 39.1085 27.75 39.1085 27.0793C39.1085 26.4087 38.5529 25.7939 37.8863 25.7939C37.2196 25.7939 36.6641 26.3528 36.6641 27.0235C36.6641 27.6941 37.2196 28.3088 37.8863 28.3088Z" fill="#E7E7E7"/>
<path d="M41.4957 28.3088C42.1623 28.3088 42.7179 27.75 42.7179 27.0793C42.7179 26.4087 42.1623 25.7939 41.4957 25.7939C40.829 25.7939 40.2734 26.3528 40.2734 27.0235C40.2734 27.6941 40.829 28.3088 41.4957 28.3088Z" fill="#E7E7E7"/>
<path d="M45.2183 28.3088C45.885 28.3088 46.4405 27.75 46.4405 27.0793C46.4405 26.4087 45.885 25.7939 45.2183 25.7939C44.5517 25.7939 43.9961 26.3528 43.9961 27.0235C43.9961 27.6941 44.4961 28.3088 45.2183 28.3088Z" fill="#E7E7E7"/>
<path d="M66.0573 43.6224C66.0573 44.9232 65.0098 45.9727 63.724 45.9727C62.4381 45.9727 61.3906 44.9232 61.3906 43.6224C61.3906 42.3216 62.4381 41.2722 63.724 41.2722C65.0098 41.2722 66.0573 42.3216 66.0573 43.6224Z" fill="#828282" stroke="white"/>
<path d="M79.612 43.6222C79.612 44.923 78.5645 45.9724 77.2786 45.9724C75.9928 45.9724 74.9453 44.923 74.9453 43.6222C74.9453 42.3214 75.9928 41.272 77.2786 41.272C78.5645 41.272 79.612 42.3214 79.612 43.6222Z" fill="#828282" stroke="white"/>
<path d="M76.4448 58.2651H64.5559C62.667 58.2651 61.6114 56.1414 62.7225 54.5766C63.5559 53.4029 64.6114 52.4529 65.8336 51.7263C67.2225 50.9439 68.8336 50.4968 70.5003 50.4968C72.5003 50.4968 74.3336 51.1116 75.8892 52.1734C76.8336 52.8441 77.667 53.6265 78.3336 54.5766C79.3892 56.1414 78.3336 58.2651 76.4448 58.2651Z" fill="#E7E7E7" stroke="#E7E7E7" stroke-width="1.7035" stroke-miterlimit="10"/>
<path d="M74.671 58.2661H66.3932C66.3377 58.1543 66.3377 58.0425 66.3932 57.9307C67.0043 56.1983 68.6155 54.9688 70.5599 54.9688C72.5043 54.9688 74.1154 56.1983 74.7266 57.9307C74.7266 58.0425 74.7266 58.1543 74.671 58.2661Z" fill="#828282"/>
<path d="M75.8906 52.7335V53.1806C75.8906 53.5159 75.6128 53.7394 75.3351 53.7394H66.4462C66.1128 53.7394 65.8906 53.46 65.8906 53.1806V52.2864C67.2795 51.504 68.8906 51.0569 70.5573 51.0569C72.5017 51.0569 74.3351 51.6716 75.8906 52.7335Z" fill="white"/>
<path d="M49.7795 42.7805C49.7795 43.9001 48.9153 44.7958 47.8351 44.7958C46.7548 44.7958 45.8906 43.9001 45.8906 42.7805C45.8906 41.9296 47.0573 39.3769 47.5758 38.2573C47.6622 38.0334 47.9647 38.0334 48.0943 38.2573C48.6128 39.3321 49.7795 41.8848 49.7795 42.7805Z" fill="#E7E7E7"/>
<path d="M45.3342 47.8103C45.3342 48.9299 44.47 49.8255 43.3898 49.8255C42.3095 49.8255 41.4453 48.9299 41.4453 47.8103C41.4453 46.9594 42.612 44.4067 43.1305 43.2871C43.2169 43.0632 43.5194 43.0632 43.649 43.2871C44.1675 44.4067 45.3342 46.9594 45.3342 47.8103Z" fill="#E7E7E7"/>
<path d="M99.2205 58.2646H110.998C111.72 58.2646 112.387 58.5441 112.887 59.0471L121.22 67.4301C121.72 67.9331 121.998 68.6037 121.998 69.3302V81.1223C121.998 81.8488 121.72 82.5195 121.22 83.0225L112.998 91.2937C112.498 91.7967 111.832 92.0761 111.109 92.0761H99.2205C98.4983 92.0761 97.8316 91.7967 97.3316 91.2937L88.8871 82.7989C88.3871 82.2959 88.1094 81.6253 88.1094 80.8988V69.3302C88.1094 68.6037 88.3871 67.9331 88.8871 67.4301L97.276 59.0471C97.8316 58.5441 98.4983 58.2646 99.2205 58.2646Z" fill="#EB5757"/>
<path d="M107.055 64.9944V70.6029C107.055 70.9768 107.055 71.3507 106.999 71.778L106.388 75.784C106.332 76.1045 106.055 76.3716 105.666 76.3716H104.444C104.11 76.3716 103.777 76.1045 103.721 75.784L103.11 71.778C103.055 71.4041 103.055 71.0302 103.055 70.6029V64.9944C103.055 64.6205 103.388 64.3 103.777 64.3H106.388C106.721 64.3535 107.055 64.6205 107.055 64.9944Z" fill="white"/>
<path d="M106.388 84.8106H103.665C103.221 84.8106 102.832 84.4194 102.832 83.9723V81.2338C102.832 80.7867 103.221 80.3955 103.665 80.3955H106.388C106.832 80.3955 107.221 80.7867 107.221 81.2338V83.9723C107.221 84.4194 106.832 84.8106 106.388 84.8106Z" fill="white"/>
</svg>
