<svg width="122" height="122" viewBox="0 0 122 122" fill="none" xmlns="http://www.w3.org/2000/svg">
<path d="M121 61C121 77.7716 114.136 92.8897 103.13 103.756C92.361 114.504 77.4497 121 61 121C44.6686 121 29.7574 114.386 18.8698 103.756C7.8639 92.8897 1 77.7716 1 61C1 27.811 27.8639 1 61 1C94.1361 1 121 27.9291 121 61Z" fill="#F4F2FF" stroke="#F4F2FF" stroke-width="2" stroke-miterlimit="10"/>
<path d="M93.1314 29.5828C98.6543 29.5828 103.131 34.0599 103.131 39.5828V99.6081C103.131 102.264 102.102 104.842 100.094 106.58C89.6388 115.631 75.9558 121 61.0013 121C46.1762 121 32.5213 115.55 21.9842 106.593C19.9319 104.848 18.8711 102.237 18.8711 99.5435V39.5828C18.8711 34.0599 23.3482 29.5828 28.8711 29.5828H93.1314Z" fill="white" stroke="currentColor" stroke-width="2" stroke-miterlimit="10"/>
<path d="M59.0299 59.758L73.8922 44.9249C75.0633 43.7561 76.9596 43.7561 78.1307 44.9249L79.4915 46.2829C80.6654 47.4546 80.6659 49.3566 79.4924 50.5288L59.1076 70.8926C57.9404 72.0586 56.0509 72.0633 54.8779 70.9033L42.5456 58.7077C41.362 57.5373 41.3576 55.627 42.5358 54.4512L43.8858 53.1039C45.0569 51.9351 46.9531 51.9351 48.1242 53.1039L54.7914 59.758C55.9625 60.9267 57.8588 60.9267 59.0299 59.758Z" fill="#6FCF97"/>
<path d="M79.8213 83.0867H42.1775C40.6772 83.0867 39.4609 84.3029 39.4609 85.8032C39.4609 87.3035 40.6772 88.5197 42.1775 88.5197H79.8213C81.3216 88.5197 82.5379 87.3035 82.5379 85.8032C82.5379 84.3029 81.3216 83.0867 79.8213 83.0867Z" fill="#E7E7E7"/>
<path d="M79.8213 95.0156H42.1775C40.6772 95.0156 39.4609 96.2319 39.4609 97.7322C39.4609 99.2325 40.6772 100.449 42.1775 100.449H79.8213C81.3216 100.449 82.5379 99.2325 82.5379 97.7322C82.5379 96.2319 81.3216 95.0156 79.8213 95.0156Z" fill="#E7E7E7"/>
<path d="M69.2914 107.062H52.7126C51.2123 107.062 49.9961 108.279 49.9961 109.779C49.9961 111.279 51.2123 112.496 52.7126 112.496H69.2914C70.7917 112.496 72.0079 111.279 72.0079 109.779C72.0079 108.279 70.7917 107.062 69.2914 107.062Z" fill="#E7E7E7"/>
</svg>
