<svg width="16" height="16" viewBox="0 0 16 16" fill="none" xmlns="http://www.w3.org/2000/svg">
<path fill-rule="evenodd" clip-rule="evenodd" d="M6.94252 0.119883L7.04176 0.119893L7.08233 0.119891C7.4678 0.119862 7.71587 0.119843 7.95819 0.144712C8.87956 0.23927 9.75319 0.601138 10.4716 1.18579C10.6605 1.33954 10.8359 1.51497 11.1084 1.78755L11.1371 1.81625L11.7995 2.47858C11.813 2.49215 11.8261 2.50624 11.8386 2.52082L12.4368 3.21879L12.4911 3.28213L12.4911 3.28214C13.0097 3.88692 13.344 4.27678 13.5856 4.72339C13.7996 5.11875 13.9564 5.54249 14.0512 5.98192C14.1584 6.47831 14.1583 6.99184 14.1582 7.7885L14.1581 7.87194V9.42596L14.1582 9.58848C14.1585 11.0183 14.1588 11.9304 13.8947 12.6898C13.4178 14.0615 12.3397 15.1397 10.9679 15.6166C10.2085 15.8806 9.29648 15.8804 7.86663 15.88L7.7041 15.88L7.54157 15.88C6.11172 15.8804 5.19968 15.8806 4.44025 15.6166C3.06854 15.1397 1.99035 14.0615 1.51346 12.6898C1.24944 11.9304 1.24967 11.0183 1.25003 9.58848L1.25005 9.42596V5.91161L1.25004 5.81236C1.24991 4.93928 1.24982 4.38353 1.34907 3.90509C1.73355 2.05164 3.1818 0.603388 5.03525 0.218908C5.51369 0.119662 6.06944 0.119748 6.94252 0.119883ZM7.04176 1.61989C6.03614 1.61989 5.64752 1.62383 5.33993 1.68764C4.07177 1.95071 3.08087 2.94161 2.8178 4.20977C2.75399 4.51736 2.75005 4.90598 2.75005 5.91161V9.42596C2.75005 11.0747 2.76054 11.709 2.93028 12.1972C3.25657 13.1358 3.99428 13.8735 4.93282 14.1998C5.42106 14.3695 6.05537 14.38 7.7041 14.38C9.35283 14.38 9.98713 14.3695 10.4754 14.1998C11.4139 13.8735 12.1516 13.1358 12.4779 12.1972C12.6477 11.709 12.6581 11.0747 12.6581 9.42596V7.87194C12.6581 7.23847 12.6562 6.87923 12.6316 6.61098H11.6181H11.5876H11.5876C11.0535 6.61099 10.6076 6.611 10.2434 6.58124C9.86352 6.5502 9.50686 6.48309 9.1696 6.31124C8.65215 6.04759 8.23146 5.6269 7.9678 5.10945C7.79596 4.77219 7.72885 4.41553 7.69781 4.03565C7.66805 3.67142 7.66806 3.22557 7.66807 2.69143V2.69141L7.66807 2.66098V1.62676C7.53594 1.62037 7.3604 1.61989 7.04176 1.61989ZM9.16807 2.09679V2.66098C9.16807 3.2334 9.16865 3.61762 9.19283 3.9135C9.21629 4.20062 9.25817 4.3379 9.30431 4.42846C9.42416 4.66367 9.61538 4.85489 9.85058 4.97474C9.94114 5.02088 10.0784 5.06276 10.3656 5.08622C10.6614 5.11039 11.0456 5.11098 11.6181 5.11098H12.0559C11.9008 4.90069 11.6743 4.6341 11.2979 4.19497L10.7184 3.51887L10.0765 2.87691C9.76573 2.56618 9.64681 2.44854 9.52473 2.34919C9.41121 2.2568 9.29202 2.17254 9.16807 2.09679ZM8.45554 8.00032C8.45554 7.5861 8.11975 7.25032 7.70554 7.25032C7.29133 7.25032 6.95554 7.5861 6.95554 8.00032V9.38947H5.56609C5.15188 9.38947 4.81609 9.72526 4.81609 10.1395C4.81609 10.5537 5.15188 10.8895 5.56609 10.8895H6.95554V12.2784C6.95554 12.6926 7.29133 13.0284 7.70554 13.0284C8.11975 13.0284 8.45554 12.6926 8.45554 12.2784V10.8895H9.84412C10.2583 10.8895 10.5941 10.5537 10.5941 10.1395C10.5941 9.72526 10.2583 9.38947 9.84412 9.38947H8.45554V8.00032Z" fill="currentColor"/>
</svg>
