<svg width="20" height="20" viewBox="0 0 20 20" fill="none" xmlns="http://www.w3.org/2000/svg">
<path fill-rule="evenodd" clip-rule="evenodd" d="M7.95001 2H7.9167H7.91669C6.68478 2 5.71432 1.99999 4.93334 2.0638C4.13657 2.1289 3.4712 2.26413 2.86655 2.57222C1.8787 3.07555 1.07555 3.8787 0.572216 4.86655C0.263624 5.4722 0.128709 6.14252 0.0637462 6.94636C-8.73458e-06 7.73526 -4.86028e-06 8.71779 8.69074e-08 9.96636V9.99947V10.0326C-4.86028e-06 11.2812 -8.73458e-06 12.2637 0.0637462 13.0526C0.128709 13.8564 0.263624 14.5268 0.572216 15.1324C1.07555 16.1202 1.8787 16.9234 2.86655 17.4267C3.4712 17.7348 4.13657 17.87 4.93333 17.9351C5.71431 17.999 6.68477 17.999 7.91667 17.9989H7.91672H7.95H12.0493H12.0826H12.0827C13.3146 17.999 14.285 17.999 15.066 17.9351C15.8628 17.87 16.5281 17.7348 17.1328 17.4267C18.1206 16.9234 18.9238 16.1202 19.4271 15.1324C19.7357 14.5268 19.8706 13.8564 19.9356 13.0526C19.9994 12.2637 19.9993 11.2812 19.9993 10.0326V9.99947V9.96632C19.9993 8.71777 19.9994 7.73525 19.9356 6.94636C19.8706 6.14252 19.7357 5.4722 19.4271 4.86655C18.9238 3.8787 18.1206 3.07555 17.1328 2.57222C16.5281 2.26413 15.8628 2.1289 15.066 2.0638C14.285 1.99999 13.3146 2 12.0827 2H12.0493H7.95001ZM3.54754 3.90873C3.90549 3.72634 4.35148 3.61634 5.05548 3.55882C5.76824 3.50058 6.67751 3.5 7.95001 3.5H12.0493C13.3218 3.5 14.2311 3.50058 14.9439 3.55882C15.6479 3.61634 16.0939 3.72634 16.4518 3.90873C17.1574 4.26825 17.7311 4.84193 18.0906 5.54754C18.2725 5.90449 18.3828 6.35378 18.4405 7.06719C18.4988 7.78859 18.4993 8.71058 18.4993 9.99947C18.4993 11.2884 18.4988 12.2104 18.4405 12.9318C18.3828 13.6452 18.2725 14.0945 18.0906 14.4514C17.7311 15.157 17.1574 15.7307 16.4518 16.0902C16.0939 16.2726 15.6479 16.3826 14.9439 16.4401C14.2311 16.4984 13.3218 16.4989 12.0493 16.4989H7.95C6.67751 16.4989 5.76824 16.4984 5.05548 16.4401C4.35148 16.3826 3.90549 16.2726 3.54754 16.0902C2.84193 15.7307 2.26825 15.157 1.90873 14.4514C1.72685 14.0945 1.61653 13.6452 1.55887 12.9318C1.50057 12.2104 1.5 11.2884 1.5 9.99947C1.5 8.71058 1.50057 7.78859 1.55887 7.06719C1.61653 6.35378 1.72685 5.90449 1.90873 5.54754C2.26825 4.84193 2.84193 4.26825 3.54754 3.90873ZM11.6797 9.99894C11.6797 10.4131 11.3439 10.7489 10.9297 10.7489H3.52995C3.11574 10.7489 2.77995 10.4131 2.77995 9.99894C2.77995 9.58472 3.11574 9.24894 3.52995 9.24894H10.9297C11.3439 9.24894 11.6797 9.58472 11.6797 9.99894ZM8.32812 13.624C8.32812 13.2098 8.66391 12.874 9.07812 12.874L16.4779 12.874C16.8921 12.874 17.2279 13.2098 17.2279 13.624C17.2279 14.0382 16.8921 14.374 16.4779 14.374H9.07812C8.66391 14.374 8.32812 14.0382 8.32812 13.624ZM3.52734 12.874C3.11313 12.874 2.77734 13.2098 2.77734 13.624C2.77734 14.0382 3.11313 14.374 3.52734 14.374H5.37647C5.79068 14.374 6.12647 14.0382 6.12647 13.624C6.12647 13.2098 5.79068 12.874 5.37647 12.874H3.52734ZM17.2266 9.99894C17.2266 10.4131 16.8908 10.7489 16.4766 10.7489L14.6274 10.7489C14.2132 10.7489 13.8774 10.4131 13.8774 9.99894C13.8774 9.58472 14.2132 9.24894 14.6274 9.24894H16.4766C16.8908 9.24894 17.2266 9.58472 17.2266 9.99894Z" fill="currentColor"/>
</svg>
