<svg width="48" height="48" viewBox="0 0 48 48" fill="none" xmlns="http://www.w3.org/2000/svg">
<path d="M47.9986 30.4856V33.806C47.9986 34.3571 47.9746 34.9129 47.9265 35.4639C47.2531 43.0457 41.9866 47.9999 34.3874 47.9999H13.6099C9.76216 47.9999 6.51567 46.7511 4.18301 44.4869C3.26918 43.6472 2.49964 42.6607 1.89844 41.5298C2.69202 40.5649 3.5818 39.5086 4.44754 38.4499C5.91447 36.6934 7.33331 34.9586 8.22309 33.8301C9.54573 32.1939 13.0327 27.8869 17.8664 29.9081C18.8523 30.3171 19.7181 30.8946 20.5117 31.3999C22.4596 32.6992 23.2772 33.0842 24.6479 32.3383C26.163 31.5202 27.1489 29.9081 28.183 28.2238C28.7361 27.3311 29.2892 26.4673 29.8904 25.6733C32.5117 22.2565 36.5517 21.3422 39.9185 23.3634C41.6018 24.3739 43.0447 25.6492 44.3914 26.9461C44.68 27.2349 44.9686 27.5019 45.2331 27.7666C45.5938 28.1275 46.7962 29.3306 47.9986 30.4856Z" fill="#1D46D8"/>
<path opacity="0.4" d="M34.4128 0H13.6112C5.45892 0 0 5.70257 0 14.1939V33.8064C0 36.7635 0.673347 39.3886 1.8998 41.5301C2.69339 40.5652 3.58317 39.5089 4.4489 38.4478C5.91583 36.6938 7.33467 34.9589 8.22445 33.8304C9.54709 32.1943 13.0341 27.8872 17.8677 29.9084C18.8537 30.3175 19.7194 30.8949 20.513 31.4002C22.4609 32.6995 23.2786 33.0845 24.6493 32.3362C26.1643 31.5205 27.1503 29.9084 28.1844 28.2217C28.7375 27.3314 29.2906 26.4676 29.8918 25.6736C32.513 22.2569 36.5531 21.3425 39.9198 23.3637C41.6032 24.3743 43.0461 25.6495 44.3928 26.9464C44.6814 27.2352 44.9699 27.5023 45.2345 27.7669C45.5952 28.1255 46.7976 29.3285 48 30.4859V14.1939C48 5.70257 42.5411 0 34.4128 0Z" fill="#1D46D8"/>
<path d="M22.6919 16.312C22.6919 19.6927 19.8758 22.5079 16.4971 22.5079C13.1207 22.5079 10.3047 19.6927 10.3047 16.312C10.3047 12.9338 13.1207 10.1162 16.4971 10.1162C19.8758 10.1162 22.6919 12.9338 22.6919 16.312Z" fill="#1D46D8"/>
</svg>
