<svg width="14" height="14" viewBox="0 0 14 14" fill="none" xmlns="http://www.w3.org/2000/svg">
<g clip-path="url(#clip0_1196_109362)">
<path fill-rule="evenodd" clip-rule="evenodd" d="M6.65401 -0.00170753L6.62356 -0.00170407L6.59311 -0.00170753H6.59302C6.37801 -0.00172458 6.23163 -0.00173618 6.10224 0.00719234C4.23465 0.136066 2.74817 1.62254 2.61929 3.49014C2.61036 3.61955 2.61038 3.76595 2.6104 3.98101V3.98103L2.6104 4.01146V4.03382C1.19001 4.75089 0.181846 6.15828 0.0218647 7.82005C-4.66024e-05 8.04765 -2.76482e-05 8.30804 2.15415e-06 8.7175L4.41913e-06 8.76404L2.15415e-06 8.81059C-2.76482e-05 9.22005 -4.66024e-05 9.48043 0.0218647 9.70803C0.239775 11.9715 2.03132 13.7631 4.29482 13.981C4.52241 14.0029 4.78279 14.0029 5.19223 14.0028L5.23881 14.0028H8.00859L8.05517 14.0028C8.4646 14.0029 8.72499 14.0029 8.95258 13.981C11.2161 13.7631 13.0076 11.9715 13.2255 9.70803C13.2474 9.48043 13.2474 9.22004 13.2474 8.81057L13.2474 8.76404V7.21209C13.2474 5.54977 12.1473 4.1444 10.6353 3.68436C10.6341 3.61269 10.6319 3.54962 10.6278 3.49014C10.499 1.62254 9.01248 0.136066 7.14488 0.00719234C7.01549 -0.00173618 6.86911 -0.00172458 6.6541 -0.00170753H6.65401ZM4.29482 3.5471C4.23544 3.55282 4.17638 3.55962 4.11767 3.56748C4.20685 2.45912 5.0936 1.58036 6.2055 1.50363C6.27636 1.49874 6.36669 1.4983 6.62356 1.4983C6.88043 1.4983 6.97076 1.49874 7.04162 1.50363C8.13936 1.57938 9.01764 2.43686 9.12565 3.52524H6.6237H5.23881L5.19226 3.52524H5.19224C4.7828 3.52521 4.52241 3.52519 4.29482 3.5471ZM5.23881 5.02524C4.76743 5.02524 4.58489 5.02611 4.43856 5.0402C2.88985 5.18929 1.66406 6.41509 1.51496 7.9638C1.50087 8.11012 1.5 8.29266 1.5 8.76404C1.5 9.23542 1.50087 9.41796 1.51496 9.56429C1.66406 11.113 2.88985 12.3388 4.43856 12.4879C4.58489 12.502 4.76743 12.5028 5.23881 12.5028H8.00859C8.47997 12.5028 8.66251 12.502 8.80884 12.4879C10.3575 12.3388 11.5833 11.113 11.7324 9.56429C11.7465 9.41796 11.7474 9.23542 11.7474 8.76404V7.21209C11.7474 6.00432 10.7683 5.02524 9.56054 5.02524H6.6237H5.23881ZM7.37403 7.48149C7.37403 7.06728 7.03824 6.73149 6.62403 6.73149C6.20981 6.73149 5.87403 7.06728 5.87403 7.48149V9.40526C5.87403 9.81948 6.20981 10.1553 6.62403 10.1553C7.03824 10.1553 7.37403 9.81948 7.37403 9.40526V7.48149Z" fill="currentColor"/>
</g>
<defs>
<clipPath id="clip0_1196_109362">
<rect width="14" height="14" fill="white"/>
</clipPath>
</defs>
</svg>
