<svg width="20" height="20" viewBox="0 0 20 20" fill="none" xmlns="http://www.w3.org/2000/svg">
<g clip-path="url(#clip0_1196_109379)">
<path fill-rule="evenodd" clip-rule="evenodd" d="M7.95 2H7.91669H7.91669C6.68478 1.99999 5.71432 1.99999 4.93334 2.0638C4.13657 2.1289 3.4712 2.26413 2.86655 2.57222C1.8787 3.07555 1.07555 3.8787 0.572216 4.86655C0.26413 5.4712 0.128898 6.13657 0.0637999 6.93334C-8.951e-06 7.71432 -5.0068e-06 8.68478 0 9.91669V9.91669V9.95V10.4635V10.4968C-5.00679e-06 11.7287 -9.05991e-06 12.6991 0.0637999 13.4801C0.128898 14.2769 0.26413 14.9423 0.572216 15.5469C1.07555 16.5348 1.8787 17.3379 2.86655 17.8412C3.4712 18.1493 4.13657 18.2846 4.93333 18.3497C5.71431 18.4135 6.68477 18.4135 7.91667 18.4135H7.95H12.0506H12.0839C13.3158 18.4135 14.2863 18.4135 15.0673 18.3497C15.864 18.2846 16.5294 18.1493 17.134 17.8412C18.1219 17.3379 18.925 16.5348 19.4284 15.5469C19.7365 14.9423 19.8717 14.2769 19.9368 13.4801C20.0006 12.6991 20.0006 11.7287 20.0006 10.4968V10.4635V9.95V9.91667C20.0006 8.68477 20.0006 7.71432 19.9368 6.93334C19.8717 6.13657 19.7365 5.4712 19.4284 4.86655C18.925 3.8787 18.1219 3.07555 17.134 2.57222C16.5294 2.26413 15.864 2.1289 15.0673 2.0638C14.2863 1.99999 13.3158 1.99999 12.0839 2H12.0506H7.95ZM3.54754 3.90873C3.90549 3.72634 4.35148 3.61634 5.05548 3.55882C5.76824 3.50058 6.67751 3.5 7.95 3.5H12.0506C13.3231 3.5 14.2324 3.50058 14.9451 3.55882C15.6491 3.61634 16.0951 3.72634 16.4531 3.90873C17.1587 4.26825 17.7323 4.84193 18.0919 5.54754C18.2743 5.90549 18.3843 6.35148 18.4418 7.05548C18.5 7.76824 18.5006 8.67751 18.5006 9.95V10.4635C18.5006 11.7359 18.5 12.6452 18.4418 13.358C18.3843 14.062 18.2743 14.508 18.0919 14.8659C17.7323 15.5715 17.1587 16.1452 16.4531 16.5047C16.0951 16.6871 15.6491 16.7971 14.9451 16.8546C14.2324 16.9129 13.3231 16.9135 12.0506 16.9135H7.95C6.6775 16.9135 5.76824 16.9129 5.05548 16.8546C4.35148 16.7971 3.90549 16.6871 3.54754 16.5047C2.84193 16.1452 2.26825 15.5715 1.90873 14.8659C1.72634 14.508 1.61634 14.062 1.55882 13.358C1.50058 12.6452 1.5 11.7359 1.5 10.4635V9.95C1.5 8.67751 1.50058 7.76824 1.55882 7.05548C1.61634 6.35148 1.72634 5.90549 1.90873 5.54754C2.26825 4.84193 2.84193 4.26825 3.54754 3.90873ZM3.89882 5.36225C3.53986 5.15556 3.08131 5.27901 2.87462 5.63797C2.66793 5.99693 2.79138 6.45548 3.15034 6.66216L9.12656 10.1032C9.66711 10.4145 10.3325 10.4145 10.873 10.1032L16.8492 6.66216C17.2082 6.45548 17.3316 5.99693 17.125 5.63797C16.9183 5.27901 16.4597 5.15556 16.1008 5.36225L10.1245 8.8033C10.0473 8.84776 9.95226 8.84776 9.87504 8.8033L3.89882 5.36225Z" fill="currentColor"/>
</g>
<defs>
<clipPath id="clip0_1196_109379">
<rect width="20" height="20" fill="white"/>
</clipPath>
</defs>
</svg>
