<svg width="22" height="21" viewBox="0 0 22 21" fill="none" xmlns="http://www.w3.org/2000/svg">
<g clip-path="url(#clip0_1196_109378)">
<path fill-rule="evenodd" clip-rule="evenodd" d="M7.95 3H7.91669H7.91669C6.68478 2.99999 5.71432 2.99999 4.93334 3.0638C4.13657 3.1289 3.4712 3.26413 2.86655 3.57222C1.8787 4.07555 1.07555 4.8787 0.572216 5.86655C0.26413 6.4712 0.128898 7.13657 0.0637999 7.93334C-8.951e-06 8.71432 -5.0068e-06 9.68478 0 10.9167V10.9167V10.95V11.4635V11.4968C-5.00679e-06 12.7287 -9.05991e-06 13.6991 0.0637999 14.4801C0.128898 15.2769 0.26413 15.9423 0.572216 16.5469C1.07555 17.5348 1.8787 18.3379 2.86655 18.8412C3.4712 19.1493 4.13657 19.2846 4.93333 19.3497C5.71431 19.4135 6.68477 19.4135 7.91667 19.4135H7.95H12.0506H12.0839C13.3158 19.4135 14.2863 19.4135 15.0673 19.3497C15.864 19.2846 16.5294 19.1493 17.134 18.8412C18.1219 18.3379 18.925 17.5348 19.4284 16.5469C19.7365 15.9423 19.8717 15.2769 19.9368 14.4801C20.0006 13.6991 20.0006 12.7287 20.0006 11.4968V11.4635V10.95V10.9167C20.0006 9.68477 20.0006 8.71432 19.9368 7.93334C19.8717 7.13657 19.7365 6.4712 19.4284 5.86655C18.925 4.8787 18.1219 4.07555 17.134 3.57222C16.5294 3.26413 15.864 3.1289 15.0673 3.0638C14.2863 2.99999 13.3158 2.99999 12.0839 3H12.0506H7.95ZM3.54754 4.90873C3.90549 4.72634 4.35148 4.61634 5.05548 4.55882C5.76824 4.50058 6.67751 4.5 7.95 4.5H12.0506C13.3231 4.5 14.2324 4.50058 14.9451 4.55882C15.6491 4.61634 16.0951 4.72634 16.4531 4.90873C17.1587 5.26825 17.7323 5.84193 18.0919 6.54754C18.2743 6.90549 18.3843 7.35148 18.4418 8.05548C18.5 8.76824 18.5006 9.67751 18.5006 10.95V11.4635C18.5006 12.7359 18.5 13.6452 18.4418 14.358C18.3843 15.062 18.2743 15.508 18.0919 15.8659C17.7323 16.5715 17.1587 17.1452 16.4531 17.5047C16.0951 17.6871 15.6491 17.7971 14.9451 17.8546C14.2324 17.9129 13.3231 17.9135 12.0506 17.9135H7.95C6.6775 17.9135 5.76824 17.9129 5.05548 17.8546C4.35148 17.7971 3.90549 17.6871 3.54754 17.5047C2.84193 17.1452 2.26825 16.5715 1.90873 15.8659C1.72634 15.508 1.61634 15.062 1.55882 14.358C1.50058 13.6452 1.5 12.7359 1.5 11.4635V10.95C1.5 9.67751 1.50058 8.76824 1.55882 8.05548C1.61634 7.35148 1.72634 6.90549 1.90873 6.54754C2.26825 5.84193 2.84193 5.26825 3.54754 4.90873ZM3.89882 6.36225C3.53986 6.15556 3.08131 6.27901 2.87462 6.63797C2.66793 6.99693 2.79138 7.45548 3.15034 7.66216L9.12656 11.1032C9.66711 11.4145 10.3325 11.4145 10.873 11.1032L16.8492 7.66216C17.2082 7.45548 17.3316 6.99693 17.125 6.63797C16.9183 6.27901 16.4597 6.15556 16.1008 6.36225L10.1245 9.8033C10.0473 9.84776 9.95226 9.84776 9.87504 9.8033L3.89882 6.36225Z" fill="currentColor"/>
</g>
<circle cx="18" cy="4" r="3" fill="#EB5757" stroke="white" stroke-width="2"/>
<defs>
<clipPath id="clip0_1196_109378">
<rect width="20" height="20" fill="white" transform="translate(0 1)"/>
</clipPath>
</defs>
</svg>
