<svg width="360" height="360" viewBox="0 0 360 360" fill="none" xmlns="http://www.w3.org/2000/svg">
<g clip-path="url(#clip0_1196_108728)">
<path d="M344.343 255.876V257.299V258.21C344.343 258.21 344.343 258.76 344.343 259.04V259.362C344.343 259.362 344.343 259.523 344.343 259.594C344.343 259.893 344.319 260.187 344.314 260.472C344.309 260.756 344.314 261.013 344.281 261.278C344.248 261.544 344.257 261.752 344.248 261.975C344.248 262.298 344.21 262.616 344.186 262.924C344.153 263.545 344.096 264.166 344.053 264.778C344.011 265.39 343.949 266.021 343.878 266.637V266.898C343.826 267.406 343.773 267.904 343.717 268.402C343.717 268.454 343.717 268.511 343.693 268.558C343.669 268.606 343.693 268.686 343.693 268.748C343.631 269.222 343.565 269.697 343.503 270.171V270.294C343.501 270.323 343.501 270.351 343.503 270.38C343.437 270.901 343.356 271.423 343.275 271.94C343.252 272.12 343.223 272.286 343.195 272.462C343.152 272.775 343.109 273.073 343.053 273.377C343.053 273.519 343.005 273.671 342.972 273.818C342.939 273.965 342.934 274.055 342.915 274.169C342.82 274.752 342.711 275.326 342.597 275.91C342.483 276.493 342.389 276.948 342.28 277.47C342.132 278.196 341.971 278.893 341.805 279.647C341.729 279.979 341.644 280.32 341.563 280.657C341.54 280.766 341.511 280.871 341.487 280.98C341.478 281.034 341.465 281.088 341.45 281.141C341.307 281.71 341.165 282.265 341.013 282.82C340.899 283.294 340.767 283.74 340.638 284.205C340.601 284.352 340.563 284.499 340.51 284.679C340.368 285.153 340.24 285.628 340.084 286.102C340.07 286.168 340.053 286.233 340.031 286.296C339.861 286.851 339.69 287.416 339.51 287.966C339.487 288.007 339.471 288.052 339.462 288.098L339.149 289.047C339.021 289.441 338.888 289.839 338.741 290.242C338.594 290.645 338.481 290.973 338.352 291.343C338.344 291.375 338.333 291.407 338.319 291.437C338.191 291.788 338.063 292.149 337.926 292.505C337.926 292.552 337.883 292.609 337.859 292.671C337.798 292.855 337.726 293.036 337.66 293.216C337.594 293.396 337.508 293.605 337.437 293.795C337.309 294.112 337.186 294.425 337.053 294.743C336.711 295.592 336.37 296.432 335.995 297.276C335.953 297.38 335.905 297.494 335.858 297.598C335.763 297.807 335.668 298.02 335.578 298.239L335.279 298.903L334.587 300.202C334.587 300.254 334.549 300.297 334.52 300.349C334.492 300.401 334.402 300.591 334.35 300.714C334.336 300.745 334.32 300.775 334.302 300.804C334.131 301.16 333.965 301.511 333.785 301.862C333.605 302.213 333.42 302.611 333.23 302.977C333.041 303.342 332.851 303.721 332.661 304.091C332.543 304.328 332.419 304.565 332.291 304.798C331.675 305.946 331.044 307.089 330.394 308.213C330.219 308.511 330.043 308.81 329.853 309.109C329.664 309.408 329.583 309.583 329.441 309.816L329.389 309.91C328.71 311.025 328.018 312.121 327.297 313.197C326.747 314.046 326.173 314.881 325.59 315.711C325.243 316.209 324.888 316.702 324.532 317.191C324.233 317.594 323.944 317.997 323.636 318.395C323.327 318.794 323.038 319.197 322.73 319.595C322.118 320.383 321.497 321.156 320.875 321.929C320.857 321.946 320.839 321.965 320.823 321.986C320.515 322.36 320.202 322.735 319.875 323.1C318.585 324.627 317.252 326.126 315.862 327.577C315.639 327.814 315.412 328.052 315.179 328.298L314.828 328.654L313.96 329.536C313.192 330.304 312.414 331.068 311.613 331.808C311.252 332.149 310.887 332.496 310.517 332.828C310.147 333.159 309.773 333.501 309.403 333.838C308.663 334.492 307.899 335.147 307.14 335.787C306.378 336.438 305.601 337.071 304.807 337.684L304.129 338.215L303.616 338.609C302.426 339.524 301.217 340.416 299.979 341.27C299.571 341.559 299.158 341.848 298.746 342.128L297.494 342.968L296.227 343.783C295.805 344.058 295.378 344.324 294.951 344.585L293.666 345.367C293.225 345.623 292.798 345.884 292.362 346.136L291.053 346.876C290.612 347.127 290.175 347.378 289.725 347.606C289.274 347.834 288.776 348.109 288.326 348.355L287.036 349.01C286.656 349.2 286.263 349.399 285.874 349.584C285.774 349.641 285.67 349.688 285.57 349.74C285.158 349.939 284.736 350.134 284.313 350.328L282.995 350.95L281.487 351.604C281.088 351.775 280.695 351.95 280.301 352.107C279.177 352.581 278.048 353.017 276.905 353.459L275.881 353.833C275.35 354.028 274.818 354.213 274.282 354.398L273.158 354.782C272.622 354.953 272.077 355.133 271.527 355.303C270.977 355.474 270.578 355.607 270.076 355.749C269.506 355.915 268.928 356.086 268.349 356.224C267.927 356.347 267.51 356.456 267.092 356.57C266.675 356.684 266.277 356.778 265.864 356.883C263.749 357.423 261.603 357.898 259.428 358.306L258.005 358.557C257.616 358.623 257.232 358.69 256.853 358.742C256.25 358.846 255.643 358.932 255.032 359.017C254.605 359.074 254.178 359.14 253.746 359.188L252.765 359.311C252.575 359.311 252.404 359.354 252.214 359.373C252.025 359.392 251.74 359.434 251.47 359.453L250.422 359.558L248.648 359.705L247.348 359.8H247.263C246.974 359.8 246.684 359.842 246.386 359.852C246.087 359.861 245.669 359.885 245.304 359.899C244.83 359.899 244.356 359.942 243.881 359.956C243.407 359.97 242.847 359.956 242.335 359.989C241.429 359.989 240.528 360.013 239.622 359.989C224.036 359.856 208.684 356.191 194.718 349.271C190.924 347.374 187.044 345.671 183.117 344.125L182.363 343.831C181.139 343.356 179.906 342.882 178.668 342.451C166.129 337.946 153.014 335.241 139.716 334.416L138.497 334.345C135.424 334.187 132.344 334.135 129.258 334.189C123.798 334.28 118.349 334.713 112.943 335.483C112.535 335.54 112.132 335.602 111.719 335.645C111.345 335.697 110.98 335.74 110.595 335.773C108.855 335.972 107.105 336.1 105.326 336.157C105.099 336.157 104.876 336.157 104.648 336.185C103.263 336.228 101.864 336.228 100.46 336.185L99.0989 336.133H98.8428C98.4729 336.133 98.1124 336.1 97.7472 336.072C97.2445 336.043 96.7465 336.005 96.2391 335.967L95.8501 335.929L95.0676 335.849L94.6312 335.806L93.7538 335.711L92.4211 335.536L91.1121 335.341C90.9509 335.341 90.7991 335.294 90.6378 335.27C90.3533 335.223 90.0782 335.175 89.7984 335.118C89.7542 335.123 89.7097 335.123 89.6656 335.118L89.253 335.042L88.4989 334.895C88.0483 334.805 87.5977 334.72 87.1472 334.616L86.8294 334.549C86.6966 334.521 86.5591 334.487 86.4168 334.464C85.8287 334.326 85.2406 334.184 84.6477 334.032C84.2209 333.928 83.7988 333.819 83.3814 333.7C82.1957 333.382 81.01 333.027 79.8575 332.643C79.6963 332.595 79.5398 332.538 79.3833 332.486L78.4347 332.154L77.4387 331.798C77.0024 331.637 76.5613 331.471 76.125 331.3C75.6886 331.13 75.2476 330.954 74.8112 330.769L74.2089 330.518C73.9291 330.404 73.6587 330.285 73.3789 330.162C72.9426 329.977 72.5015 329.773 72.0652 329.569C71.9703 329.517 71.866 329.479 71.7664 329.432C71.3538 329.247 70.9364 329.043 70.519 328.844L70.4716 328.81C69.9973 328.578 69.523 328.336 69.0488 328.099C69.0292 328.088 69.0085 328.078 68.9871 328.071L67.6354 327.354C67.4647 327.25 67.2797 327.155 67.1137 327.06C66.8292 326.899 66.5398 326.743 66.2648 326.586C66.2519 326.579 66.2406 326.569 66.2316 326.558C65.928 326.387 65.6292 326.216 65.3399 326.031C65.2403 325.979 65.1407 325.927 65.0459 325.87C64.951 325.813 64.8514 325.747 64.7471 325.69C64.3439 325.434 63.9408 325.215 63.5329 324.936L63.4428 324.874C62.5986 324.343 61.7686 323.783 60.9529 323.209C60.8642 323.156 60.7787 323.097 60.6968 323.034C60.3743 322.806 60.047 322.559 59.7482 322.346L59.5443 322.194C59.1316 321.895 58.7238 321.587 58.3254 321.284L57.078 320.34L56.9974 320.273C56.58 319.946 56.1722 319.609 55.7643 319.273C55.3564 318.936 55.0481 318.661 54.6924 318.357C54.626 318.297 54.5563 318.24 54.4837 318.187L53.3692 317.191C52.8949 316.764 52.4206 316.327 51.9748 315.882C51.7946 315.716 51.6144 315.545 51.4436 315.369L51.344 315.279C51.1448 315.08 50.9456 314.886 50.7559 314.686C50.5662 314.487 50.4856 314.421 50.3623 314.283C50.0303 313.956 49.7078 313.615 49.3853 313.283C49.0628 312.951 48.8304 312.685 48.5553 312.381C48.4604 312.272 48.3656 312.173 48.2707 312.059C48.1759 311.945 48.0525 311.831 47.9482 311.708C47.8439 311.585 47.73 311.476 47.621 311.348L47.436 311.129C47.1894 310.859 46.9617 310.579 46.7246 310.299C46.3689 309.882 46.0179 309.465 45.6764 309.052C45.5057 308.82 45.3207 308.606 45.15 308.383C44.9792 308.16 44.8322 307.99 44.6757 307.781C43.256 305.953 41.9281 304.056 40.6918 302.09C40.6298 302.01 40.5758 301.924 40.5305 301.834C40.374 301.587 40.2128 301.359 40.0562 301.089C39.8096 300.7 39.582 300.292 39.3259 299.889C39.1504 299.571 38.9607 299.253 38.7852 298.94C38.7093 298.812 38.6382 298.694 38.5718 298.566C38.5054 298.438 38.4295 298.319 38.3678 298.201C38.1307 297.774 37.8935 297.333 37.6659 296.896C37.6232 296.825 37.59 296.749 37.5521 296.673C37.3624 296.318 37.1726 295.953 36.9972 295.587C36.9165 295.426 36.8359 295.274 36.7553 295.113C36.6035 294.805 36.447 294.487 36.3047 294.164C36.2193 293.989 36.134 293.809 36.0533 293.633C35.7403 292.965 35.4463 292.291 35.157 291.613C35.0763 291.433 35.0004 291.252 34.9246 291.058C34.8487 290.864 34.7728 290.702 34.7017 290.517C34.2558 289.431 33.8432 288.34 33.4543 287.226C33.4259 287.15 33.3927 287.065 33.3642 286.974C33.2456 286.652 33.1365 286.329 33.0322 286.002C32.8852 285.571 32.7476 285.134 32.6101 284.698L32.5769 284.603C32.4915 284.319 32.4109 284.029 32.3208 283.745C32.1311 283.1 31.9461 282.45 31.7754 281.795C31.709 281.568 31.6473 281.321 31.5904 281.093C31.5572 280.961 31.5193 280.823 31.4908 280.686C31.4149 280.377 31.3296 280.064 31.2632 279.737C31.1683 279.348 31.0782 278.954 30.9976 278.566C30.9169 278.177 30.8268 277.759 30.7415 277.347L30.5849 276.526C30.5849 276.436 30.547 276.336 30.528 276.246C30.4521 275.829 30.3763 275.393 30.3099 274.971C30.2529 274.629 30.196 274.292 30.1486 273.956C30.1012 273.619 30.03 273.197 29.9779 272.822C29.9779 272.779 29.9779 272.727 29.9779 272.68C29.9399 272.428 29.9115 272.205 29.883 271.94C29.883 271.788 29.8451 271.632 29.8214 271.466C29.8214 271.428 29.8214 271.39 29.8214 271.357C29.7929 271.167 29.7692 270.968 29.755 270.778C29.755 270.721 29.755 270.674 29.755 270.621C29.755 270.47 29.7312 270.327 29.7123 270.18C29.6838 269.943 29.6696 269.706 29.6459 269.464C29.6222 269.222 29.6079 268.99 29.5842 268.753C29.5558 268.364 29.5226 267.98 29.5083 267.591C29.4941 267.202 29.4514 266.675 29.4277 266.22C29.404 265.765 29.3992 265.404 29.3898 264.996C29.3898 264.854 29.3898 264.721 29.3898 264.589C29.3898 264.086 29.3898 263.588 29.3898 263.08V262.834C29.3898 262.663 29.3898 262.492 29.3898 262.317C29.3898 261.843 29.3898 261.368 29.4135 260.927C29.4372 260.486 29.4135 260.045 29.4609 259.604C29.5083 259.163 29.5036 258.655 29.5368 258.219C29.5605 257.854 29.589 257.493 29.6222 257.133C30.0168 251.957 30.9676 246.838 32.4583 241.866C32.6338 241.268 32.8093 240.671 32.9753 240.069C33.1318 239.547 33.2646 239.035 33.4069 238.508C33.4638 238.295 33.5207 238.091 33.5681 237.877C33.7009 237.37 33.829 236.867 33.9523 236.355C33.9523 236.293 33.9808 236.227 33.9997 236.17C34.474 234.192 34.8914 232.2 35.2613 230.208C35.7735 227.435 36.164 224.645 36.4328 221.837C36.4849 221.363 36.5229 220.889 36.5608 220.448C36.5988 220.007 36.6367 219.561 36.6652 219.124C36.6936 218.84 36.7173 218.551 36.7316 218.271C36.7316 218.095 36.76 217.91 36.7648 217.735C37.3741 207.801 36.6096 197.831 34.493 188.107L34.2653 187.082C34.2132 186.85 34.1657 186.608 34.1088 186.399C34.0045 185.925 33.8859 185.451 33.7768 184.977C33.6677 184.502 33.5302 184.004 33.4069 183.511C33.3595 183.326 33.3025 183.136 33.2599 182.951C33.1697 182.61 33.0796 182.268 32.9753 181.922C32.9184 181.737 32.8662 181.533 32.8093 181.348C32.686 180.874 32.5484 180.4 32.4109 179.954C32.2734 179.508 32.1406 179.072 32.0078 178.631C31.875 178.19 31.7185 177.706 31.5667 177.241C30.1495 172.873 28.4642 168.596 26.5204 164.436C24.3797 159.858 22.5789 155.13 21.1326 150.288C20.2157 147.205 19.4394 144.062 18.8039 140.859C18.7423 140.594 18.6901 140.323 18.6427 140.058C18.5952 139.792 18.5668 139.674 18.5336 139.474C18.5336 139.441 18.5336 139.403 18.5336 139.365C18.5336 139.327 18.5336 139.289 18.5099 139.252C18.4529 138.934 18.4055 138.621 18.3439 138.303L18.3154 138.146C18.249 137.739 18.1826 137.34 18.121 136.937C18.121 136.88 18.121 136.819 18.0925 136.762C18.064 136.705 18.0925 136.652 18.0925 136.6C17.3507 131.846 16.945 127.046 16.8783 122.235C16.8783 122.012 16.8783 121.76 16.8783 121.547V121.49C16.8594 119.033 16.921 116.594 17.0633 114.172C17.1803 111.718 17.3969 109.274 17.7131 106.839C17.7558 106.512 17.8032 106.18 17.8459 105.853C17.8459 105.853 17.8459 105.829 17.8459 105.81C18.102 104.037 18.3913 102.282 18.7375 100.541L18.766 100.399C18.8513 99.953 18.9414 99.5119 19.0363 99.0756C19.0363 99.0519 19.0363 99.0329 19.0363 99.0139C19.1312 98.5681 19.226 98.1223 19.3256 97.6859C19.3256 97.6006 19.3588 97.5105 19.3825 97.4298C19.4679 97.0504 19.558 96.6757 19.6434 96.301C20.2757 93.6736 21.0014 91.0888 21.8203 88.5466C22.0005 87.9775 22.1902 87.4084 22.3847 86.844L22.9301 85.3548C25.5145 78.1663 28.8882 71.2868 32.9895 64.8423C33.1318 64.6194 33.2741 64.3965 33.4211 64.183C34.972 61.7832 36.6272 59.4403 38.3583 57.197C38.7235 56.7227 39.084 56.2769 39.4444 55.8121C41.3415 53.4407 43.3414 51.1562 45.444 48.9588C47.1514 47.1628 48.9252 45.4238 50.7654 43.7417C51.1638 43.3718 51.5717 43.0113 51.9843 42.6556C53.5178 41.3024 55.0987 39.9997 56.7271 38.7476C57.4669 38.169 58.2116 37.5951 58.9704 37.0402C60.6904 35.7755 62.4516 34.5597 64.2538 33.393C64.3866 33.3029 64.5384 33.208 64.6759 33.1227C67.6698 31.2108 70.7616 29.4568 73.9386 27.8677C75.3234 27.1658 76.732 26.5065 78.1501 25.871C78.5865 25.6765 79.0275 25.4821 79.4734 25.2924C82.1704 24.132 84.9291 23.087 87.7495 22.1574C90.0213 21.3986 92.3215 20.7346 94.655 20.1322L95.4897 19.9236L95.8738 19.8334C95.8738 19.8334 95.9023 19.8334 95.9118 19.8334C99.1843 19.0461 102.509 18.4106 105.872 17.9363C106.379 17.8557 106.887 17.7893 107.399 17.7277L107.66 17.6945C111.583 17.2156 115.531 16.9575 119.483 16.9214H119.564H121.997H122.917H123.249C123.657 16.9214 124.06 16.9451 124.468 16.9641H124.729C126.92 17.0494 129.091 17.2075 131.241 17.4383C132.692 17.5901 134.131 17.7703 135.557 17.979C136.249 18.0786 136.932 18.183 137.61 18.3015C137.909 18.3537 138.213 18.4011 138.511 18.458L138.9 18.5244C139.166 18.5624 139.422 18.6146 139.678 18.662H139.73C140.432 18.7758 141.153 18.9228 141.841 19.0746C142.448 19.2027 143.055 19.326 143.652 19.473C144.027 19.5489 144.407 19.639 144.777 19.7386L145.474 19.9046C145.948 20.0137 146.38 20.1275 146.83 20.2556C149.239 20.8721 151.611 21.593 153.944 22.3898C154.983 22.7408 156.022 23.1154 157.046 23.5043C159.555 24.4529 162.016 25.4963 164.426 26.6251C164.725 26.7674 165.038 26.9049 165.336 27.0519C166.489 27.6021 167.632 28.1807 168.761 28.7783C168.851 28.8257 168.941 28.8732 169.026 28.9253C169.752 29.3047 170.473 29.6984 171.184 30.0968L172.109 30.628C172.692 30.96 173.276 31.3062 173.854 31.6477H173.883C176.324 33.1116 178.804 34.5186 181.324 35.8687C181.381 35.8924 181.448 35.9304 181.509 35.9636L182.349 36.3999L183.468 36.9785L183.568 37.0307C184.668 37.5998 185.787 38.15 186.888 38.6859L187.12 38.795C187.139 38.8073 187.16 38.8169 187.182 38.8235L187.57 39.0132C188.608 39.5159 189.656 39.9997 190.715 40.4645C192.029 41.0668 193.366 41.6454 194.699 42.2003C195.244 42.428 195.794 42.6746 196.34 42.8738C196.999 43.1394 197.668 43.4002 198.332 43.6564C198.996 43.9125 199.755 44.2113 200.499 44.4863C203.845 45.7163 207.228 46.8229 210.649 47.8063C212.185 48.2806 213.722 48.6742 215.273 49.0726C218.871 49.9958 222.507 50.7863 226.181 51.444L227.405 51.6479C227.509 51.6716 227.609 51.6906 227.713 51.7048L229.876 52.051H229.952C232.409 52.4178 234.876 52.7229 237.355 52.9664C243.763 53.5994 250.206 53.7911 256.639 53.5403H257.114C257.792 53.5403 258.465 53.5071 259.144 53.4976H259.272C261.51 53.4976 263.73 53.5877 265.911 53.7822C266.5 53.8343 267.083 53.8865 267.666 53.9529C268.473 54.0477 269.274 54.1521 270.066 54.2707C270.142 54.2707 270.208 54.2707 270.28 54.2991C270.621 54.3513 270.953 54.3987 271.285 54.4556L272.03 54.5837C273.841 54.8999 275.626 55.2793 277.384 55.722L278.309 55.9638C279.613 56.3053 280.903 56.6895 282.179 57.1068C283.147 57.423 284.108 57.7629 285.063 58.1265C285.537 58.2925 286.011 58.4775 286.486 58.672C287.207 58.9518 287.937 59.2553 288.648 59.5636C293.827 61.8284 298.727 64.6835 303.251 68.0721C303.846 68.5116 304.431 68.9622 305.006 69.4238C305.433 69.7605 305.855 70.1068 306.272 70.453C306.861 70.9272 307.449 71.449 308.022 71.9564C309.331 73.1137 310.596 74.3167 311.817 75.5657C312.405 76.1633 312.974 76.7656 313.538 77.3869C313.681 77.5387 313.828 77.6999 313.965 77.8612C314.188 78.1031 314.406 78.3355 314.62 78.5963C314.833 78.8572 314.994 79.0232 315.184 79.2413L315.867 80.0571C315.967 80.1756 316.061 80.2895 316.152 80.4128C316.801 81.1906 317.418 81.9826 318.049 82.7842C318.679 83.5857 319.258 84.4299 319.841 85.2694L319.884 85.331C320.207 85.8053 320.52 86.2796 320.833 86.7539L321.307 87.4985C321.516 87.8115 321.715 88.1293 321.909 88.447C323.447 90.9478 324.836 93.5371 326.069 96.2015C326.277 96.6757 326.486 97.1216 326.69 97.5863C327.849 100.247 328.85 102.975 329.687 105.753C330.568 108.688 331.261 111.675 331.76 114.698C331.883 115.414 331.988 116.121 332.083 116.861C332.291 118.379 332.449 119.914 332.557 121.466C332.557 121.694 332.59 121.917 332.599 122.14C332.623 122.524 332.647 122.903 332.661 123.283C332.713 124.298 332.737 125.313 332.742 126.337C332.742 127.12 332.742 127.912 332.709 128.708C332.644 131.199 332.45 133.684 332.13 136.155C332.13 136.273 332.102 136.401 332.078 136.524C332.054 136.648 332.078 136.629 332.078 136.686C332.016 137.16 331.95 137.611 331.869 138.071C331.869 138.123 331.869 138.175 331.845 138.227C331.798 138.578 331.736 138.934 331.675 139.285C331.637 139.517 331.599 139.759 331.551 139.977C331.39 140.84 331.224 141.704 331.03 142.548C330.921 143.055 330.802 143.563 330.679 144.07C330.555 144.578 330.451 144.986 330.337 145.45C330.261 145.706 330.2 145.972 330.129 146.233C329.991 146.759 329.868 147.295 329.74 147.822C329.597 148.429 329.455 149.036 329.322 149.643C329.275 149.866 329.223 150.079 329.18 150.302C329.066 150.824 328.962 151.35 328.862 151.872C328.796 152.19 328.734 152.503 328.673 152.821C328.611 153.138 328.568 153.399 328.516 153.689C328.383 154.424 328.265 155.168 328.151 155.913C328.056 156.52 327.966 157.127 327.885 157.729C327.176 162.934 326.859 168.185 326.937 173.437C326.937 174.154 326.965 174.86 326.994 175.595C326.994 176.117 327.036 176.634 327.06 177.156C327.084 177.677 327.112 178.104 327.145 178.545C327.207 179.494 327.273 180.442 327.368 181.391C327.511 183.027 327.695 184.659 327.909 186.29C327.99 186.855 328.07 187.429 328.156 187.998C328.925 193.001 330.034 197.947 331.475 202.8C331.689 203.525 331.907 204.223 332.135 204.958C332.177 205.1 332.225 205.242 332.268 205.38C332.799 207.007 333.354 208.619 333.951 210.222C334.596 211.963 335.289 213.689 336.014 215.397C336.109 215.601 336.195 215.814 336.289 216.023C336.512 216.559 336.726 217.09 336.944 217.626C337.129 218.1 337.309 218.574 337.489 219.015C338.768 222.337 339.876 225.721 340.809 229.155C341.075 230.151 341.321 231.152 341.563 232.162C341.739 232.888 341.9 233.585 342.038 234.325C342.156 234.904 342.28 235.478 342.393 236.061C342.507 236.644 342.616 237.194 342.716 237.768C343.252 240.761 343.664 243.796 343.93 246.87C343.977 247.344 344.015 247.842 344.053 248.33C344.142 249.526 344.213 250.724 344.267 251.925C344.267 252.348 344.3 252.77 344.305 253.192C344.328 254.155 344.343 255.008 344.343 255.876Z" fill="#E5E6F2"/>
<path d="M51.9689 42.6699V315.853C51.7887 315.687 51.6084 315.516 51.4377 315.341L51.3381 315.251C51.1389 315.052 50.9397 314.857 50.75 314.658V43.7702C51.1484 43.4003 51.5563 43.0399 51.9689 42.6699Z" fill="#D8DAEB"/>
<path d="M95.8361 19.8621V335.925L95.0535 335.844L94.6172 335.801V20.1608L95.4519 19.9522L95.8361 19.8621Z" fill="#D8DAEB"/>
<path d="M139.711 18.7334V334.421L138.492 334.35V18.5105L138.881 18.5769C139.147 18.6148 139.403 18.667 139.659 18.7144L139.711 18.7334Z" fill="#D8DAEB"/>
<path d="M183.574 37.121V344.13H182.355V36.5044L183.475 37.083L183.574 37.121Z" fill="#D8DAEB"/>
<path d="M227.45 51.7572V344.13H226.227V51.5532L227.45 51.7572Z" fill="#D8DAEB"/>
<path d="M271.317 54.5553V344.13H270.098V54.3704C270.174 54.3704 270.24 54.3704 270.311 54.3988C270.653 54.451 270.975 54.4984 271.317 54.5553Z" fill="#D8DAEB"/>
<path d="M315.188 79.3364V328.289L314.837 328.645L313.969 329.527V77.9563C314.192 78.1982 314.41 78.4306 314.623 78.6914C314.837 78.9523 314.998 79.1183 315.188 79.3364Z" fill="#D8DAEB"/>
<path d="M201.053 93.7212C201.053 95.2483 201.053 96.7708 201.001 98.2884C200.622 117.056 197.876 134.737 193.299 150.369C192.666 152.531 191.998 154.656 191.293 156.743C180.109 189.942 160.341 212.57 137.59 214.51C136.533 214.605 135.47 214.647 134.403 214.647C133.336 214.647 132.274 214.605 131.221 214.51C108.455 212.57 88.7019 189.928 77.5089 156.743C76.807 154.656 76.1335 152.531 75.5075 150.369C70.926 134.718 68.1847 117.056 67.8005 98.2884C67.7673 96.7708 67.7578 95.2483 67.7578 93.7212V91.9189C67.9143 73.2277 70.3995 55.5609 74.7202 39.8433C75.3146 37.6806 75.947 35.5575 76.6173 33.4738C77.4995 30.6787 78.448 27.9611 79.463 25.321C82.16 24.1606 84.9187 23.1156 87.7391 22.186C90.2686 21.3418 92.8486 20.5972 95.4793 19.9522L95.9014 19.8478C99.1739 19.0605 102.499 18.425 105.861 17.9507C106.369 17.8701 106.876 17.8037 107.388 17.7421L107.649 17.7089C111.573 17.23 115.52 16.9719 119.473 16.9358H119.554H121.987H122.907H123.239C123.647 16.9358 124.05 16.9595 124.458 16.9785H124.718C126.91 17.0638 129.08 17.2219 131.23 17.4528C132.682 17.6045 134.12 17.7847 135.546 17.9934C136.239 18.093 136.922 18.1974 137.6 18.3159L138.89 18.5388C139.155 18.5768 139.412 18.629 139.668 18.6764C140.393 18.7997 141.114 18.9467 141.83 19.1032C142.437 19.2313 143.044 19.3546 143.642 19.5016C144.017 19.5775 144.396 19.6676 144.766 19.7672L145.463 19.9332C145.938 20.0423 146.369 20.1561 146.82 20.2842C149.229 20.9007 151.6 21.6216 153.934 22.4184C154.973 22.7694 156.011 23.1441 157.036 23.533C159.545 24.4815 162.006 25.5249 164.415 26.6537C164.714 26.796 165.027 26.9335 165.326 27.0806C166.478 27.6307 167.621 28.2093 168.75 28.8069C168.84 28.8544 168.93 28.9018 169.016 28.954C169.742 29.3334 170.462 29.727 171.174 30.1254L172.099 30.6566C172.682 30.9886 173.265 31.3348 173.844 31.6763H173.872C176.313 33.1402 178.794 34.5473 181.314 35.8974C181.371 35.9211 181.437 35.959 181.499 35.9922C182.153 36.3337 182.803 36.6752 183.458 37.0072C184.591 37.5953 185.744 38.1644 186.896 38.7146L187.129 38.8237C187.148 38.8359 187.168 38.8455 187.19 38.8521L187.579 39.0418C188.616 39.5446 189.664 40.0283 190.723 40.4931C192.037 41.0954 193.375 41.6741 194.707 42.229C198.822 58.4533 200.94 75.1194 201.015 91.8573C201.053 92.526 201.053 93.1188 201.053 93.7212Z" fill="#D8DAEB"/>
<path d="M194.685 93.7211C194.685 95.2483 194.669 96.7707 194.638 98.2884C193.405 156.662 168.6 203.663 137.592 206.694C136.533 206.798 135.47 206.85 134.405 206.85C133.339 206.85 132.278 206.798 131.222 206.694C100.238 203.663 75.4142 156.662 74.1811 98.2884C74.1495 96.7707 74.1321 95.2483 74.1289 93.7211C74.1289 93.1188 74.1289 92.5164 74.1289 91.9188C74.3423 65.4827 79.3981 41.2424 87.698 22.2002C90.2274 21.356 92.8075 20.6114 95.4381 19.9664L95.8602 19.862C99.1328 19.0747 102.457 18.4392 105.82 17.9649C106.328 17.8843 106.835 17.8179 107.347 17.7562L107.608 17.723C111.532 17.2441 115.479 16.986 119.432 16.95H119.512H121.945H122.866H123.198C123.605 16.95 124.009 16.9737 124.416 16.9926H124.677C126.868 17.078 129.039 17.2361 131.189 17.4669C132.64 17.6187 134.079 17.7989 135.505 18.0076C136.197 18.1072 136.88 18.2115 137.559 18.3301L138.849 18.553C139.114 18.5909 139.37 18.6431 139.626 18.6905C140.352 18.8139 141.073 18.9609 141.789 19.1174C142.396 19.2454 143.003 19.3688 143.601 19.5158C143.976 19.5917 144.355 19.6818 144.725 19.7814L145.422 19.9474C145.896 20.0565 146.328 20.1703 146.779 20.2983C149.188 20.9149 151.559 21.6358 153.893 22.4326C154.931 22.7836 155.97 23.1582 156.995 23.5471C159.503 24.4957 161.965 25.5391 164.374 26.6679C164.673 26.8102 164.986 26.9477 165.285 27.0947C166.437 27.6449 167.58 28.2235 168.709 28.8211C168.799 28.8685 168.889 28.9159 168.975 28.9681C169.7 29.3475 170.421 29.7412 171.133 30.1396L172.058 30.6708C172.641 31.0028 173.224 31.349 173.803 31.6905H173.831C176.272 33.1544 178.753 34.5614 181.273 35.9115C181.33 35.9352 181.396 35.9732 181.458 36.0064C182.112 36.3479 182.762 36.6893 183.416 37.0213C184.55 37.6094 185.702 38.1786 186.855 38.7287L187.087 38.8378C191.745 54.5933 194.458 72.6442 194.614 91.8714C194.685 92.5164 194.685 93.1188 194.685 93.7211Z" fill="#EBECF5"/>
<path d="M135.539 18.0314C136.231 18.131 136.914 18.2353 137.592 18.3539V214.51C136.535 214.605 135.472 214.647 134.405 214.647C133.338 214.647 132.276 214.605 131.223 214.51V17.4907C132.674 17.6425 134.113 17.8227 135.539 18.0314Z" fill="#D8DAEB"/>
<path d="M201.054 93.7212C201.054 95.2531 201.054 96.7708 201.007 98.2885H67.8061C67.7681 96.7708 67.7539 95.2531 67.7539 93.7212C67.7539 93.1189 67.7539 92.5213 67.7539 91.9189H201.026C201.054 92.5213 201.054 93.1189 201.054 93.7212Z" fill="#D8DAEB"/>
<mask id="mask0_1196_108728" style="mask-type:alpha" maskUnits="userSpaceOnUse" x="16" y="-40" width="329" height="400">
<path d="M344.343 255.876V257.299V258.21C344.343 258.21 344.343 258.76 344.343 259.04V259.362C344.343 259.362 344.343 259.523 344.343 259.594C344.343 259.893 344.319 260.187 344.314 260.472C344.309 260.756 344.314 261.013 344.281 261.278C344.248 261.544 344.257 261.752 344.248 261.975C344.248 262.298 344.21 262.616 344.186 262.924C344.153 263.545 344.096 264.167 344.053 264.778C344.011 265.39 343.949 266.021 343.878 266.637V266.898C343.826 267.406 343.773 267.904 343.717 268.402C343.717 268.454 343.717 268.511 343.693 268.558C343.669 268.606 343.693 268.686 343.693 268.748C343.631 269.222 343.565 269.697 343.503 270.171V270.294C343.501 270.323 343.501 270.351 343.503 270.38C343.437 270.901 343.356 271.423 343.275 271.94C343.252 272.12 343.223 272.286 343.195 272.462C343.152 272.775 343.109 273.073 343.053 273.377C343.053 273.519 343.005 273.671 342.972 273.818C342.939 273.965 342.934 274.055 342.915 274.169C342.82 274.752 342.711 275.326 342.597 275.91C342.483 276.493 342.389 276.948 342.28 277.47C342.132 278.196 341.971 278.893 341.805 279.647C341.729 279.979 341.644 280.32 341.563 280.657C341.54 280.766 341.511 280.871 341.487 280.98C341.478 281.034 341.465 281.088 341.45 281.141C341.307 281.71 341.165 282.265 341.013 282.82C340.899 283.294 340.767 283.74 340.639 284.205C340.601 284.352 340.563 284.499 340.51 284.679C340.368 285.153 340.24 285.628 340.084 286.102C340.07 286.168 340.053 286.233 340.031 286.296C339.861 286.851 339.69 287.416 339.51 287.966C339.487 288.007 339.471 288.052 339.462 288.098L339.149 289.047C339.021 289.441 338.888 289.839 338.741 290.242C338.594 290.645 338.481 290.973 338.352 291.343C338.344 291.375 338.333 291.407 338.319 291.437C338.191 291.788 338.063 292.149 337.926 292.505C337.926 292.552 337.883 292.609 337.859 292.671C337.798 292.855 337.726 293.036 337.66 293.216C337.594 293.396 337.508 293.605 337.437 293.795C337.309 294.112 337.186 294.425 337.053 294.743C336.711 295.592 336.37 296.432 335.995 297.276C335.953 297.38 335.905 297.494 335.858 297.598C335.763 297.807 335.668 298.02 335.578 298.239L335.279 298.903L334.587 300.202C334.587 300.254 334.549 300.297 334.52 300.349C334.492 300.401 334.402 300.591 334.35 300.714C334.336 300.745 334.32 300.775 334.302 300.804C334.131 301.16 333.965 301.511 333.785 301.862C333.605 302.213 333.42 302.611 333.23 302.977C333.041 303.342 332.851 303.721 332.661 304.091C332.543 304.328 332.419 304.565 332.291 304.798C331.675 305.946 331.044 307.089 330.394 308.213C330.219 308.511 330.043 308.81 329.853 309.109C329.664 309.408 329.583 309.583 329.441 309.816L329.389 309.91C328.71 311.025 328.018 312.121 327.297 313.197C326.747 314.046 326.173 314.881 325.59 315.711C325.243 316.209 324.888 316.702 324.532 317.191C324.233 317.594 323.944 317.997 323.636 318.395C323.327 318.794 323.038 319.197 322.73 319.595C322.118 320.383 321.497 321.156 320.875 321.929C320.857 321.946 320.839 321.965 320.823 321.986C320.515 322.36 320.202 322.735 319.875 323.1C318.585 324.627 317.252 326.126 315.862 327.577C315.639 327.814 315.412 328.052 315.179 328.298L314.828 328.654L313.96 329.536C313.192 330.304 312.414 331.068 311.613 331.808C311.252 332.149 310.887 332.496 310.517 332.828C310.147 333.159 309.773 333.501 309.403 333.838C308.663 334.492 307.899 335.147 307.14 335.787C306.378 336.438 305.601 337.071 304.807 337.684L304.129 338.215L303.616 338.609C302.426 339.524 301.217 340.416 299.979 341.27C299.571 341.559 299.158 341.848 298.746 342.128L297.494 342.968L296.227 343.783C295.805 344.058 295.378 344.324 294.951 344.585L293.666 345.367C293.225 345.623 292.798 345.884 292.362 346.136L291.053 346.876C290.612 347.127 290.175 347.378 289.725 347.606C289.274 347.834 288.776 348.109 288.326 348.355L287.036 349.01C286.656 349.2 286.263 349.399 285.874 349.584C285.774 349.641 285.67 349.688 285.57 349.74C285.158 349.939 284.736 350.134 284.313 350.328L282.995 350.95L281.487 351.604C281.088 351.775 280.695 351.95 280.301 352.107C279.177 352.581 278.048 353.017 276.905 353.459L275.881 353.833C275.35 354.028 274.818 354.213 274.282 354.398L273.158 354.782C272.622 354.953 272.077 355.133 271.527 355.303C270.977 355.474 270.578 355.607 270.076 355.749C269.506 355.915 268.928 356.086 268.349 356.224C267.927 356.347 267.51 356.456 267.092 356.57C266.675 356.684 266.277 356.779 265.864 356.883C263.749 357.424 261.604 357.898 259.428 358.306L258.005 358.557C257.616 358.623 257.232 358.69 256.853 358.742C256.25 358.846 255.643 358.932 255.032 359.017C254.605 359.074 254.178 359.14 253.746 359.188L252.765 359.311C252.575 359.311 252.404 359.354 252.214 359.373C252.025 359.392 251.74 359.434 251.47 359.453L250.422 359.558L248.648 359.705L247.348 359.8H247.263C246.974 359.8 246.684 359.842 246.386 359.852C246.087 359.861 245.669 359.885 245.304 359.899C244.83 359.899 244.356 359.942 243.881 359.956C243.407 359.97 242.847 359.956 242.335 359.989C241.429 359.989 240.528 360.013 239.622 359.989C224.037 359.856 208.684 356.191 194.718 349.271C190.924 347.374 187.044 345.671 183.117 344.125L182.363 343.831C181.139 343.356 179.906 342.882 178.668 342.451C166.129 337.946 153.014 335.241 139.716 334.416L138.497 334.345C135.424 334.187 132.344 334.135 129.258 334.189C123.798 334.28 118.349 334.713 112.943 335.483C112.535 335.54 112.132 335.602 111.719 335.645C111.345 335.697 110.98 335.74 110.595 335.773C108.855 335.972 107.105 336.1 105.326 336.157C105.099 336.157 104.876 336.157 104.648 336.185C103.263 336.228 101.864 336.228 100.46 336.185L99.0989 336.133H98.8428C98.4729 336.133 98.1124 336.1 97.7473 336.072C97.2445 336.043 96.7465 336.005 96.2391 335.967L95.8501 335.929L95.0676 335.849L94.6312 335.806L93.7538 335.711L92.4211 335.536L91.1121 335.341C90.9509 335.341 90.7991 335.294 90.6378 335.27C90.3533 335.223 90.0782 335.175 89.7984 335.118C89.7542 335.123 89.7097 335.123 89.6656 335.118L89.253 335.042L88.4989 334.895C88.0483 334.805 87.5977 334.72 87.1472 334.616L86.8294 334.549C86.6966 334.521 86.5591 334.487 86.4168 334.464C85.8287 334.326 85.2406 334.184 84.6477 334.032C84.2209 333.928 83.7988 333.819 83.3814 333.7C82.1957 333.382 81.01 333.027 79.8575 332.643C79.6963 332.595 79.5398 332.538 79.3833 332.486L78.4347 332.154L77.4387 331.798C77.0024 331.637 76.5613 331.471 76.125 331.3C75.6886 331.13 75.2476 330.954 74.8112 330.769L74.2089 330.518C73.9291 330.404 73.6587 330.285 73.3789 330.162C72.9426 329.977 72.5015 329.773 72.0652 329.569C71.9703 329.517 71.866 329.479 71.7664 329.432C71.3538 329.247 70.9364 329.043 70.519 328.844L70.4716 328.81C69.9973 328.578 69.523 328.336 69.0488 328.099C69.0292 328.088 69.0085 328.078 68.9871 328.07L67.6354 327.354C67.4647 327.25 67.2797 327.155 67.1137 327.06C66.8292 326.899 66.5398 326.743 66.2648 326.586C66.2519 326.579 66.2406 326.569 66.2316 326.558C65.928 326.387 65.6292 326.216 65.3399 326.031C65.2403 325.979 65.1407 325.927 65.0459 325.87C64.951 325.813 64.8514 325.747 64.7471 325.69C64.3439 325.434 63.9408 325.215 63.5329 324.936L63.4428 324.874C62.5986 324.343 61.7686 323.783 60.9529 323.209C60.8642 323.156 60.7787 323.097 60.6968 323.034C60.3743 322.806 60.047 322.559 59.7482 322.346L59.5443 322.194C59.1316 321.895 58.7238 321.587 58.3254 321.284L57.078 320.34L56.9974 320.273C56.58 319.946 56.1722 319.609 55.7643 319.273C55.3564 318.936 55.0481 318.661 54.6924 318.357C54.626 318.297 54.5563 318.24 54.4837 318.187L53.3692 317.191C52.8949 316.764 52.4206 316.327 51.9748 315.882C51.7946 315.716 51.6144 315.545 51.4436 315.369L51.344 315.279C51.1448 315.08 50.9456 314.886 50.7559 314.686C50.5662 314.487 50.4856 314.421 50.3623 314.283C50.0303 313.956 49.7078 313.615 49.3853 313.283C49.0628 312.951 48.8304 312.685 48.5553 312.381C48.4604 312.272 48.3656 312.173 48.2707 312.059C48.1759 311.945 48.0525 311.831 47.9482 311.708C47.8439 311.585 47.73 311.476 47.621 311.348L47.436 311.129C47.1894 310.859 46.9617 310.579 46.7246 310.299C46.3689 309.882 46.0179 309.465 45.6764 309.052C45.5057 308.82 45.3207 308.606 45.15 308.383C44.9792 308.16 44.8322 307.99 44.6757 307.781C43.256 305.953 41.928 304.056 40.6918 302.09C40.6298 302.01 40.5758 301.924 40.5305 301.834C40.374 301.587 40.2128 301.359 40.0562 301.089C39.8096 300.7 39.582 300.292 39.3259 299.889C39.1504 299.571 38.9607 299.254 38.7852 298.94C38.7093 298.812 38.6382 298.694 38.5718 298.566C38.5054 298.438 38.4295 298.319 38.3678 298.201C38.1307 297.774 37.8935 297.333 37.6659 296.896C37.6232 296.825 37.59 296.749 37.5521 296.673C37.3624 296.318 37.1726 295.953 36.9972 295.587C36.9165 295.426 36.8359 295.274 36.7553 295.113C36.6035 294.805 36.447 294.487 36.3047 294.165C36.2193 293.989 36.134 293.809 36.0533 293.633C35.7403 292.965 35.4463 292.291 35.157 291.613C35.0763 291.433 35.0004 291.252 34.9246 291.058C34.8487 290.864 34.7728 290.702 34.7017 290.517C34.2558 289.431 33.8432 288.34 33.4543 287.226C33.4259 287.15 33.3927 287.065 33.3642 286.974C33.2456 286.652 33.1365 286.329 33.0322 286.002C32.8852 285.571 32.7476 285.134 32.6101 284.698L32.5769 284.603C32.4915 284.319 32.4109 284.029 32.3208 283.745C32.1311 283.1 31.9461 282.45 31.7754 281.795C31.709 281.568 31.6473 281.321 31.5904 281.093C31.5572 280.961 31.5193 280.823 31.4908 280.686C31.4149 280.377 31.3296 280.064 31.2632 279.737C31.1683 279.348 31.0782 278.954 30.9976 278.566C30.9169 278.177 30.8268 277.759 30.7415 277.347L30.5849 276.526C30.5849 276.436 30.547 276.336 30.528 276.246C30.4521 275.829 30.3763 275.393 30.3099 274.971C30.2529 274.629 30.196 274.292 30.1486 273.956C30.1012 273.619 30.03 273.197 29.9779 272.822C29.9779 272.779 29.9779 272.727 29.9779 272.68C29.9399 272.428 29.9115 272.205 29.883 271.94C29.883 271.788 29.8451 271.632 29.8214 271.466C29.8214 271.428 29.8214 271.39 29.8214 271.357C29.7929 271.167 29.7692 270.968 29.755 270.778C29.755 270.721 29.755 270.674 29.755 270.621C29.755 270.47 29.7312 270.327 29.7123 270.18C29.6838 269.943 29.6696 269.706 29.6459 269.464C29.6222 269.222 29.6079 268.99 29.5842 268.753C29.5558 268.364 29.5226 267.98 29.5083 267.591C29.4941 267.202 29.4514 266.675 29.4277 266.22C29.404 265.765 29.3992 265.404 29.3898 264.996C29.3898 264.854 29.3898 264.721 29.3898 264.589C29.3898 264.086 29.3898 263.588 29.3898 263.08V262.834C29.3898 262.663 29.3898 262.492 29.3898 262.317C29.3898 261.843 29.3898 261.368 29.4135 260.927C29.4372 260.486 29.4135 260.045 29.4609 259.604C29.5083 259.163 29.5036 258.655 29.5368 258.219C29.5605 257.854 29.589 257.493 29.6222 257.133C30.0168 251.957 30.9676 246.838 32.4583 241.866C32.6338 241.268 32.8093 240.671 32.9753 240.069C33.1318 239.547 33.2646 239.035 33.4069 238.508C33.4638 238.295 33.5207 238.091 33.5681 237.877C33.7009 237.37 33.829 236.867 33.9523 236.355C33.9523 236.293 33.9808 236.227 33.9997 236.17C34.474 234.192 34.8914 232.2 35.2613 230.208C35.7735 227.435 36.164 224.645 36.4328 221.837C36.4849 221.363 36.5229 220.889 36.5608 220.448C36.5988 220.007 36.6367 219.561 36.6652 219.124C36.6936 218.84 36.7173 218.551 36.7316 218.271C36.7316 218.095 36.76 217.91 36.7648 217.735C37.3741 207.801 36.6096 197.831 34.493 188.107L34.2653 187.082C34.2132 186.85 34.1657 186.608 34.1088 186.399C34.0045 185.925 33.8859 185.451 33.7768 184.977C33.6677 184.502 33.5302 184.004 33.4069 183.511C33.3595 183.326 33.3025 183.136 33.2599 182.951C33.1697 182.61 33.0796 182.268 32.9753 181.922C32.9184 181.737 32.8662 181.533 32.8093 181.348C32.686 180.874 32.5484 180.4 32.4109 179.954C32.2734 179.508 32.1406 179.072 32.0078 178.631C31.875 178.19 31.7185 177.706 31.5667 177.241C30.1495 172.873 28.4642 168.596 26.5204 164.436C24.3797 159.858 22.5789 98.8797 21.1326 94.038C20.2157 90.9552 19.4394 87.8123 18.8039 84.6093C18.7423 84.3438 18.6901 84.0734 18.6427 83.8078C18.5952 83.5422 18.5668 83.4236 18.5336 83.2244C18.5336 83.1912 18.5336 83.1533 18.5336 83.1154C18.5336 83.0774 18.5336 83.0395 18.5099 83.0015C18.4529 82.6838 18.4055 82.3708 18.3439 82.053L18.3154 81.8965C18.249 81.4886 18.1826 81.0902 18.121 80.6871C18.121 80.6302 18.121 80.5685 18.0925 80.5116C18.064 80.4547 18.0925 80.4025 18.0925 80.3503C17.3507 75.5962 16.945 70.7957 16.8783 65.9845C16.8783 65.7616 16.8783 65.5102 16.8783 65.2968V65.2399C16.8594 62.7831 16.921 60.3438 17.0633 57.9218C17.1803 55.4682 17.3969 53.0241 17.7131 50.5895C17.7558 50.2622 17.8032 49.9302 17.8459 49.603C17.8459 49.603 17.8459 49.5793 17.8459 49.5603C18.102 47.7865 18.3913 46.0317 18.7375 44.2911L18.766 44.1488C18.8513 43.703 18.9414 43.2619 19.0363 42.8256C19.0363 42.8019 19.0363 42.7829 19.0363 42.7639C19.1312 42.3181 19.226 41.8723 19.3256 41.4359C19.3256 41.3506 19.3588 41.2605 19.3825 41.1798C19.4679 40.8004 19.558 40.4257 19.6434 40.051C20.2757 37.4236 21.0014 34.8388 21.8203 32.2966C22.0005 31.7275 22.1902 31.1584 22.3847 30.594L22.9301 29.1048C25.5145 21.9163 28.8882 15.0368 32.9895 8.59229C33.1318 8.36938 33.2741 8.14647 33.4211 7.93305C34.972 5.53321 36.6272 3.19028 38.3583 0.946953C38.7235 0.472675 39.084 0.0268555 39.4444 -0.437935C41.3415 -2.80932 43.3414 -5.09375 45.444 -7.29124C47.1514 -9.08716 48.9252 -10.8262 50.7654 -12.5083C51.1638 -12.8782 51.5717 -13.2387 51.9843 -13.5944C53.5178 -14.9476 55.0987 -16.2503 56.7271 -17.5024C57.4669 -18.081 58.2116 -18.6549 58.9704 -19.2098C60.6904 -20.4745 62.4516 -21.6903 64.2538 -22.857C64.3866 -22.9471 64.5384 -23.042 64.6759 -23.1273C67.6698 -25.0392 70.7616 -26.7932 73.9386 -28.3823C75.3234 -29.0842 76.732 -29.7435 78.1501 -30.379C78.5865 -30.5735 79.0275 -30.7679 79.4734 -30.9576C82.1704 -32.118 84.9291 -33.163 87.7495 -34.0926C90.0213 -34.8514 92.3215 -35.5154 94.655 -36.1178L95.4897 -36.3264L95.8738 -36.4166C95.8738 -36.4166 95.9023 -36.4166 95.9118 -36.4166C99.1843 -37.2039 102.509 -37.8394 105.872 -38.3137C106.379 -38.3943 106.887 -38.4607 107.399 -38.5223L107.66 -38.5555C111.583 -39.0344 115.531 -39.2925 119.483 -39.3286H119.564H121.997H122.917H123.249C123.657 -39.3286 124.06 -39.3049 124.468 -39.2859H124.729C126.92 -39.2006 129.091 -39.0425 131.241 -38.8117C132.692 -38.6599 134.131 -38.4797 135.557 -38.271C136.249 -38.1714 136.932 -38.067 137.61 -37.9485C137.909 -37.8963 138.213 -37.8489 138.511 -37.792L138.9 -37.7256C139.166 -37.6876 139.422 -37.6354 139.678 -37.588H139.73C140.432 -37.4742 141.153 -37.3272 141.841 -37.1754C142.448 -37.0473 143.055 -36.924 143.652 -36.777C144.027 -36.7011 144.407 -36.611 144.777 -36.5114L145.474 -36.3454C145.948 -36.2363 146.38 -36.1225 146.83 -35.9944C149.239 -35.3779 151.611 -34.657 153.944 -33.8602C154.983 -33.5092 156.022 -33.1346 157.046 -32.7457C159.555 -31.7971 162.016 -30.7537 164.426 -29.6249C164.725 -29.4826 165.038 -29.3451 165.336 -29.1981C166.489 -28.6479 167.632 -28.0693 168.761 -27.4717C168.851 -27.4243 168.941 -27.3768 169.026 -27.3247C169.752 -26.9453 170.473 -26.5516 171.184 -26.1532L172.109 -25.622C172.692 -25.29 173.276 -24.9438 173.854 -24.6023H173.883C176.324 -23.1384 178.804 -21.7314 181.324 -20.3813C181.381 -20.3576 181.448 -20.3196 181.509 -20.2864L182.349 -19.8501L183.468 -19.2715L183.568 -19.2193C184.668 -18.6502 185.787 -18.1 186.888 -17.5641L187.12 -17.455C187.139 -17.4427 187.16 -17.4331 187.182 -17.4265L187.57 -17.2368C188.608 -16.7341 189.656 -16.2503 190.715 -15.7855C192.029 -15.1832 193.366 -14.6046 194.699 -14.0497C195.244 -13.822 195.794 -13.5754 196.34 -13.3762C196.999 -13.1106 197.668 -12.8498 198.332 -12.5936C198.996 -12.3375 199.755 -12.0387 200.499 -11.7637C203.845 -10.5337 207.228 -9.42706 210.649 -8.44373C212.185 -7.96945 213.722 -7.5758 215.273 -7.17741C218.871 -6.25415 222.507 -5.46369 226.181 -4.80602L227.405 -4.60209C227.509 -4.57837 227.609 -4.5594 227.713 -4.54517L229.876 -4.19895H229.952C232.409 -3.83218 234.876 -3.52705 237.355 -3.28359C243.763 -2.65065 250.206 -2.45891 256.639 -2.70972H257.114C257.792 -2.70972 258.465 -2.74292 259.144 -2.7524H259.272C261.51 -2.7524 263.73 -2.6623 265.911 -2.46784C266.5 -2.41567 267.083 -2.3635 267.666 -2.2971C268.473 -2.20225 269.274 -2.0979 270.066 -1.97933C270.142 -1.97933 270.208 -1.97934 270.28 -1.95088C270.621 -1.89871 270.953 -1.85128 271.285 -1.79436L272.03 -1.66632C273.841 -1.35013 275.626 -0.970707 277.384 -0.528049L278.309 -0.286171C279.613 0.0553093 280.903 0.439476 282.179 0.856842C283.147 1.17302 284.108 1.51292 285.063 1.87653C285.537 2.04253 286.011 2.2275 286.486 2.42195C287.207 2.70177 287.937 3.00531 288.648 3.31359C293.827 5.57839 298.727 8.43346 303.251 11.8221C303.846 12.2616 304.431 12.7122 305.006 13.1738C305.433 13.5105 305.855 13.8568 306.272 14.203C306.861 14.6772 307.449 15.199 308.022 15.7064C309.332 16.8637 310.596 18.0667 311.817 19.3157C312.405 19.9133 312.974 20.5156 313.538 21.1369C313.681 21.2887 313.828 21.4499 313.965 21.6112C314.188 21.8531 314.406 22.0855 314.62 22.3463C314.833 22.6072 314.994 22.7732 315.184 22.9913L315.867 23.8071C315.967 23.9256 316.061 24.0395 316.152 24.1628C316.801 24.9406 317.418 25.7326 318.049 26.5342C318.68 27.3357 319.258 28.1799 319.841 29.0194L319.884 29.081C320.207 29.5553 320.52 30.0296 320.833 30.5039L321.307 31.2485C321.516 31.5615 321.715 31.8793 321.909 32.197C323.447 34.6978 324.836 37.2871 326.069 39.9515C326.277 40.4257 326.486 40.8716 326.69 41.3363C327.849 43.9975 328.85 46.7245 329.687 49.5034C330.568 52.4378 331.261 55.4255 331.76 58.4482C331.883 59.1644 331.988 59.8711 332.083 60.6109C332.291 62.1286 332.449 63.6637 332.557 65.2162C332.557 65.4438 332.59 65.6667 332.599 65.8896C332.623 66.2738 332.647 66.6532 332.661 67.0326C332.713 68.0476 332.737 69.0626 332.742 70.087C332.742 70.8696 332.742 71.6616 332.709 72.4584C332.644 74.9487 332.45 77.434 332.13 79.9045C332.13 80.0231 332.102 80.1511 332.078 80.2745C332.054 80.3978 332.078 80.3788 332.078 80.4357C332.016 80.91 331.95 81.3605 331.869 81.8206C331.869 81.8728 331.869 81.9249 331.845 81.9771C331.798 82.3281 331.736 82.6838 331.675 83.0348C331.637 83.2671 331.599 83.509 331.551 83.7272C331.39 84.5904 331.224 85.4536 331.03 86.2978C330.921 86.8053 330.802 87.3127 330.679 87.8202C330.555 88.3277 330.451 88.7355 330.337 89.2003C330.261 89.4565 330.2 89.722 330.129 89.9829C329.991 90.5093 329.868 91.0453 329.74 91.5717C329.597 92.1788 329.455 92.7859 329.322 93.3929C329.275 93.6158 329.223 93.8293 329.18 94.0522C329.066 94.5739 328.962 95.1003 328.862 95.622C328.796 95.9398 328.734 152.503 328.673 152.821C328.611 153.138 328.568 153.399 328.516 153.689C328.383 154.424 328.265 155.168 328.151 155.913C328.056 156.52 327.966 157.127 327.885 157.729C327.176 162.934 326.859 168.185 326.937 173.437C326.937 174.154 326.965 174.86 326.994 175.595C326.994 176.117 327.036 176.634 327.06 177.156C327.084 177.677 327.112 178.104 327.145 178.545C327.207 179.494 327.273 180.442 327.368 181.391C327.511 183.027 327.695 184.659 327.909 186.29C327.99 186.855 328.07 187.429 328.156 187.998C328.925 193.001 330.034 197.947 331.475 202.8C331.689 203.526 331.907 204.223 332.135 204.958C332.177 205.1 332.225 205.242 332.268 205.38C332.799 207.007 333.354 208.619 333.951 210.222C334.596 211.963 335.289 213.689 336.014 215.397C336.109 215.601 336.195 215.814 336.289 216.023C336.512 216.559 336.726 217.09 336.944 217.626C337.129 218.1 337.309 218.574 337.489 219.015C338.768 222.337 339.876 225.721 340.809 229.155C341.075 230.151 341.321 231.152 341.563 232.162C341.739 232.888 341.9 233.585 342.038 234.325C342.156 234.904 342.28 235.478 342.393 236.061C342.507 236.644 342.616 237.194 342.716 237.768C343.252 240.761 343.664 243.796 343.93 246.87C343.977 247.344 344.015 247.842 344.053 248.33C344.142 249.526 344.213 250.724 344.267 251.925C344.267 252.348 344.3 252.77 344.305 253.192C344.328 254.155 344.343 255.008 344.343 255.876Z" fill="#E5E6F2"/>
</mask>
<g mask="url(#mask0_1196_108728)">
<path d="M206.038 335.387H58.3088C49.0275 335.387 41.4883 327.847 41.4883 318.566V35.9306C41.4883 26.6493 49.0275 19.1101 58.3088 19.1101H206.066C215.348 19.1101 222.887 26.6493 222.887 35.9306V318.566C222.858 327.847 215.319 335.387 206.038 335.387Z" fill="#C7CAE1"/>
<path d="M206.038 337.5H58.3087C47.8852 337.5 39.375 329.018 39.375 318.566V35.9308C39.375 25.5073 47.8566 16.9971 58.3087 16.9971H206.066C216.49 16.9971 225 25.4787 225 35.9308V318.566C224.971 329.018 216.49 337.5 206.038 337.5ZM58.3087 21.2236C50.1984 21.2236 43.6015 27.8204 43.6015 35.9308V318.566C43.6015 326.677 50.1984 333.274 58.3087 333.274H206.066C214.177 333.274 220.773 326.677 220.773 318.566V35.9308C220.773 27.8204 214.177 21.2236 206.066 21.2236H58.3087Z" fill="#888FBC"/>
<g opacity="0.9">
<path d="M191.813 115.378H72.5273V234.664H191.813V115.378Z" fill="white"/>
</g>
<path d="M89.2367 222.155H84.4961V226.896H89.2367V222.155Z" fill="#464A68"/>
<path d="M93.9711 222.156H89.2305V226.896H93.9711V222.156Z" fill="#464A68"/>
<path d="M98.7132 222.155H93.9727V226.896H98.7132V222.155Z" fill="#464A68"/>
<path d="M103.455 222.156H98.7148V226.896H103.455V222.156Z" fill="#464A68"/>
<path d="M108.198 222.155H103.457V226.896H108.198V222.155Z" fill="#464A68"/>
<path d="M117.678 222.156H112.938V226.896H117.678V222.156Z" fill="#464A68"/>
<path d="M122.42 222.155H117.68V226.896H122.42V222.155Z" fill="#464A68"/>
<path d="M136.639 222.156H131.898V226.896H136.639V222.156Z" fill="#464A68"/>
<path d="M146.405 222.156H141.379V226.896H146.405V222.156Z" fill="#464A68"/>
<path d="M151.147 222.155H146.406V226.896H151.147V222.155Z" fill="#464A68"/>
<path d="M160.631 222.155H155.891V226.896H160.631V222.155Z" fill="#464A68"/>
<path d="M165.369 222.155H160.629V226.896H165.369V222.155Z" fill="#464A68"/>
<path d="M170.108 222.155H165.367V226.896H170.108V222.155Z" fill="#464A68"/>
<path d="M174.85 222.156H170.109V226.896H174.85V222.156Z" fill="#464A68"/>
<path d="M179.592 222.155H174.852V226.896H179.592V222.155Z" fill="#464A68"/>
<path d="M184.616 222.155H179.59V226.896H184.616V222.155Z" fill="#464A68"/>
<path d="M84.4945 222.156H79.7539V226.896H84.4945V222.156Z" fill="#464A68"/>
<path d="M108.198 217.415H103.457V222.155H108.198V217.415Z" fill="#464A68"/>
<path d="M122.42 217.415H117.68V222.155H122.42V217.415Z" fill="#464A68"/>
<path d="M131.901 217.415H127.16V222.155H131.901V217.415Z" fill="#464A68"/>
<path d="M136.639 217.415H131.898V222.155H136.639V217.415Z" fill="#464A68"/>
<path d="M141.381 217.415H136.641V222.155H141.381V217.415Z" fill="#464A68"/>
<path d="M146.405 217.415H141.379V222.155H146.405V217.415Z" fill="#464A68"/>
<path d="M160.631 217.415H155.891V222.155H160.631V217.415Z" fill="#464A68"/>
<path d="M184.616 217.415H179.59V222.155H184.616V217.415Z" fill="#464A68"/>
<path d="M84.4945 217.415H79.7539V222.155H84.4945V217.415Z" fill="#464A68"/>
<path d="M93.9711 212.674H89.2305V217.415H93.9711V212.674Z" fill="#464A68"/>
<path d="M98.7132 212.674H93.9727V217.415H98.7132V212.674Z" fill="#464A68"/>
<path d="M108.198 212.674H103.457V217.415H108.198V212.674Z" fill="#464A68"/>
<path d="M117.678 212.674H112.938V217.415H117.678V212.674Z" fill="#464A68"/>
<path d="M122.42 212.674H117.68V217.415H122.42V212.674Z" fill="#464A68"/>
<path d="M127.159 212.674H122.418V217.415H127.159V212.674Z" fill="#464A68"/>
<path d="M136.639 212.674H131.898V217.415H136.639V212.674Z" fill="#464A68"/>
<path d="M141.381 212.674H136.641V217.415H141.381V212.674Z" fill="#464A68"/>
<path d="M146.405 212.674H141.379V217.415H146.405V212.674Z" fill="#464A68"/>
<path d="M151.147 212.674H146.406V217.415H151.147V212.674Z" fill="#464A68"/>
<path d="M160.631 212.674H155.891V217.415H160.631V212.674Z" fill="#464A68"/>
<path d="M170.108 212.674H165.367V217.415H170.108V212.674Z" fill="#464A68"/>
<path d="M174.85 212.674H170.109V217.415H174.85V212.674Z" fill="#464A68"/>
<path d="M184.616 212.674H179.59V217.415H184.616V212.674Z" fill="#464A68"/>
<path d="M84.4945 212.674H79.7539V217.415H84.4945V212.674Z" fill="#464A68"/>
<path d="M93.9711 207.905H89.2305V212.645H93.9711V207.905Z" fill="#464A68"/>
<path d="M98.7132 207.905H93.9727V212.646H98.7132V207.905Z" fill="#464A68"/>
<path d="M108.198 207.905H103.457V212.646H108.198V207.905Z" fill="#464A68"/>
<path d="M117.678 207.905H112.938V212.646H117.678V207.905Z" fill="#464A68"/>
<path d="M127.159 207.905H122.418V212.646H127.159V207.905Z" fill="#464A68"/>
<path d="M136.639 207.905H131.898V212.646H136.639V207.905Z" fill="#464A68"/>
<path d="M160.631 207.905H155.891V212.646H160.631V207.905Z" fill="#464A68"/>
<path d="M170.108 207.905H165.367V212.646H170.108V207.905Z" fill="#464A68"/>
<path d="M174.85 207.905H170.109V212.646H174.85V207.905Z" fill="#464A68"/>
<path d="M184.616 207.905H179.59V212.646H184.616V207.905Z" fill="#464A68"/>
<path d="M84.4945 207.905H79.7539V212.645H84.4945V207.905Z" fill="#464A68"/>
<path d="M108.198 203.193H103.457V207.933H108.198V203.193Z" fill="#464A68"/>
<path d="M117.678 203.193H112.938V207.934H117.678V203.193Z" fill="#464A68"/>
<path d="M122.42 203.193H117.68V207.933H122.42V203.193Z" fill="#464A68"/>
<path d="M127.159 203.193H122.418V207.933H127.159V203.193Z" fill="#464A68"/>
<path d="M136.639 203.193H131.898V207.934H136.639V203.193Z" fill="#464A68"/>
<path d="M141.381 203.193H136.641V207.933H141.381V203.193Z" fill="#464A68"/>
<path d="M151.147 203.193H146.406V207.933H151.147V203.193Z" fill="#464A68"/>
<path d="M160.631 203.193H155.891V207.933H160.631V203.193Z" fill="#464A68"/>
<path d="M184.616 203.193H179.59V207.933H184.616V203.193Z" fill="#464A68"/>
<path d="M84.4945 203.193H79.7539V207.933H84.4945V203.193Z" fill="#464A68"/>
<path d="M89.2367 198.424H84.4961V203.164H89.2367V198.424Z" fill="#464A68"/>
<path d="M93.9711 198.424H89.2305V203.165H93.9711V198.424Z" fill="#464A68"/>
<path d="M98.7132 198.424H93.9727V203.164H98.7132V198.424Z" fill="#464A68"/>
<path d="M103.455 198.424H98.7148V203.165H103.455V198.424Z" fill="#464A68"/>
<path d="M108.198 198.424H103.457V203.164H108.198V198.424Z" fill="#464A68"/>
<path d="M117.678 198.424H112.938V203.165H117.678V198.424Z" fill="#464A68"/>
<path d="M127.159 198.424H122.418V203.164H127.159V198.424Z" fill="#464A68"/>
<path d="M131.901 198.424H127.16V203.165H131.901V198.424Z" fill="#464A68"/>
<path d="M141.381 198.424H136.641V203.164H141.381V198.424Z" fill="#464A68"/>
<path d="M160.631 198.424H155.891V203.164H160.631V198.424Z" fill="#464A68"/>
<path d="M165.369 198.424H160.629V203.164H165.369V198.424Z" fill="#464A68"/>
<path d="M170.108 198.424H165.367V203.164H170.108V198.424Z" fill="#464A68"/>
<path d="M174.85 198.424H170.109V203.165H174.85V198.424Z" fill="#464A68"/>
<path d="M179.592 198.424H174.852V203.164H179.592V198.424Z" fill="#464A68"/>
<path d="M184.616 198.424H179.59V203.164H184.616V198.424Z" fill="#464A68"/>
<path d="M84.4945 198.424H79.7539V203.165H84.4945V198.424Z" fill="#464A68"/>
<path d="M131.901 193.683H127.16V198.424H131.901V193.683Z" fill="#464A68"/>
<path d="M136.639 193.683H131.898V198.424H136.639V193.683Z" fill="#464A68"/>
<path d="M141.381 193.683H136.641V198.424H141.381V193.683Z" fill="#464A68"/>
<path d="M151.147 193.683H146.406V198.424H151.147V193.683Z" fill="#464A68"/>
<path d="M89.2367 188.943H84.4961V193.683H89.2367V188.943Z" fill="#464A68"/>
<path d="M93.9711 188.943H89.2305V193.683H93.9711V188.943Z" fill="#464A68"/>
<path d="M98.7132 188.943H93.9727V193.683H98.7132V188.943Z" fill="#464A68"/>
<path d="M103.455 188.943H98.7148V193.683H103.455V188.943Z" fill="#464A68"/>
<path d="M117.678 188.943H112.938V193.683H117.678V188.943Z" fill="#464A68"/>
<path d="M122.42 188.943H117.68V193.683H122.42V188.943Z" fill="#464A68"/>
<path d="M127.159 188.943H122.418V193.683H127.159V188.943Z" fill="#464A68"/>
<path d="M136.639 188.943H131.898V193.683H136.639V188.943Z" fill="#464A68"/>
<path d="M141.381 188.943H136.641V193.683H141.381V188.943Z" fill="#464A68"/>
<path d="M146.405 188.943H141.379V193.683H146.405V188.943Z" fill="#464A68"/>
<path d="M151.147 188.943H146.406V193.683H151.147V188.943Z" fill="#464A68"/>
<path d="M155.889 188.943H151.148V193.683H155.889V188.943Z" fill="#464A68"/>
<path d="M160.631 188.943H155.891V193.683H160.631V188.943Z" fill="#464A68"/>
<path d="M165.369 188.943H160.629V193.683H165.369V188.943Z" fill="#464A68"/>
<path d="M170.108 188.943H165.367V193.683H170.108V188.943Z" fill="#464A68"/>
<path d="M179.592 188.943H174.852V193.683H179.592V188.943Z" fill="#464A68"/>
<path d="M184.616 188.943H179.59V193.683H184.616V188.943Z" fill="#464A68"/>
<path d="M93.9711 184.202H89.2305V188.943H93.9711V184.202Z" fill="#464A68"/>
<path d="M98.7132 184.202H93.9727V188.943H98.7132V184.202Z" fill="#464A68"/>
<path d="M112.936 184.202H108.195V188.943H112.936V184.202Z" fill="#464A68"/>
<path d="M117.678 184.202H112.938V188.943H117.678V184.202Z" fill="#464A68"/>
<path d="M127.159 184.202H122.418V188.943H127.159V184.202Z" fill="#464A68"/>
<path d="M141.381 184.202H136.641V188.943H141.381V184.202Z" fill="#464A68"/>
<path d="M151.147 184.202H146.406V188.943H151.147V184.202Z" fill="#464A68"/>
<path d="M155.889 184.202H151.148V188.943H155.889V184.202Z" fill="#464A68"/>
<path d="M165.369 184.202H160.629V188.943H165.369V184.202Z" fill="#464A68"/>
<path d="M170.108 184.202H165.367V188.943H170.108V184.202Z" fill="#464A68"/>
<path d="M89.2367 179.461H84.4961V184.202H89.2367V179.461Z" fill="#464A68"/>
<path d="M98.7132 179.461H93.9727V184.202H98.7132V179.461Z" fill="#464A68"/>
<path d="M103.455 179.462H98.7148V184.202H103.455V179.462Z" fill="#464A68"/>
<path d="M108.198 179.461H103.457V184.202H108.198V179.461Z" fill="#464A68"/>
<path d="M112.936 179.461H108.195V184.202H112.936V179.461Z" fill="#464A68"/>
<path d="M122.42 179.461H117.68V184.202H122.42V179.461Z" fill="#464A68"/>
<path d="M127.159 179.461H122.418V184.202H127.159V179.461Z" fill="#464A68"/>
<path d="M131.901 179.462H127.16V184.202H131.901V179.462Z" fill="#464A68"/>
<path d="M136.639 179.462H131.898V184.202H136.639V179.462Z" fill="#464A68"/>
<path d="M141.381 179.461H136.641V184.202H141.381V179.461Z" fill="#464A68"/>
<path d="M146.405 179.462H141.379V184.202H146.405V179.462Z" fill="#464A68"/>
<path d="M170.108 179.461H165.367V184.202H170.108V179.461Z" fill="#464A68"/>
<path d="M174.85 179.462H170.109V184.202H174.85V179.462Z" fill="#464A68"/>
<path d="M184.616 179.461H179.59V184.202H184.616V179.461Z" fill="#464A68"/>
<path d="M84.4945 179.462H79.7539V184.202H84.4945V179.462Z" fill="#464A68"/>
<path d="M89.2367 174.721H84.4961V179.462H89.2367V174.721Z" fill="#464A68"/>
<path d="M93.9711 174.721H89.2305V179.462H93.9711V174.721Z" fill="#464A68"/>
<path d="M98.7132 174.721H93.9727V179.462H98.7132V174.721Z" fill="#464A68"/>
<path d="M117.678 174.721H112.938V179.462H117.678V174.721Z" fill="#464A68"/>
<path d="M122.42 174.721H117.68V179.462H122.42V174.721Z" fill="#464A68"/>
<path d="M141.381 174.721H136.641V179.462H141.381V174.721Z" fill="#464A68"/>
<path d="M155.889 174.721H151.148V179.462H155.889V174.721Z" fill="#464A68"/>
<path d="M160.631 174.721H155.891V179.462H160.631V174.721Z" fill="#464A68"/>
<path d="M170.108 174.721H165.367V179.462H170.108V174.721Z" fill="#464A68"/>
<path d="M174.85 174.721H170.109V179.462H174.85V174.721Z" fill="#464A68"/>
<path d="M179.592 174.721H174.852V179.462H179.592V174.721Z" fill="#464A68"/>
<path d="M184.616 174.721H179.59V179.462H184.616V174.721Z" fill="#464A68"/>
<path d="M84.4945 174.721H79.7539V179.462H84.4945V174.721Z" fill="#464A68"/>
<path d="M98.7132 169.981H93.9727V174.721H98.7132V169.981Z" fill="#464A68"/>
<path d="M103.455 169.981H98.7148V174.721H103.455V169.981Z" fill="#464A68"/>
<path d="M108.198 169.981H103.457V174.721H108.198V169.981Z" fill="#464A68"/>
<path d="M112.936 169.981H108.195V174.721H112.936V169.981Z" fill="#464A68"/>
<path d="M117.678 169.981H112.938V174.721H117.678V169.981Z" fill="#464A68"/>
<path d="M122.42 169.981H117.68V174.721H122.42V169.981Z" fill="#464A68"/>
<path d="M136.639 169.981H131.898V174.721H136.639V169.981Z" fill="#464A68"/>
<path d="M151.147 169.981H146.406V174.721H151.147V169.981Z" fill="#464A68"/>
<path d="M155.889 169.981H151.148V174.721H155.889V169.981Z" fill="#464A68"/>
<path d="M174.85 169.981H170.109V174.721H174.85V169.981Z" fill="#464A68"/>
<path d="M84.4945 169.981H79.7539V174.721H84.4945V169.981Z" fill="#464A68"/>
<path d="M89.2367 165.24H84.4961V169.981H89.2367V165.24Z" fill="#464A68"/>
<path d="M93.9711 165.24H89.2305V169.98H93.9711V165.24Z" fill="#464A68"/>
<path d="M98.7132 165.24H93.9727V169.981H98.7132V165.24Z" fill="#464A68"/>
<path d="M103.455 165.24H98.7148V169.98H103.455V165.24Z" fill="#464A68"/>
<path d="M112.936 165.24H108.195V169.981H112.936V165.24Z" fill="#464A68"/>
<path d="M122.42 165.24H117.68V169.981H122.42V165.24Z" fill="#464A68"/>
<path d="M127.159 165.24H122.418V169.981H127.159V165.24Z" fill="#464A68"/>
<path d="M136.639 165.24H131.898V169.981H136.639V165.24Z" fill="#464A68"/>
<path d="M141.381 165.24H136.641V169.981H141.381V165.24Z" fill="#464A68"/>
<path d="M146.405 165.24H141.379V169.981H146.405V165.24Z" fill="#464A68"/>
<path d="M151.147 165.24H146.406V169.981H151.147V165.24Z" fill="#464A68"/>
<path d="M160.631 165.24H155.891V169.981H160.631V165.24Z" fill="#464A68"/>
<path d="M165.369 165.24H160.629V169.981H165.369V165.24Z" fill="#464A68"/>
<path d="M170.108 165.24H165.367V169.981H170.108V165.24Z" fill="#464A68"/>
<path d="M174.85 165.24H170.109V169.981H174.85V165.24Z" fill="#464A68"/>
<path d="M184.616 165.24H179.59V169.981H184.616V165.24Z" fill="#464A68"/>
<path d="M89.2367 160.5H84.4961V165.24H89.2367V160.5Z" fill="#464A68"/>
<path d="M98.7132 160.5H93.9727V165.24H98.7132V160.5Z" fill="#464A68"/>
<path d="M108.198 160.5H103.457V165.24H108.198V160.5Z" fill="#464A68"/>
<path d="M112.936 160.499H108.195V165.24H112.936V160.499Z" fill="#464A68"/>
<path d="M127.159 160.5H122.418V165.24H127.159V160.5Z" fill="#464A68"/>
<path d="M131.901 160.5H127.16V165.24H131.901V160.5Z" fill="#464A68"/>
<path d="M136.639 160.499H131.898V165.24H136.639V160.499Z" fill="#464A68"/>
<path d="M146.405 160.499H141.379V165.24H146.405V160.499Z" fill="#464A68"/>
<path d="M151.147 160.499H146.406V165.24H151.147V160.499Z" fill="#464A68"/>
<path d="M155.889 160.499H151.148V165.24H155.889V160.499Z" fill="#464A68"/>
<path d="M165.369 160.5H160.629V165.24H165.369V160.5Z" fill="#464A68"/>
<path d="M174.85 160.499H170.109V165.24H174.85V160.499Z" fill="#464A68"/>
<path d="M179.592 160.499H174.852V165.24H179.592V160.499Z" fill="#464A68"/>
<path d="M184.616 160.5H179.59V165.24H184.616V160.5Z" fill="#464A68"/>
<path d="M84.4945 160.5H79.7539V165.24H84.4945V160.5Z" fill="#464A68"/>
<path d="M89.2367 155.759H84.4961V160.499H89.2367V155.759Z" fill="#464A68"/>
<path d="M108.198 155.759H103.457V160.499H108.198V155.759Z" fill="#464A68"/>
<path d="M112.936 155.759H108.195V160.499H112.936V155.759Z" fill="#464A68"/>
<path d="M122.42 155.759H117.68V160.499H122.42V155.759Z" fill="#464A68"/>
<path d="M127.159 155.759H122.418V160.499H127.159V155.759Z" fill="#464A68"/>
<path d="M136.639 155.759H131.898V160.499H136.639V155.759Z" fill="#464A68"/>
<path d="M141.381 155.759H136.641V160.499H141.381V155.759Z" fill="#464A68"/>
<path d="M151.147 155.759H146.406V160.499H151.147V155.759Z" fill="#464A68"/>
<path d="M155.889 155.759H151.148V160.499H155.889V155.759Z" fill="#464A68"/>
<path d="M160.631 155.759H155.891V160.499H160.631V155.759Z" fill="#464A68"/>
<path d="M165.369 155.759H160.629V160.499H165.369V155.759Z" fill="#464A68"/>
<path d="M170.108 155.759H165.367V160.499H170.108V155.759Z" fill="#464A68"/>
<path d="M174.85 155.759H170.109V160.499H174.85V155.759Z" fill="#464A68"/>
<path d="M84.4945 155.759H79.7539V160.499H84.4945V155.759Z" fill="#464A68"/>
<path d="M122.42 151.018H117.68V155.759H122.42V151.018Z" fill="#464A68"/>
<path d="M131.901 151.018H127.16V155.759H131.901V151.018Z" fill="#464A68"/>
<path d="M136.639 151.018H131.898V155.759H136.639V151.018Z" fill="#464A68"/>
<path d="M146.405 151.018H141.379V155.759H146.405V151.018Z" fill="#464A68"/>
<path d="M151.147 151.018H146.406V155.759H151.147V151.018Z" fill="#464A68"/>
<path d="M155.889 151.018H151.148V155.759H155.889V151.018Z" fill="#464A68"/>
<path d="M89.2367 146.278H84.4961V151.018H89.2367V146.278Z" fill="#464A68"/>
<path d="M93.9711 146.278H89.2305V151.018H93.9711V146.278Z" fill="#464A68"/>
<path d="M98.7132 146.278H93.9727V151.018H98.7132V146.278Z" fill="#464A68"/>
<path d="M103.455 146.278H98.7148V151.018H103.455V146.278Z" fill="#464A68"/>
<path d="M108.198 146.278H103.457V151.018H108.198V146.278Z" fill="#464A68"/>
<path d="M117.678 146.277H112.938V151.018H117.678V146.277Z" fill="#464A68"/>
<path d="M122.42 146.278H117.68V151.018H122.42V146.278Z" fill="#464A68"/>
<path d="M136.639 146.277H131.898V151.018H136.639V146.277Z" fill="#464A68"/>
<path d="M155.889 146.277H151.148V151.018H155.889V146.277Z" fill="#464A68"/>
<path d="M160.631 146.278H155.891V151.018H160.631V146.278Z" fill="#464A68"/>
<path d="M170.108 146.278H165.367V151.018H170.108V146.278Z" fill="#464A68"/>
<path d="M184.616 146.278H179.59V151.018H184.616V146.278Z" fill="#464A68"/>
<path d="M84.4945 146.278H79.7539V151.018H84.4945V146.278Z" fill="#464A68"/>
<path d="M108.198 141.537H103.457V146.278H108.198V141.537Z" fill="#464A68"/>
<path d="M146.405 141.537H141.379V146.278H146.405V141.537Z" fill="#464A68"/>
<path d="M151.147 141.537H146.406V146.278H151.147V141.537Z" fill="#464A68"/>
<path d="M160.631 141.537H155.891V146.278H160.631V141.537Z" fill="#464A68"/>
<path d="M165.369 141.537H160.629V146.278H165.369V141.537Z" fill="#464A68"/>
<path d="M174.85 141.537H170.109V146.278H174.85V141.537Z" fill="#464A68"/>
<path d="M179.592 141.537H174.852V146.278H179.592V141.537Z" fill="#464A68"/>
<path d="M184.616 141.537H179.59V146.278H184.616V141.537Z" fill="#464A68"/>
<path d="M84.4945 141.537H79.7539V146.278H84.4945V141.537Z" fill="#464A68"/>
<path d="M93.9711 136.797H89.2305V141.537H93.9711V136.797Z" fill="#464A68"/>
<path d="M98.7132 136.796H93.9727V141.537H98.7132V136.796Z" fill="#464A68"/>
<path d="M108.198 136.796H103.457V141.537H108.198V136.796Z" fill="#464A68"/>
<path d="M117.678 136.797H112.938V141.537H117.678V136.797Z" fill="#464A68"/>
<path d="M122.42 136.796H117.68V141.537H122.42V136.796Z" fill="#464A68"/>
<path d="M131.901 136.797H127.16V141.537H131.901V136.797Z" fill="#464A68"/>
<path d="M136.639 136.797H131.898V141.537H136.639V136.797Z" fill="#464A68"/>
<path d="M146.405 136.797H141.379V141.537H146.405V136.797Z" fill="#464A68"/>
<path d="M165.369 136.796H160.629V141.537H165.369V136.796Z" fill="#464A68"/>
<path d="M170.108 136.796H165.367V141.537H170.108V136.796Z" fill="#464A68"/>
<path d="M174.85 136.797H170.109V141.537H174.85V136.797Z" fill="#464A68"/>
<path d="M84.4945 136.797H79.7539V141.537H84.4945V136.797Z" fill="#464A68"/>
<path d="M93.9711 132.056H89.2305V136.796H93.9711V132.056Z" fill="#464A68"/>
<path d="M98.7132 132.056H93.9727V136.796H98.7132V132.056Z" fill="#464A68"/>
<path d="M108.198 132.056H103.457V136.796H108.198V132.056Z" fill="#464A68"/>
<path d="M117.678 132.056H112.938V136.796H117.678V132.056Z" fill="#464A68"/>
<path d="M127.159 132.056H122.418V136.796H127.159V132.056Z" fill="#464A68"/>
<path d="M131.901 132.056H127.16V136.796H131.901V132.056Z" fill="#464A68"/>
<path d="M136.639 132.056H131.898V136.796H136.639V132.056Z" fill="#464A68"/>
<path d="M141.381 132.056H136.641V136.796H141.381V132.056Z" fill="#464A68"/>
<path d="M146.405 132.056H141.379V136.796H146.405V132.056Z" fill="#464A68"/>
<path d="M155.889 132.056H151.148V136.796H155.889V132.056Z" fill="#464A68"/>
<path d="M160.631 132.056H155.891V136.796H160.631V132.056Z" fill="#464A68"/>
<path d="M165.369 132.056H160.629V136.796H165.369V132.056Z" fill="#464A68"/>
<path d="M174.85 132.056H170.109V136.796H174.85V132.056Z" fill="#464A68"/>
<path d="M179.592 132.056H174.852V136.796H179.592V132.056Z" fill="#464A68"/>
<path d="M184.616 132.056H179.59V136.796H184.616V132.056Z" fill="#464A68"/>
<path d="M84.4945 132.056H79.7539V136.796H84.4945V132.056Z" fill="#464A68"/>
<path d="M108.198 127.315H103.457V132.056H108.198V127.315Z" fill="#464A68"/>
<path d="M127.159 127.315H122.418V132.056H127.159V127.315Z" fill="#464A68"/>
<path d="M131.901 127.315H127.16V132.056H131.901V127.315Z" fill="#464A68"/>
<path d="M141.381 127.315H136.641V132.056H141.381V127.315Z" fill="#464A68"/>
<path d="M146.405 127.315H141.379V132.056H146.405V127.315Z" fill="#464A68"/>
<path d="M151.147 127.315H146.406V132.056H151.147V127.315Z" fill="#464A68"/>
<path d="M155.889 127.315H151.148V132.056H155.889V127.315Z" fill="#464A68"/>
<path d="M179.592 127.315H174.852V132.056H179.592V127.315Z" fill="#464A68"/>
<path d="M84.4945 127.315H79.7539V132.056H84.4945V127.315Z" fill="#464A68"/>
<path d="M89.2367 122.574H84.4961V127.315H89.2367V122.574Z" fill="#464A68"/>
<path d="M93.9711 122.574H89.2305V127.315H93.9711V122.574Z" fill="#464A68"/>
<path d="M98.7132 122.574H93.9727V127.315H98.7132V122.574Z" fill="#464A68"/>
<path d="M103.455 122.574H98.7148V127.315H103.455V122.574Z" fill="#464A68"/>
<path d="M108.198 122.574H103.457V127.315H108.198V122.574Z" fill="#464A68"/>
<path d="M117.678 122.575H112.938V127.315H117.678V122.575Z" fill="#464A68"/>
<path d="M122.42 122.575H117.68V127.315H122.42V122.575Z" fill="#464A68"/>
<path d="M146.405 122.575H141.379V127.315H146.405V122.575Z" fill="#464A68"/>
<path d="M155.889 122.575H151.148V127.315H155.889V122.575Z" fill="#464A68"/>
<path d="M165.369 122.574H160.629V127.315H165.369V122.574Z" fill="#464A68"/>
<path d="M170.108 122.575H165.367V127.315H170.108V122.575Z" fill="#464A68"/>
<path d="M184.616 122.574H179.59V127.315H184.616V122.574Z" fill="#464A68"/>
<path d="M84.4945 122.574H79.7539V127.315H84.4945V122.574Z" fill="#464A68"/>
<g opacity="0.8">
<path d="M63.9036 131.913C62.9612 131.913 62.2188 131.17 62.2188 130.228V107.239C62.2188 106.297 62.9612 105.554 63.9036 105.554H87.0925C88.0349 105.554 88.7774 106.297 88.7774 107.239C88.7774 108.182 88.0349 108.924 87.0925 108.924H65.5886V130.228C65.5886 131.17 64.8175 131.913 63.9036 131.913Z" fill="white"/>
<path d="M200.439 132.027C199.497 132.027 198.755 131.285 198.755 130.342V108.839H177.451C176.508 108.839 175.766 108.096 175.766 107.154C175.766 106.211 176.508 105.469 177.451 105.469H200.439C201.382 105.469 202.124 106.211 202.124 107.154V130.342C202.124 131.285 201.382 132.027 200.439 132.027Z" fill="white"/>
</g>
<g opacity="0.8">
<path d="M200.44 247.572H177.251C176.309 247.572 175.566 246.829 175.566 245.887C175.566 244.944 176.309 244.202 177.251 244.202H198.755V222.898C198.755 221.955 199.498 221.213 200.44 221.213C201.383 221.213 202.125 221.955 202.125 222.898V245.887C202.125 246.829 201.383 247.572 200.44 247.572Z" fill="white"/>
<path d="M86.8926 247.686H63.9036C62.9612 247.686 62.2188 246.943 62.2188 246.001V222.812C62.2188 221.87 62.9612 221.127 63.9036 221.127C64.846 221.127 65.5886 221.87 65.5886 222.812V244.316H86.8926C87.835 244.316 88.5775 245.059 88.5775 246.001C88.5775 246.943 87.835 247.686 86.8926 247.686Z" fill="white"/>
</g>
</g>
<path d="M254.447 65.9547C254.652 65.3486 259.424 67.491 259.996 67.9264C262.428 69.7103 266.943 73.8543 269.047 76.0052C273.251 80.3071 277.254 85.0016 282.508 88.083C283.768 88.8246 285.09 89.4543 286.46 89.965C289.161 90.9594 291.001 86.2265 292.008 84.5066C293.924 81.2119 295.751 77.8702 297.556 74.503C301.295 67.4612 301.777 65.7754 305.409 58.6739C306.565 56.4162 307.726 54.1629 308.913 51.9223C309.195 51.2512 309.645 50.6635 310.218 50.2152C311.345 49.4854 312.83 49.9634 314.059 50.4627L318.553 52.2509C319.31 52.4825 319.999 52.8957 320.559 53.4544C321.315 54.3421 321.332 55.6224 321.293 56.7875C320.785 71.5283 318.652 81.6728 312.506 95.0821C308.895 102.948 303.83 111.107 295.593 113.766C287.753 116.301 279.981 114.377 272.893 110.181C261.233 103.28 255.28 95.5088 245.754 91.6166L254.447 65.9547Z" fill="#FF9D23"/>
<path d="M270.48 108.688C265.5 105.491 261.574 102.179 257.818 99.209L261.586 83.0598C267.265 90.4046 270.388 99.404 270.48 108.688Z" fill="#F18A09"/>
<path d="M318.127 54.8287C318.405 54.4574 318.93 54.4019 319.322 54.1458C319.697 53.8572 320.005 53.4902 320.223 53.0704C320.94 51.9551 321.859 50.9839 322.933 50.2067C325.22 48.5508 328.084 47.8509 330.389 46.2206C331.671 45.2564 332.819 44.1255 333.803 42.8576C333.899 42.768 333.975 42.6596 334.027 42.5392C334.079 42.4188 334.106 42.2889 334.106 42.1577C334.033 41.731 333.449 41.6072 333.001 41.6413C331.881 41.7395 330.795 42.0725 329.813 42.6186L332.403 40.3909C333.257 39.6654 334.174 38.7307 334.008 37.6296C333.994 37.4781 333.927 37.3362 333.82 37.2285C333.706 37.1601 333.576 37.1208 333.443 37.1141C333.31 37.1074 333.177 37.1335 333.056 37.1901C331.85 37.5502 330.679 38.0172 329.557 38.5856L333.662 35.5982C334.068 35.3681 334.387 35.0113 334.571 34.5825C334.823 33.7673 333.999 32.9522 333.158 32.854C332.318 32.7559 331.498 33.1314 330.713 33.4558C329.241 34.0693 327.711 34.5326 326.147 34.8385C324.2 35.2184 322.105 35.4019 320.534 36.6139C319.621 37.3944 318.892 38.3681 318.401 39.4648C317.485 41.4212 316.731 43.4495 316.147 45.5293L314.735 50.0872C314.457 50.7986 314.337 51.5613 314.38 52.3235C314.463 52.7973 314.652 53.246 314.934 53.6357C315.216 54.0254 315.582 54.3458 316.006 54.5726C316.864 55.0148 317.834 55.1916 318.793 55.0805C319.042 55.0731 319.284 54.9978 319.493 54.8628C319.702 54.657 319.85 54.3969 319.92 54.1117C320.339 52.9779 320.981 51.9391 321.806 51.056" fill="#EFA08D"/>
<path d="M333.591 19.1462H320.182C319.903 19.1459 319.634 19.2471 319.424 19.4309C319.214 19.6147 319.079 19.8684 319.042 20.1449L315.364 48.5553C315.346 48.716 315.362 48.8786 315.411 49.0326C315.46 49.1867 315.541 49.3287 315.648 49.4494C315.755 49.5702 315.887 49.667 316.034 49.7335C316.182 49.8 316.341 49.8348 316.503 49.8356H330.911C331.093 49.8355 331.268 49.7677 331.403 49.6455C331.538 49.5232 331.623 49.3553 331.641 49.1741L334.731 20.4266C334.749 20.2658 334.734 20.1029 334.685 19.9486C334.636 19.7942 334.555 19.6519 334.448 19.531C334.34 19.4101 334.208 19.3133 334.061 19.247C333.913 19.1807 333.753 19.1464 333.591 19.1462Z" fill="#568872"/>
<path d="M330.856 19.1463H317.446C317.167 19.1451 316.897 19.2459 316.688 19.4299C316.478 19.6138 316.342 19.8681 316.307 20.145L312.615 48.5554C312.597 48.716 312.613 48.8786 312.662 49.0327C312.711 49.1867 312.792 49.3287 312.9 49.4495C313.007 49.5702 313.139 49.667 313.286 49.7336C313.433 49.8001 313.593 49.8349 313.755 49.8357H327.625C327.93 49.8345 328.225 49.7213 328.452 49.5176C328.679 49.3138 328.824 49.0337 328.858 48.7304L332.008 20.4266C332.027 20.2648 332.011 20.1008 331.961 19.9455C331.912 19.7903 331.83 19.6474 331.721 19.5263C331.612 19.4052 331.478 19.3086 331.329 19.2431C331.18 19.1776 331.019 19.1446 330.856 19.1463Z" fill="#6FCF97"/>
<path d="M327.092 20.2473L327.801 19.1462H320.349L320.797 20.1406C320.862 20.284 320.966 20.4058 321.097 20.4914C321.229 20.5769 321.383 20.6226 321.54 20.6229H326.405C326.542 20.623 326.677 20.5886 326.797 20.523C326.917 20.4574 327.019 20.3626 327.092 20.2473Z" fill="#568872"/>
<path d="M261.57 334.597L262.825 356.23C262.846 356.595 263.006 356.938 263.271 357.189C263.537 357.44 263.889 357.579 264.255 357.579H279.58C279.866 357.579 280.146 357.493 280.383 357.333C280.62 357.173 280.803 356.945 280.91 356.679C281.016 356.414 281.04 356.122 280.979 355.843C280.917 355.563 280.774 355.309 280.566 355.112L276.298 351.053C276.158 350.914 276.047 350.748 275.974 350.564C275.9 350.381 275.866 350.184 275.872 349.986L276.196 334.597" fill="#3D3E43"/>
<path d="M177.379 334.597L169.834 351.202C169.701 351.49 169.668 351.814 169.739 352.123C169.81 352.432 169.981 352.708 170.226 352.91L172.817 355.043C173.045 355.231 173.209 355.484 173.288 355.768C173.367 356.052 173.355 356.354 173.256 356.631C173.156 356.909 172.973 357.149 172.732 357.319C172.49 357.488 172.203 357.579 171.908 357.579H156.117C155.888 357.578 155.663 357.523 155.46 357.418C155.258 357.313 155.083 357.162 154.95 356.975C154.818 356.789 154.732 356.574 154.7 356.348C154.667 356.122 154.689 355.891 154.764 355.675L162.109 334.597" fill="#3D3E43"/>
<path d="M229.752 159.209L262.742 162.197C277.201 228.859 283.355 227.839 276.753 337.358H261.35C261.35 337.358 254.906 304.381 252.102 286.999C248.261 263.18 250.702 234.71 250.702 234.71C250.702 234.71 218.293 200.261 229.752 159.209Z" fill="#2F2C2B"/>
<path d="M175.781 278.288C182.456 250.254 200.133 225.987 200.133 225.987C200.133 225.987 200.658 194.832 198.127 162.214L239.183 145.694C237.783 151.895 249.485 183.826 224.497 234.71C199.51 285.595 177.791 337.358 177.791 337.358H159.768C159.768 337.358 171.966 294.241 175.781 278.288Z" fill="#464A68"/>
<path d="M218.234 184.44C211.683 177.3 203.984 171.15 198.24 163.37L198.15 162.214L202.077 160.635C202.908 160.712 203.735 160.839 204.552 161.015C216.681 163.541 228.844 166.08 240.742 169.49C240.823 179.861 239.607 193.292 234.631 209.449C230.553 200.282 225.016 191.836 218.234 184.44Z" fill="#383C5B"/>
<path d="M202.891 162.496C208.626 163.558 214.482 163.733 220.312 163.9L245.871 164.642L245.342 181.713C235.641 179.298 226.117 176.225 216.833 172.516C210.376 169.956 203.898 166.968 198.909 162.129C200.223 161.958 201.568 162.248 202.891 162.496Z" fill="#2F2C2B"/>
<path d="M199.11 108.547C199.742 104.706 200.523 100.916 201.487 97.148C205.328 82.0188 211.781 66.0574 228.668 62.1823C233.841 60.9958 239.598 61.2861 244.361 63.3303C251.736 66.497 257.194 72.9626 259.635 80.5421C262.021 87.9467 261.556 95.9061 260.425 103.511C260.199 105.001 256.895 119.007 255.675 125.217L262.742 162.214C262.742 162.214 217.504 169.555 198.15 162.214C195.879 161.361 196.869 150.264 196.835 148.399C196.566 135.097 196.946 121.683 199.11 108.547Z" fill="#80BFA7"/>
<path d="M198.15 162.214C195.879 161.36 196.869 150.264 196.835 148.399C196.818 147.466 196.803 146.53 196.788 145.591C204.47 143.129 211.879 139.894 217.274 134.026C217.948 133.287 218.635 132.481 219.582 132.156C221.447 131.525 223.423 133.082 224.226 134.875C225.028 136.667 225.156 138.716 225.877 140.53C226.599 142.343 228.319 144.097 230.26 143.773C232.936 143.346 233.525 139.582 232.509 137.064C231.494 134.546 229.522 132.314 229.411 129.604C229.367 129.185 229.408 128.762 229.529 128.359C229.651 127.956 229.852 127.582 230.119 127.257C231.558 125.75 234.033 126.997 236.094 127.065C239.082 127.167 241.728 124.013 241.105 121.09C240.614 118.794 238.544 116.664 239.316 114.458C239.957 112.678 242.078 112.059 243.81 111.308C248.449 109.294 251.676 104.843 253.366 100.076C255.056 95.3085 255.414 90.1872 255.752 85.1384L261.3 90.5073C261.41 94.8615 261.113 99.2165 260.412 103.515C260.186 105.005 256.883 119.012 255.662 125.221L262.742 162.214C262.742 162.214 217.508 169.555 198.15 162.214Z" fill="#72A58F"/>
<path d="M196.835 148.399C196.793 146.377 196.768 144.352 196.763 142.326L219.339 142.454C218.183 147.776 220.504 153.201 220.73 158.642C220.73 159.133 220.705 159.722 220.278 159.965C220.051 160.068 219.8 160.108 219.553 160.08C213.915 159.986 208.26 159.884 202.678 159.065C200.673 158.777 198.684 158.384 196.72 157.887C196.485 154.276 196.861 149.556 196.835 148.399Z" fill="#568872"/>
<path d="M260.288 104.211C259.618 107.476 256.784 119.575 255.675 125.217L261.59 156.235C258.567 156.484 255.527 156.425 252.517 156.06C251.073 155.949 249.661 155.582 248.347 154.976C247.692 154.668 247.11 154.224 246.641 153.672C246.172 153.121 245.827 152.475 245.628 151.779C245.464 150.742 245.512 149.682 245.769 148.664C246.085 146.957 246.398 145.25 246.708 143.542C249.96 125.564 252.64 107.497 254.749 89.342L260.288 104.211Z" fill="#568872"/>
<path d="M251.721 60.6416C251.802 60.7142 256.988 61.9561 260.112 62.7029C260.387 62.769 260.644 62.897 260.863 63.0771C261.082 63.2573 261.257 63.4849 261.375 63.7427C261.493 64.0005 261.551 64.2818 261.544 64.5652C261.538 64.8487 261.467 65.1269 261.336 65.3788L260.013 67.9394C260.013 67.9394 267.136 77.99 263.125 103.511C260.018 123.22 264.58 139.138 266.82 145.365C266.953 145.733 267.004 146.126 266.971 146.516C266.938 146.906 266.821 147.284 266.629 147.625C266.436 147.966 266.173 148.262 265.856 148.492C265.539 148.722 265.177 148.881 264.793 148.958C262.027 149.542 259.209 149.841 256.382 149.85C255.689 149.847 255.023 149.581 254.519 149.106C254.015 148.63 253.711 147.981 253.667 147.29C253.24 139.143 252.02 112.38 253.804 96.3968C255.938 77.3755 250.667 67.2097 250.667 67.2097" fill="#FFB739"/>
<path d="M242.768 36.7036L229.572 64.6062L248.44 73.3508L257.312 48.8027L242.768 36.7036Z" fill="#EFA08D"/>
<path d="M255.002 26.5808C256.436 29.7603 257.563 33.725 260.627 35.3084C260.754 35.3753 260.867 35.4673 260.958 35.5789C261.049 35.6905 261.117 35.8193 261.157 35.9577C261.196 36.0961 261.208 36.2411 261.19 36.384C261.173 36.5269 261.126 36.6648 261.054 36.7893L260.704 37.3953C260.585 37.6034 260.519 37.8372 260.511 38.0766C260.502 38.316 260.553 38.5538 260.657 38.7695C261.865 41.2192 265.804 51.0862 258.015 53.5914C252.33 55.418 245.186 54.6967 239.664 52.0892C229.553 47.3391 223.34 34.3822 229.11 24.0671C234.457 14.5159 248.588 15.9584 254.008 24.6603C254.381 25.278 254.713 25.9196 255.002 26.5808Z" fill="#EFA08D"/>
<path d="M245.768 40.5063C250.847 36.6994 246.135 40.933 245.768 40.5063V40.5063Z" fill="#75141A"/>
<path d="M223.312 33.8613C223.521 28.8808 226.547 24.5832 230.166 21.3781C234.058 17.9298 238.954 14.746 244.293 14.3961C247.152 14.2083 249.926 15.1173 252.363 16.5683C253.61 17.3167 254.788 18.1736 255.884 19.129C256.656 19.7948 258.444 21.0025 258.654 22.0737C258.677 22.2644 258.661 22.4579 258.605 22.6417C258.549 22.8255 258.455 22.9955 258.329 23.1407C257.983 23.5675 254.804 25.8763 254.877 26.0342C254.696 25.6328 254.489 25.2436 254.258 24.8691C250.09 25.3949 245.872 25.3719 241.711 24.8008C243.443 25.9873 245.351 27.1993 244.335 32.965C245.189 35.3507 246.691 35.9525 247.549 38.3168C246.815 37.3224 246.426 37.7279 245.325 38.2912C244.928 38.496 244.997 38.718 244.817 39.1447C244.16 40.6043 244.719 39.3069 245.769 40.5147C245.342 40.8305 246.785 40.3056 246.572 40.7921C245.611 42.9687 243.682 49.9976 235.757 51.4401C232.475 49.3063 229.821 47.4583 227.222 44.5306C224.593 41.6104 223.193 37.7885 223.312 33.8613Z" fill="#75141A"/>
<path d="M227.23 44.5221C225.162 42.2088 223.835 39.3297 223.418 36.2555C223.545 36.2323 223.676 36.2323 223.803 36.2555C224.315 36.3664 224.695 36.7932 225.147 37.0621C226.086 37.6212 227.281 37.4633 228.326 37.1261C229.372 36.789 230.371 36.2726 231.459 36.1872C232.462 36.0976 233.46 36.3665 234.446 36.5201C236.556 36.8988 238.732 36.6187 240.677 35.7178C241.631 35.2556 242.47 34.5874 243.134 33.7616C243.799 32.9357 244.271 31.9728 244.518 30.9421H244.574C244.524 31.6205 244.438 32.2957 244.318 32.9651C245.171 35.3507 246.673 35.9525 247.531 38.3168C246.797 37.3224 246.409 37.7279 245.308 38.2912C244.911 38.4961 244.979 38.718 244.8 39.1448C244.143 40.6043 244.702 39.3069 245.752 40.5147C245.325 40.8305 246.767 40.3056 246.554 40.7921C245.594 42.9687 243.665 49.9977 235.739 51.4402C232.475 49.302 229.82 47.4498 227.23 44.5221Z" fill="#550B0E"/>
<path d="M244.568 41.7351C242.707 40.2956 242.095 37.9711 243.2 36.5432C244.305 35.1152 246.708 35.1246 248.569 36.564C250.429 38.0035 251.042 40.328 249.937 41.756C248.832 43.1839 246.428 43.1746 244.568 41.7351Z" fill="#EFA08D"/>
<path d="M258.602 40.933C256.595 40.7038 254.633 40.1849 252.776 39.3923C252.669 40.0769 252.619 40.7693 252.627 41.4622C252.584 42.4315 252.816 43.3932 253.297 44.2362C253.547 44.6509 253.916 44.9808 254.356 45.1833C254.795 45.3857 255.286 45.4513 255.763 45.3715C256.167 45.2384 256.531 45.0049 256.82 44.6928C257.109 44.3808 257.314 44.0005 257.415 43.5875C257.611 42.7604 257.66 41.9052 257.56 41.061" fill="#4F1608"/>
<path d="M258.602 41.3383C256.564 41.0924 254.57 40.5682 252.674 39.7806L253.148 39.516C252.922 41.1292 252.721 43.5533 254.206 44.6373C254.41 44.8019 254.649 44.9173 254.905 44.9748C255.16 45.0323 255.425 45.0302 255.68 44.9687C255.934 44.9073 256.171 44.788 256.373 44.6203C256.574 44.4526 256.734 44.2408 256.84 44.0014C257.318 43.1137 257.232 42.0425 257.177 41.0737C257.151 40.583 257.919 40.583 257.945 41.0737C258.013 42.3285 258.052 43.6771 257.275 44.7397C256.988 45.1689 256.57 45.4936 256.083 45.6651C255.596 45.8367 255.066 45.8459 254.573 45.6914C251.966 44.8635 252.107 41.4536 252.405 39.2898C252.419 39.241 252.442 39.1953 252.473 39.1553C252.504 39.1153 252.542 39.0819 252.586 39.0569C252.63 39.0319 252.679 39.0159 252.729 39.0097C252.779 39.0035 252.83 39.0074 252.879 39.021C254.709 39.7865 256.634 40.3004 258.602 40.5488C259.089 40.6128 259.093 41.381 258.602 41.317V41.3383Z" fill="#4F1608"/>
<path d="M234.732 58.0766C239.376 57.3553 238.471 57.3682 242.649 59.1606C244.925 60.1349 247.05 61.4282 248.961 63.0016C248.961 63.0016 252.499 69.4715 249.388 73.0308C246.277 76.5901 234.728 72.7833 234.732 58.0766Z" fill="#EFA08D"/>
<path d="M224.145 61.8662L226.463 57.7606C226.734 57.2799 227.158 56.9033 227.667 56.6908C228.177 56.4782 228.743 56.4417 229.275 56.587L240.183 59.5744C240.471 59.6535 240.736 59.7996 240.956 60.001C241.177 60.2023 241.346 60.453 241.451 60.7326C241.555 61.0121 241.592 61.3124 241.558 61.6089C241.524 61.9054 241.42 62.1896 241.255 62.4381L237.371 68.2337C237.371 68.2337 240.094 77.674 228.443 105.905C222.097 121.269 223.855 140.768 224.785 147.789C224.833 148.138 224.808 148.494 224.712 148.833C224.616 149.173 224.45 149.488 224.226 149.761C224.002 150.033 223.724 150.257 223.41 150.417C223.096 150.577 222.752 150.67 222.4 150.691C215.371 151.139 196.755 151.476 186.359 143.645C185.827 143.245 185.414 142.708 185.165 142.092C184.916 141.475 184.841 140.802 184.946 140.145C186.832 128.127 197.634 67.4741 224.145 61.8662Z" fill="#FFB739"/>
<path d="M184.947 140.133C186.014 133.304 189.957 110.847 198.01 91.651C199.865 90.6893 201.791 89.8717 203.772 89.2056C205.586 88.5953 207.702 88.16 209.32 89.2056C211.027 90.3066 211.454 92.5899 211.808 94.6043C213.447 103.887 217.151 112.648 220.249 121.547C221.692 125.58 222.892 129.695 223.843 133.872C223.874 138.524 224.191 143.171 224.79 147.785C224.873 148.412 224.721 149.047 224.364 149.569L222.4 150.687C215.371 151.135 196.756 151.472 186.359 143.641C185.826 143.241 185.413 142.702 185.164 142.084C184.915 141.465 184.84 140.791 184.947 140.133Z" fill="#FF9D23"/>
<path d="M200.366 86.3972L200.844 86.2351C201.114 86.1231 201.41 86.0905 201.697 86.1412C201.769 86.1581 201.836 86.1891 201.895 86.2324C201.954 86.2757 202.004 86.3303 202.042 86.3931C202.08 86.4559 202.104 86.5256 202.115 86.5981C202.125 86.6707 202.121 86.7446 202.103 86.8155L210.066 88.1171C209.264 91.9581 207.416 95.6711 204.518 98.3384C201.702 100.929 197.856 102.47 194.045 102.179C195.828 96.7945 197.939 91.5239 200.366 86.3972Z" fill="#F18A09"/>
<path d="M184.843 140.231C185.342 137.064 186.46 130.509 188.321 122.477L188.376 122.498C191.763 123.881 194.917 125.776 197.727 128.119L201.043 133.381C198.819 136.321 197.129 138.353 193.711 139.736C191.381 140.674 187.425 141.366 184.954 141.869C184.796 141.338 184.758 140.778 184.843 140.231Z" fill="#F18A09"/>
<path d="M166.875 85.3302C168.98 83.0333 171.37 81.0141 173.985 79.3212C178.774 76.129 184.1 73.739 189.435 71.6094C196.745 68.7231 204.218 66.2664 211.815 64.2518C213.039 63.9232 214.26 63.6074 215.489 63.3044C220.115 62.1606 224.114 60.7437 228.668 62.1692L225.681 68.6988C225.476 69.1512 225.838 70.4657 225.864 70.9863C225.907 71.8911 225.92 72.8001 225.89 73.7049C225.842 75.4362 225.634 77.1593 225.267 78.8518C222.347 91.941 228.681 84.5791 217.072 86.6618C214.623 87.0886 214.085 88.2281 211.734 88.9962C187.706 96.7849 182.939 98.7182 182.474 98.2274C190.186 106.392 198.721 116.621 206.433 124.79C206.77 125.082 207.011 125.469 207.124 125.899C207.214 126.484 206.838 127.03 206.467 127.496C204.508 129.967 202.34 132.894 199.865 134.853C199.494 135.148 199.011 134.764 198.585 134.853C197.88 135.011 197.33 133.014 196.677 132.719C191.428 130.236 186.554 126.89 182.077 123.219C177.466 119.431 173.198 115.242 169.325 110.702C166.098 106.887 163.414 102.341 162.671 97.3354C161.95 92.6921 163.913 88.6719 166.875 85.3302Z" fill="#FFB739"/>
<path d="M317.948 55.0805C316.177 55.0165 314.324 54.9012 312.677 54.2525C311.747 53.8898 310.791 53.3691 310.368 52.4644C310.147 51.8804 310.048 51.2572 310.078 50.6335L310.031 48.2606C309.988 46.1267 309.95 43.9331 310.522 41.859C310.693 41.1677 310.982 40.511 311.375 39.9172C311.952 39.172 312.657 38.536 313.458 38.0394C314.388 37.3949 315.349 36.7846 316.326 36.217C316.503 36.0972 316.704 36.0185 316.915 35.9866C317.119 35.9886 317.317 36.0573 317.479 36.182C317.641 36.3068 317.757 36.4809 317.811 36.6779C317.903 37.0794 317.858 37.5002 317.683 37.8729C317.359 38.5781 316.894 39.2098 316.317 39.7294C315.891 40.1562 315.391 40.6341 315.464 41.2359C315.511 41.5001 315.604 41.7541 315.737 41.987C316.377 43.3058 318.242 44.2831 317.961 50.1811C317.935 50.7914 317.82 49.8184 317.879 50.4286C317.973 51.3803 316.979 49.8824 317.201 50.8127C317.342 51.4017 317.342 52.0162 317.444 52.6137C317.505 53.2234 317.789 53.7889 318.242 54.2013" fill="#EFA08D"/>
<path d="M318.326 36.9767C318.1 38.0552 317.623 39.0655 316.934 39.9257C316.819 40.0622 316.021 40.6725 315.961 40.8902C315.744 41.6755 316.666 42.5034 317.033 43.0966C318.306 45.1795 318.816 47.64 318.475 50.0573C318.415 50.5438 317.647 50.5481 317.707 50.0573C317.926 48.5336 317.799 46.9801 317.336 45.5122C316.875 44.1251 315.351 42.8192 315.116 41.4365C315.03 41.1935 315.038 40.9273 315.138 40.6896C315.325 40.2244 315.961 39.8361 316.277 39.4776C316.924 38.6942 317.372 37.7659 317.583 36.7718C317.698 36.2938 318.437 36.4944 318.326 36.9767Z" fill="#568872"/>
<path d="M209.391 122.694C206.74 128.578 202.56 133.643 197.287 137.363C196.886 137.649 196.502 136.983 196.903 136.697C202.06 133.039 206.143 128.067 208.729 122.298C208.934 121.845 209.583 122.238 209.391 122.686V122.694Z" fill="#F18A09"/>
<path d="M255.055 44.1251C254.751 43.663 254.3 43.3171 253.775 43.1436C253.581 43.0859 253.417 42.9556 253.317 42.7799C253.216 42.6042 253.188 42.3966 253.237 42.2004C253.292 42.0047 253.422 41.8385 253.598 41.7379C253.775 41.6372 253.984 41.6102 254.18 41.6627C255.079 41.9684 255.848 42.5703 256.361 43.3698C256.903 44.1977 255.571 44.9702 255.034 44.1465L255.055 44.1251Z" fill="#D05C60"/>
<path d="M254.685 26.5676L254.143 25.4836C253.921 25.0569 254.569 24.6557 254.808 25.0953L255.35 26.1835C255.568 26.6103 254.924 27.0115 254.685 26.5676Z" fill="#4F1608"/>
<path d="M256.043 24.327C254.071 25.8676 251.113 25.7183 248.745 25.8079C245.591 25.9274 242.505 25.65 239.565 24.4507C239.112 24.263 239.313 23.5204 239.77 23.7082C242.114 24.6326 244.616 25.0949 247.136 25.0696C249.577 25.0696 253.49 25.3512 255.496 23.7892C255.885 23.4862 256.431 24.0282 256.043 24.3312V24.327Z" fill="#4F1608"/>
<path d="M244.867 29.3205C245.025 31.1257 244.952 32.9523 243.847 34.4418C243.557 34.8387 242.891 34.4418 243.181 34.0534C244.214 32.645 244.244 30.9763 244.099 29.2991C244.056 28.8083 244.824 28.8126 244.867 29.2991V29.3205Z" fill="#4F1608"/>
<path d="M245.162 37.4546C245.526 37.4723 245.875 37.6061 246.158 37.8365C246.441 38.0669 246.642 38.3817 246.733 38.7349C246.75 38.7999 246.751 38.8685 246.733 38.9337C246.716 38.9989 246.682 39.0583 246.635 39.1062C246.577 39.1642 246.508 39.2092 246.431 39.2379C246.355 39.2667 246.273 39.2786 246.191 39.2729C246.11 39.2671 246.03 39.2438 245.959 39.2046C245.887 39.1653 245.825 39.1111 245.776 39.0455C245.727 38.9799 245.693 38.9046 245.676 38.8247C245.659 38.7447 245.66 38.6621 245.677 38.5823C245.695 38.5026 245.73 38.4277 245.78 38.3627C245.829 38.2976 245.892 38.2441 245.964 38.2057C246.391 37.9667 246.788 38.6325 246.353 38.8715L246.43 38.769L246.374 38.577L246.216 38.5002L246.046 38.5983L246.088 38.5642L245.99 38.9397C245.953 38.7425 245.852 38.5632 245.702 38.4296C245.552 38.2961 245.362 38.2158 245.162 38.2014C244.667 38.1715 244.667 37.4033 245.162 37.4332V37.4546Z" fill="#4F1608"/>
<path d="M255.882 54.4872C255.007 54.6585 254.114 54.7258 253.223 54.6878C252.732 54.6878 252.728 53.8983 253.223 53.9196C254.045 53.957 254.868 53.8997 255.677 53.7489C256.164 53.655 256.368 54.3976 255.882 54.4872Z" fill="#4F1608"/>
<path d="M254.425 33.0887C254.359 33.1822 254.324 33.2944 254.326 33.4088C254.318 33.4582 254.318 33.5088 254.326 33.5582C254.356 33.6563 254.369 33.6264 254.326 33.6222H254.113L253.977 33.763L254.002 33.7161L253.947 33.9081C253.952 33.868 253.946 33.8271 253.929 33.7902C253.913 33.7532 253.886 33.7217 253.853 33.699C253.767 33.6458 253.705 33.5619 253.678 33.4644C253.652 33.3669 253.664 33.2631 253.712 33.1741C253.764 33.0862 253.849 33.0225 253.948 32.9969C254.048 32.9714 254.153 32.9859 254.241 33.0375C254.385 33.1291 254.503 33.2552 254.586 33.4042C254.669 33.5532 254.713 33.7206 254.715 33.891C254.708 33.9782 254.679 34.0622 254.63 34.1347C254.581 34.2071 254.514 34.2656 254.436 34.3044C254.358 34.3432 254.27 34.3608 254.183 34.3557C254.096 34.3506 254.011 34.3228 253.938 34.2751C253.336 33.8996 253.486 32.9948 253.857 32.5296C253.929 32.458 254.026 32.4177 254.128 32.4177C254.23 32.4177 254.327 32.458 254.399 32.5296C254.47 32.6021 254.509 32.6994 254.509 32.8006C254.509 32.9019 254.47 32.9991 254.399 33.0716L254.425 33.0887Z" fill="#4F1608"/>
<path d="M253.413 29.8751C253.111 30.0546 252.849 30.2925 252.64 30.575C252.586 30.6612 252.501 30.7234 252.403 30.7488C252.304 30.7743 252.2 30.7609 252.111 30.7115C252.024 30.6592 251.962 30.5749 251.936 30.4769C251.91 30.3788 251.924 30.2746 251.975 30.1866C252.256 29.7936 252.614 29.4624 253.029 29.2136C253.116 29.1733 253.214 29.167 253.306 29.1958C253.397 29.2246 253.474 29.2864 253.522 29.3692C253.57 29.452 253.586 29.5498 253.566 29.6433C253.545 29.7369 253.491 29.8196 253.413 29.8751Z" fill="#4F1608"/>
<path d="M220.018 223.264L216.015 222.76C215.528 222.696 215.524 221.907 216.015 221.992L220.018 222.491C220.5 222.555 220.509 223.324 220.018 223.264Z" fill="#999CBA"/>
<path d="M218.614 226.601C217.448 226.853 216.242 226.853 215.076 226.601C214.593 226.495 214.798 225.748 215.281 225.859C216.312 226.078 217.378 226.078 218.409 225.859C218.891 225.756 219.1 226.499 218.614 226.597V226.601Z" fill="#999CBA"/>
<path d="M212.167 226.456C212.065 226.456 211.967 226.416 211.895 226.344C211.823 226.272 211.783 226.174 211.783 226.072C211.783 225.97 211.823 225.873 211.895 225.8C211.967 225.728 212.065 225.688 212.167 225.688C212.269 225.688 212.366 225.728 212.438 225.8C212.51 225.873 212.551 225.97 212.551 226.072C212.551 226.174 212.51 226.272 212.438 226.344C212.366 226.416 212.269 226.456 212.167 226.456Z" fill="#999CBA"/>
</g>
<defs>
<clipPath id="clip0_1196_108728">
<rect width="360" height="360" fill="white"/>
</clipPath>
</defs>
</svg>
