<svg width="80" height="50" viewBox="0 0 80 50" fill="none" xmlns="http://www.w3.org/2000/svg">
<rect x="0.5" y="0.5" width="79" height="49" rx="3.5" fill="white" stroke="#E7E7E7"/>
<path d="M34.5898 15.5664H45.4063V34.4331H34.5898V15.5664Z" fill="#FF5F00"/>
<path d="M35.2804 25C35.2804 21.1667 37.1346 17.7667 39.9846 15.5667C37.89 13.9667 35.246 13 32.3616 13C25.5284 13 20 18.3667 20 25C20 31.6333 25.5284 37 32.3616 37C35.246 37 37.89 36.0333 39.9846 34.4333C37.1346 32.2667 35.2804 28.8333 35.2804 25Z" fill="#EB001B"/>
<path d="M60.0003 25C60.0003 31.6333 54.4719 37 47.6386 37C44.7543 37 42.1102 36.0333 40.0156 34.4333C42.9 32.2333 44.7199 28.8333 44.7199 25C44.7199 21.1667 42.8657 17.7667 40.0156 15.5667C42.1102 13.9667 44.7543 13 47.6386 13C54.4719 13 60.0003 18.4 60.0003 25Z" fill="#F79E1B"/>
</svg>
