<svg width="16" height="16" viewBox="0 0 16 16" fill="none" xmlns="http://www.w3.org/2000/svg">
<path fill-rule="evenodd" clip-rule="evenodd" d="M2.75 5.33333C2.75 3.9066 3.9066 2.75 5.33333 2.75V1.25C3.07817 1.25 1.25 3.07817 1.25 5.33333H2.75ZM2.75 10.6667C2.75 12.0934 3.9066 13.25 5.33333 13.25V14.75C3.07817 14.75 1.25 12.9218 1.25 10.6667H2.75ZM10.6667 2.75C12.0934 2.75 13.25 3.9066 13.25 5.33333H14.75C14.75 3.07817 12.9218 1.25 10.6667 1.25V2.75ZM13.25 10.6667C13.25 12.0934 12.0934 13.25 10.6667 13.25V14.75C12.9218 14.75 14.75 12.9218 14.75 10.6667H13.25Z" stroke="currentColor"/>
</svg>
