<svg width="20" height="20" viewBox="0 0 20 20" fill="none" xmlns="http://www.w3.org/2000/svg">
<path fill-rule="evenodd" clip-rule="evenodd" d="M7.23174 3.25C6.29456 3.25 5.403 3.65456 4.78587 4.35986L4.15283 5.08333H15.8472L15.2141 4.35986C14.597 3.65456 13.7054 3.25 12.7683 3.25H7.23174ZM1.75 5.83333C1.75 5.64285 1.82101 5.46895 1.93801 5.33667L3.657 3.3721C4.55897 2.34128 5.86202 1.75 7.23174 1.75H12.7683C14.138 1.75 15.441 2.34128 16.343 3.3721L18.062 5.33664C18.179 5.46892 18.25 5.64283 18.25 5.83333V14.3333C18.25 16.9567 16.1234 19.0833 13.5 19.0833H6.5C3.87665 19.0833 1.75 16.9567 1.75 14.3333V5.83333ZM16.75 14.3333V6.58333H3.25V14.3333C3.25 16.1283 4.70507 17.5833 6.5 17.5833H13.5C15.2949 17.5833 16.75 16.1283 16.75 14.3333ZM7.41667 9.16667C7.41667 8.75245 7.08088 8.41667 6.66667 8.41667C6.25245 8.41667 5.91667 8.75245 5.91667 9.16667C5.91667 10.4813 6.41711 11.5224 7.21006 12.2272C7.98921 12.9198 9.00686 13.25 10 13.25C10.9931 13.25 12.0108 12.9198 12.7899 12.2272C13.5829 11.5224 14.0833 10.4813 14.0833 9.16667C14.0833 8.75245 13.7475 8.41667 13.3333 8.41667C12.9191 8.41667 12.5833 8.75245 12.5833 9.16667C12.5833 10.0743 12.2504 10.6998 11.7934 11.1061C11.3225 11.5246 10.6735 11.75 10 11.75C9.32647 11.75 8.67746 11.5246 8.20661 11.1061C7.74956 10.6998 7.41667 10.0743 7.41667 9.16667Z" fill="currentColor"/>
</svg>
