<svg width="80" height="50" viewBox="0 0 80 50" fill="none" xmlns="http://www.w3.org/2000/svg">
<rect width="80" height="50" rx="4" fill="#F4F2FF"/>
<path d="M45.75 24.25H40.75V19.25C40.75 19.1119 40.6381 19 40.5 19H39.5C39.3619 19 39.25 19.1119 39.25 19.25V24.25H34.25C34.1119 24.25 34 24.3619 34 24.5V25.5C34 25.6381 34.1119 25.75 34.25 25.75H39.25V30.75C39.25 30.8881 39.3619 31 39.5 31H40.5C40.6381 31 40.75 30.8881 40.75 30.75V25.75H45.75C45.8881 25.75 46 25.6381 46 25.5V24.5C46 24.3619 45.8881 24.25 45.75 24.25Z" fill="#777777"/>
</svg>
