<svg width="58" height="36" viewBox="0 0 58 36" fill="none" xmlns="http://www.w3.org/2000/svg">
<rect width="58" height="36" rx="4" fill="#F4F2FF"/>
<path d="M34.75 17.25H29.75V12.25C29.75 12.1119 29.6381 12 29.5 12H28.5C28.3619 12 28.25 12.1119 28.25 12.25V17.25H23.25C23.1119 17.25 23 17.3619 23 17.5V18.5C23 18.6381 23.1119 18.75 23.25 18.75H28.25V23.75C28.25 23.8881 28.3619 24 28.5 24H29.5C29.6381 24 29.75 23.8881 29.75 23.75V18.75H34.75C34.8881 18.75 35 18.6381 35 18.5V17.5C35 17.3619 34.8881 17.25 34.75 17.25Z" fill="#777777"/>
</svg>
