<svg width="20" height="20" viewBox="0 0 20 20" fill="none" xmlns="http://www.w3.org/2000/svg">
<path fill-rule="evenodd" clip-rule="evenodd" d="M0.00390625 0.00341797H0.753906H8.15208H8.90208V0.753418V8.15159V8.90159H8.15208H0.753906H0.00390625V8.15159V0.753418V0.00341797ZM1.50391 1.50342V7.40159H7.40208V1.50342H1.50391ZM3.06568 3.06531H5.83999V5.83962H3.06568V3.06531ZM0.00390625 11.1007H0.753906H8.15208H8.90208V11.8507V19.2489V19.9989H8.15208H0.753906H0.00390625V19.2489V11.8507V11.1007ZM1.50391 12.6007V18.4989H7.40208V12.6007H1.50391ZM3.06568 14.1627H5.83999V16.9371H3.06568V14.1627ZM11.8516 0.00341797H11.1016V0.753418V8.15159V8.90159H11.8516H19.2498H19.9998V8.15159V0.753418V0.00341797H19.2498H11.8516ZM12.6016 7.40159V1.50342H18.4998V7.40159H12.6016ZM16.9377 3.06531H14.1634V5.83962H16.9377V3.06531ZM15.781 11.3884C15.3979 11.3884 15.0874 11.699 15.0874 12.082V19.0178C15.0874 19.4009 15.3979 19.7114 15.781 19.7114C16.164 19.7114 16.4746 19.4009 16.4746 19.0178V12.082C16.4746 11.699 16.164 11.3884 15.781 11.3884ZM12.5447 11.3885C12.1616 11.3885 11.8511 11.699 11.8511 12.082V19.0178C11.8511 19.4009 12.1616 19.7114 12.5447 19.7114C12.9277 19.7114 13.2382 19.4009 13.2382 19.0178V12.082C13.2382 11.699 12.9277 11.3885 12.5447 11.3885ZM18.325 12.082C18.325 11.699 18.6355 11.3884 19.0185 11.3884C19.4016 11.3884 19.7121 11.699 19.7121 12.082V19.0178C19.7121 19.4009 19.4016 19.7114 19.0185 19.7114C18.6355 19.7114 18.325 19.4009 18.325 19.0178V12.082Z" fill="currentColor"/>
</svg>
