<svg width="24" height="24" viewBox="0 0 24 24" fill="none" xmlns="http://www.w3.org/2000/svg">
<path d="M1.08984 8.72718V5.99991C1.08984 3.28355 3.28257 1.09082 5.99893 1.09082H8.72621" stroke="#6FCF97" stroke-width="2" stroke-linecap="round" stroke-linejoin="round"/>
<path d="M15.2734 1.09082H18.0007C20.7171 1.09082 22.9098 3.28355 22.9098 5.99991V8.72718" stroke="#6FCF97" stroke-width="2" stroke-linecap="round" stroke-linejoin="round"/>
<path d="M22.9087 16.3638V18.0001C22.9087 20.7165 20.716 22.9092 17.9996 22.9092H16.3633" stroke="#6FCF97" stroke-width="2" stroke-linecap="round" stroke-linejoin="round"/>
<path d="M8.72621 22.9088H5.99893C3.28257 22.9088 1.08984 20.7161 1.08984 17.9997V15.2725" stroke="#6FCF97" stroke-width="2" stroke-linecap="round" stroke-linejoin="round"/>
<path d="M17.4521 9.27273V14.7273C17.4521 16.9091 16.3612 18 14.1793 18H9.8157C7.63388 18 6.54297 16.9091 6.54297 14.7273V9.27273C6.54297 7.09091 7.63388 6 9.8157 6H14.1793C16.3612 6 17.4521 7.09091 17.4521 9.27273Z" stroke="currentColor" stroke-width="2" stroke-linecap="round" stroke-linejoin="round"/>
<path d="M19.636 12H4.36328" stroke="#6FCF97" stroke-width="2" stroke-linecap="round" stroke-linejoin="round"/>
</svg>
