<svg width="42" height="42" viewBox="0 0 42 42" fill="none" xmlns="http://www.w3.org/2000/svg">
<path opacity="0.4" fill-rule="evenodd" clip-rule="evenodd" d="M15.6318 5.24487C15.6318 4.45673 14.9808 3.81836 14.179 3.81836H14.1771L11.0672 3.82023C6.88438 3.82398 3.48047 7.16559 3.48047 11.2691V14.8186C3.48047 15.6048 4.13147 16.2451 4.93329 16.2451C5.73511 16.2451 6.38801 15.6048 6.38801 14.8186V11.2691C6.38801 8.73625 8.48801 6.67512 11.0691 6.67137L14.179 6.6695C14.9827 6.6695 15.6318 6.03113 15.6318 5.24487ZM30.9139 3.81892H27.8727C27.0709 3.81892 26.4199 4.45729 26.4199 5.24543C26.4199 6.03169 27.0709 6.66819 27.8727 6.66819H30.9139C33.5046 6.66819 35.6122 8.73494 35.6122 11.2753V14.8191C35.6122 15.6054 36.2632 16.2456 37.065 16.2456C37.8687 16.2456 38.5178 15.6054 38.5178 14.8191V11.2753C38.5178 7.16241 35.1082 3.81892 30.9139 3.81892ZM15.7269 10.9634H26.2727C27.4277 10.9634 28.5369 11.4183 29.3444 12.2289C30.1577 13.047 30.6083 14.1459 30.6064 15.2898V17.6673C30.5968 17.9462 30.3696 18.1727 30.0852 18.1802H11.9106C11.6281 18.1708 11.4009 17.9443 11.3952 17.6673V15.2898C11.3742 12.9216 13.3138 10.9878 15.7269 10.9634Z" fill="white"/>
<path d="M40.5472 21.0791H1.45473C0.652909 21.0791 0 21.7175 0 22.5056C0 23.2919 0.652909 23.9284 1.45473 23.9284H3.48027V30.7314C3.48027 34.835 6.88609 38.1766 11.0689 38.1803L14.1788 38.1822C14.9825 38.1822 15.6316 37.5438 15.6335 36.7557C15.6335 35.9694 14.9825 35.3311 14.1807 35.3311L11.0727 35.3292C8.48973 35.3254 6.38782 33.2643 6.38782 30.7314V23.9284H11.3954V25.821C11.3763 28.1892 13.314 30.1249 15.7271 30.1473H26.2729C28.6879 30.1249 30.6256 28.1892 30.6065 25.821V23.9284H35.6141V30.7239C35.6141 33.2662 33.5065 35.3311 30.9158 35.3311H27.8746C27.0709 35.3311 26.4199 35.9694 26.4199 36.7557C26.4199 37.5438 27.0709 38.1822 27.8746 38.1822H30.9158C35.1082 38.1822 38.5197 34.8387 38.5197 30.7239V23.9284H40.5472C41.349 23.9284 42 23.2919 42 22.5056C42 21.7175 41.349 21.0791 40.5472 21.0791Z" fill="white"/>
</svg>
