<svg width="16" height="16" viewBox="0 0 16 16" fill="none" xmlns="http://www.w3.org/2000/svg">
<g clip-path="url(#clip0_1196_109393)">
<path fill-rule="evenodd" clip-rule="evenodd" d="M1.35156 7.43064C1.35156 4.07221 4.07423 1.34961 7.43287 1.34961C10.7915 1.34961 13.5142 4.07221 13.5142 7.43064C13.5142 10.7891 10.7915 13.5117 7.43287 13.5117C4.07423 13.5117 1.35156 10.7891 1.35156 7.43064ZM7.43287 -0.150391C3.24586 -0.150391 -0.148438 3.24372 -0.148438 7.43064C-0.148438 11.6175 3.24586 15.0117 7.43287 15.0117C9.25637 15.0117 10.9295 14.3679 12.2374 13.2952L14.8725 15.9313C15.1653 16.2242 15.6402 16.2243 15.9332 15.9315C16.2261 15.6386 16.2262 15.1638 15.9333 14.8708L13.298 12.2346C14.3705 10.9268 15.0142 9.25388 15.0142 7.43064C15.0142 3.24372 11.6199 -0.150391 7.43287 -0.150391Z" stroke="currentColor"/>
</g>
<defs>
<clipPath id="clip0_1196_109393">
<rect width="16" height="16" fill="white"/>
</clipPath>
</defs>
</svg>
