<svg width="18" height="18" viewBox="0 0 18 18" fill="none" xmlns="http://www.w3.org/2000/svg">
<g clip-path="url(#clip0_1196_108507)">
<path fill-rule="evenodd" clip-rule="evenodd" d="M8.71644 7.38113e-08H8.75H9.24936H9.28292C10.6546 -4.51575e-06 11.7301 -8.15163e-06 12.5944 0.070612C13.4746 0.142522 14.2017 0.291379 14.8598 0.626713C15.9417 1.17798 16.8214 2.05762 17.3726 3.13955C17.708 3.79769 17.8568 4.52479 17.9287 5.40494C17.9994 6.26926 17.9994 7.34466 17.9994 8.71632V8.71637V8.71642V8.75V9.24939V9.28297V9.28302V9.28307C17.9994 10.6547 17.9994 11.7301 17.9287 12.5945C17.8568 13.4746 17.708 14.2017 17.3726 14.8598C16.8214 15.9418 15.9417 16.8214 14.8598 17.3727C14.2017 17.708 13.4746 17.8569 12.5944 17.9288C11.7301 17.9994 10.6547 17.9994 9.28304 17.9994H9.28299H9.28294H9.24936H8.75H8.71642H8.71637H8.71632C7.34466 17.9994 6.26926 17.9994 5.40494 17.9288C4.52479 17.8569 3.79768 17.708 3.13955 17.3727C2.05762 16.8214 1.17798 15.9418 0.626713 14.8598C0.291379 14.2017 0.142522 13.4746 0.0706119 12.5945C-8.26797e-06 11.7301 -4.63208e-06 10.6547 7.66844e-08 9.28295V9.24939V8.75V8.71644C-4.63208e-06 7.34472 -8.26797e-06 6.26929 0.0706119 5.40494C0.142522 4.52479 0.291379 3.79769 0.626713 3.13955C1.17798 2.05762 2.05762 1.17798 3.13955 0.626713C3.79768 0.291379 4.52479 0.142522 5.40494 0.070612C6.26929 -8.15163e-06 7.34472 -4.51575e-06 8.71644 7.38113e-08ZM5.52708 1.56563C4.7397 1.62996 4.23197 1.75359 3.82054 1.96322C3.02085 2.37068 2.37068 3.02085 1.96322 3.82054C1.75359 4.23197 1.62996 4.7397 1.56563 5.52708C1.50058 6.32322 1.5 7.33749 1.5 8.75V9.24939C1.5 10.6619 1.50058 11.6762 1.56563 12.4723C1.62996 13.2597 1.75359 13.7674 1.96322 14.1788C2.37068 14.9785 3.02085 15.6287 3.82054 16.0362C4.23197 16.2458 4.7397 16.3694 5.52708 16.4338C6.32322 16.4988 7.33749 16.4994 8.75 16.4994H9.24936C10.6619 16.4994 11.6761 16.4988 12.4723 16.4338C13.2597 16.3694 13.7674 16.2458 14.1788 16.0362C14.9785 15.6287 15.6287 14.9785 16.0361 14.1788C16.2458 13.7674 16.3694 13.2597 16.4337 12.4723C16.4988 11.6762 16.4994 10.6619 16.4994 9.24939V8.75C16.4994 7.33749 16.4988 6.32322 16.4337 5.52708C16.3694 4.7397 16.2458 4.23197 16.0361 3.82054C15.6287 3.02085 14.9785 2.37068 14.1788 1.96322C13.7674 1.75359 13.2597 1.62996 12.4723 1.56563C11.6761 1.50058 10.6619 1.5 9.24936 1.5H8.75C7.33749 1.5 6.32322 1.50058 5.52708 1.56563ZM9.50895 10.8367L10.2112 4.86524C10.2966 4.13869 9.7289 3.50034 8.99735 3.50034C8.2658 3.50034 7.69811 4.13869 7.78355 4.86524L8.48575 10.8367C8.51626 11.0962 8.73612 11.2917 8.99735 11.2917C9.25857 11.2917 9.47844 11.0962 9.50895 10.8367ZM8.99784 14.4987C9.50363 14.4987 9.91365 14.0887 9.91365 13.5828C9.91365 13.0769 9.50363 12.6669 8.99784 12.6669C8.49205 12.6669 8.08203 13.0769 8.08203 13.5828C8.08203 14.0887 8.49205 14.4987 8.99784 14.4987Z" fill="currentColor"/>
</g>
<defs>
<clipPath id="clip0_1196_108507">
<rect width="18" height="18" fill="white"/>
</clipPath>
</defs>
</svg>
