<svg width="20" height="20" viewBox="0 0 20 20" fill="none" xmlns="http://www.w3.org/2000/svg">
<path fill-rule="evenodd" clip-rule="evenodd" d="M19.1667 5.66667C19.6269 5.66667 20 5.29357 20 4.83333C20 4.3731 19.6269 4 19.1667 4H0.833334C0.373096 4 0 4.3731 0 4.83333C0 5.29357 0.373096 5.66667 0.833333 5.66667L19.1667 5.66667ZM19.1667 15.6667C19.6269 15.6667 20 15.2936 20 14.8333C20 14.3731 19.6269 14 19.1667 14L0.833334 14C0.373096 14 0 14.3731 0 14.8333C0 15.2936 0.373096 15.6667 0.833333 15.6667H19.1667ZM20 9.83333C20 10.2936 19.6269 10.6667 19.1667 10.6667H0.833333C0.373095 10.6667 0 10.2936 0 9.83333C0 9.3731 0.373095 9 0.833333 9H19.1667C19.6269 9 20 9.3731 20 9.83333Z" fill="currentColor"/>
</svg>
