<svg width="42" height="42" viewBox="0 0 42 42" fill="none" xmlns="http://www.w3.org/2000/svg">
<path opacity="0.4" d="M40.425 24.1005C38.7009 24.1005 37.2981 22.7105 37.2981 21.0022C37.2981 19.2918 38.7009 17.9018 40.425 17.9018C40.8429 17.9018 41.244 17.7374 41.538 17.4461C41.8341 17.1527 42 16.7552 42 16.3412L41.9979 10.7188C41.9979 5.96624 38.094 2.1001 33.2976 2.1001H8.7024C3.906 2.1001 0.0021 5.96624 0.0021 10.7188L0 16.5222C0 16.9363 0.1659 17.3337 0.462 17.6271C0.756 17.9184 1.1571 18.0828 1.575 18.0828C3.3579 18.0828 4.7019 19.3375 4.7019 21.0022C4.7019 22.7105 3.2991 24.1005 1.575 24.1005C0.7056 24.1005 0 24.7997 0 25.6611V31.2793C0 36.0319 3.9018 39.9001 8.7003 39.9001H33.2997C38.0982 39.9001 42 36.0319 42 31.2793V25.6611C42 24.7997 41.2944 24.1005 40.425 24.1005Z" fill="#56CCF2"/>
<path d="M28.205 20.1363L25.7291 22.5471L26.315 25.9554C26.4158 26.5455 26.1785 27.1272 25.6934 27.4758C25.2125 27.8286 24.5846 27.8727 24.0554 27.5913L20.9999 25.9848L17.9381 27.5934C17.7113 27.7131 17.4635 27.7761 17.2178 27.7761C16.8965 27.7761 16.5794 27.6753 16.3064 27.4779C15.8234 27.1272 15.5861 26.5455 15.6869 25.9554L16.2707 22.5471L13.7948 20.1363C13.3664 19.7205 13.2173 19.1094 13.4021 18.5403C13.589 17.9733 14.072 17.5701 14.6621 17.4861L18.0767 16.9884L19.6076 13.8867C19.8743 13.3533 20.4077 13.0215 20.9999 13.0215H21.0041C21.5984 13.0236 22.1318 13.3554 22.3943 13.8888L23.9252 16.9884L27.3461 17.4882C27.9299 17.5701 28.4129 17.9733 28.5977 18.5403C28.7846 19.1094 28.6355 19.7205 28.205 20.1363Z" fill="#56CCF2"/>
</svg>
