<svg width="42" height="42" viewBox="0 0 42 42" fill="none" xmlns="http://www.w3.org/2000/svg">
<path opacity="0.4" d="M24.6766 15.9766V11.7348C23.8439 11.7348 23.1534 11.064 23.1534 10.2551V5.20446C23.1534 4.53169 22.605 4.00098 21.9145 4.00098H7.96151C3.57455 4.00098 0 7.47134 0 11.7348V16.8427C0 17.2393 0.16248 17.6141 0.446819 17.8903C0.731159 18.1646 1.11705 18.3224 1.52325 18.3224C3.06681 18.3224 4.24478 19.3878 4.24478 20.7886C4.24478 22.2505 3.0465 23.4145 1.54356 23.4323C0.710849 23.4323 0 24.0044 0 24.833V29.8857C0 34.1472 3.57455 37.5998 7.9412 37.5998H21.9145C22.605 37.5998 23.1534 37.0652 23.1534 36.3963V32.1329C23.1534 31.3062 23.8439 30.6532 24.6766 30.6532V26.8277C23.8439 26.8277 23.1534 26.1549 23.1534 25.348V17.4563C23.1534 16.6474 23.8439 15.9766 24.6766 15.9766Z" fill="white"/>
<path d="M37.7554 20.7896C37.7554 22.2495 38.974 23.4135 40.4566 23.4333C41.2893 23.4333 42.0002 24.0054 42.0002 24.8143V29.8847C42.0002 34.1482 38.4459 37.6008 34.059 37.6008H27.4379C26.7677 37.6008 26.199 37.0662 26.199 36.3954V32.1338C26.199 31.3052 25.5288 30.6542 24.6758 30.6542V26.8287C25.5288 26.8287 26.199 26.1559 26.199 25.349V17.4573C26.199 16.6464 25.5288 15.9776 24.6758 15.9776V11.7338C25.5288 11.7338 26.199 11.0631 26.199 10.2542V5.20545C26.199 4.53269 26.7677 4 27.4379 4H34.059C38.4459 4 42.0002 7.45261 42.0002 11.7141V16.6859C42.0002 17.0805 41.8377 17.4573 41.5534 17.7315C41.269 18.0077 40.8831 18.1656 40.4769 18.1656C38.974 18.1656 37.7554 19.3513 37.7554 20.7896Z" fill="white"/>
</svg>
