<svg width="20" height="20" viewBox="0 0 20 20" fill="none" xmlns="http://www.w3.org/2000/svg">
<path fill-rule="evenodd" clip-rule="evenodd" d="M8.88412 3.18834C9.34573 2.27055 10.6559 2.27055 11.1175 3.18834L17.3648 15.6092C17.7829 16.4405 17.1786 17.4209 16.2481 17.4209H3.75357C2.82305 17.4209 2.21875 16.4405 2.63686 15.6092L8.88412 3.18834ZM12.4576 2.51434C11.442 0.495221 8.55962 0.495221 7.54407 2.51434L1.29682 14.9352C0.37697 16.764 1.70642 18.9209 3.75357 18.9209H16.2481C18.2952 18.9209 19.6247 16.764 18.7048 14.9352L12.4576 2.51434ZM10.4815 12.1666L11.1416 6.58906C11.2225 5.90502 10.6882 5.30368 9.99935 5.30368C9.31053 5.30368 8.77616 5.90502 8.85712 6.58906L9.51719 12.1666C9.54611 12.411 9.75327 12.5951 9.99935 12.5951C10.2454 12.5951 10.4526 12.411 10.4815 12.1666ZM10.864 14.7398C10.864 15.2135 10.4777 15.5976 10.0011 15.5976C9.52455 15.5976 9.13822 15.2135 9.13822 14.7398C9.13822 14.266 9.52455 13.882 10.0011 13.882C10.4777 13.882 10.864 14.266 10.864 14.7398Z" fill="currentcolor" />
</svg>
