<svg width="120" height="120" viewBox="0 0 120 120" fill="none" xmlns="http://www.w3.org/2000/svg">
<path d="M60 119.666C93.0612 119.666 120 92.8386 120 59.8887C119.889 26.8275 93.0612 0 60 0C26.8275 0 0 26.8275 0 59.7774C0 92.8386 26.8275 119.666 60 119.666Z" fill="#F4F2FF"/>
<path d="M102.091 34.6953V107.198C102.091 112.48 97.9008 116.67 92.618 116.67H27.4023C22.1195 116.67 17.9297 112.48 17.9297 107.198V12.2888C17.9297 7.00599 22.1195 2.81616 27.4023 2.81616H70.3937C72.7618 2.81616 74.9478 3.72699 76.5873 5.36649L99.5403 28.3195C101.18 30.1411 102.091 32.3271 102.091 34.6953Z" fill="white" stroke="currentColor" stroke-width="2" stroke-miterlimit="10"/>
<path d="M74 2.99976V24.9229C74 28.8545 77.2911 31.9998 81.0309 31.9998H102" fill="#E7E7E7"/>
<path d="M46.0745 96.9279H30.8836C30.3167 96.9279 29.8633 96.3254 29.8633 95.6024C29.8633 94.8794 30.3167 94.2769 30.8836 94.2769H46.0745C46.6413 94.2769 47.0948 94.8794 47.0948 95.6024C47.0948 96.4459 46.6413 96.9279 46.0745 96.9279Z" fill="#E7E7E7"/>
<path d="M65.5018 22.6991H31.3388C30.5443 22.6991 29.8633 22.0873 29.8633 21.3736C29.8633 20.6599 30.5443 20.0481 31.3388 20.0481H65.5018C66.2963 20.0481 66.9773 20.6599 66.9773 21.3736C66.9773 22.0873 66.2963 22.6991 65.5018 22.6991Z" fill="#E7E7E7"/>
<path d="M44.4156 30.6522H31.3298C30.5401 30.6522 29.8633 30.0405 29.8633 29.3267C29.8633 28.613 30.5401 28.0012 31.3298 28.0012H44.3028C45.0924 28.0012 45.7693 28.613 45.7693 29.3267C45.7693 30.0405 45.0924 30.6522 44.4156 30.6522Z" fill="#E7E7E7"/>
<path d="M89.7642 77.0452H49.9278H45.5372H32.2584C31.7229 77.0452 31.1875 77.5975 31.1875 78.3707C31.1875 79.0334 31.6158 79.6962 32.2584 79.6962H45.5372H49.9278H89.7642C90.2996 79.6962 90.8351 79.1439 90.8351 78.3707C90.728 77.5975 90.2996 77.0452 89.7642 77.0452Z" fill="#E7E7E7"/>
<path d="M89.7623 67.7656H74.9577H69.9155H32.2603C31.7239 67.7656 31.1875 68.3179 31.1875 69.0911C31.1875 69.7539 31.6166 70.4166 32.2603 70.4166H69.9155H74.9577H89.7623C90.2987 70.4166 90.8351 69.8643 90.8351 69.0911C90.7278 68.3179 90.2987 67.7656 89.7623 67.7656Z" fill="#E7E7E7"/>
<path d="M89.8595 58.4873H86.0121H82.1648H32.2562C31.7219 58.4873 31.1875 59.0396 31.1875 59.8128C31.1875 60.4756 31.615 61.1383 32.2562 61.1383H82.1648H86.4396H89.7526C90.2869 61.1383 90.8213 60.586 90.8213 59.8128C90.9282 59.1501 90.3938 58.4873 89.8595 58.4873Z" fill="#E7E7E7"/>
<path d="M89.7756 49.21H77.3799H74.3075H32.247C31.7172 49.21 31.1875 49.7623 31.1875 50.5355C31.1875 51.1982 31.6113 51.861 32.247 51.861H74.3075H77.3799H89.6696C90.4113 51.861 90.8351 51.3087 90.8351 50.5355C90.8351 49.8727 90.4113 49.21 89.7756 49.21Z" fill="#E7E7E7"/>
<path d="M90.4428 116.882C103.381 116.882 113.87 106.393 113.87 93.455C113.87 80.5165 103.381 70.0278 90.4428 70.0278C77.5043 70.0278 67.0156 80.5165 67.0156 93.455C67.0156 106.393 77.5043 116.882 90.4428 116.882Z" fill="#6FCF97"/>
<path d="M91.8656 84.0537L97.7332 90.2837C98.4235 91.0166 98.4235 92.2993 97.7332 93.0322C97.0429 93.7651 95.8349 93.7651 95.0583 93.0322L92.3833 90.2837V100.362C92.3833 101.461 91.5205 102.377 90.485 102.377C89.4496 102.377 88.5867 101.461 88.5867 100.362V90.2837L85.9118 93.0322C85.2215 93.7651 84.0134 93.7651 83.2368 93.0322C82.8054 92.5741 82.6328 92.116 82.6328 91.6579C82.6328 91.1998 82.8054 90.5585 83.2368 90.2837L89.1044 84.0537C89.3633 83.7788 89.9673 83.4124 90.3987 83.4124C90.8302 83.4124 91.6068 83.5956 91.8656 84.0537Z" fill="white"/>
</svg>
