<svg width="20" height="20" viewBox="0 0 20 20" fill="none" xmlns="http://www.w3.org/2000/svg">
<g clip-path="url(#clip0_1196_108646)">
<path fill-rule="evenodd" clip-rule="evenodd" d="M11.0528 1.94996C10.1534 0.910414 8.54616 0.653418 7.34573 1.53373L2.61922 4.99984L2.63624 5.02305C1.10902 5.49742 0 6.92164 0 8.60488V15.5577C0 17.6287 1.67893 19.3077 3.75 19.3077H14.4036C16.4747 19.3077 18.1536 17.6287 18.1536 15.5577V15.0345C19.2241 14.7126 20.004 13.7193 20.004 12.5439C20.004 11.3685 19.2241 10.3752 18.1536 10.0533V8.60488C18.1536 7.19907 17.38 5.97394 16.2353 5.33193L16.2495 5.32627L15.3453 3.06582C14.6831 1.41023 12.6446 0.812955 11.1936 1.84938L11.0528 1.94996ZM5.3534 4.85488H6.98588L9.81925 2.83105C9.39902 2.44525 8.73697 2.3736 8.23278 2.74334L5.3534 4.85488ZM12.0654 3.06998C12.725 2.59888 13.6516 2.87036 13.9526 3.62291L14.4455 4.85511L14.4036 4.85488H9.56658L12.0654 3.06998ZM16.6536 15.1443H15.5532C14.117 15.1443 12.9528 13.98 12.9528 12.5439C12.9528 11.1077 14.117 9.94348 15.5532 9.94348H16.6536V8.60488C16.6536 7.36224 15.6462 6.35488 14.4036 6.35488H3.75C2.50736 6.35488 1.5 7.36224 1.5 8.60488V15.5577C1.5 16.8003 2.50736 17.8077 3.75 17.8077H14.4036C15.6462 17.8077 16.6536 16.8003 16.6536 15.5577V15.1443ZM15.5532 11.4435C14.9455 11.4435 14.4528 11.9361 14.4528 12.5439C14.4528 13.1516 14.9455 13.6443 15.5532 13.6443H17.4036C18.0113 13.6443 18.504 13.1516 18.504 12.5439C18.504 11.9361 18.0113 11.4435 17.4036 11.4435H15.5532Z" fill="currentColor"/>
</g>
<defs>
<clipPath id="clip0_1196_108646">
<rect width="20" height="20" fill="white"/>
</clipPath>
</defs>
</svg>
