<svg width="14" height="14" viewBox="0 0 14 14" fill="none" xmlns="http://www.w3.org/2000/svg">
<path fill-rule="evenodd" clip-rule="evenodd" d="M6.5957 1.90833C6.20714 2.30995 5.71958 2.93431 5.0188 3.83423L3.60529 5.64942C3.16098 6.21999 2.86417 6.60264 2.67735 6.90016C2.51113 7.16488 2.50084 7.25983 2.50008 7.26784C2.51032 7.37683 2.55993 7.47836 2.63964 7.5534C2.64641 7.55772 2.72764 7.60794 3.03865 7.63944C3.38817 7.67483 3.87244 7.67576 4.5956 7.67576C4.60312 7.67576 4.61068 7.67576 4.61828 7.67576C4.75502 7.67572 4.90323 7.67568 5.03107 7.68734C5.17642 7.7006 5.36768 7.73359 5.55974 7.84535C5.74691 7.95426 5.90259 8.10993 6.0115 8.2971C6.12393 8.49033 6.1565 8.68316 6.16958 8.82821C6.18116 8.95672 6.18112 9.10617 6.18109 9.24507L6.18108 9.26782C6.18108 10.4245 6.18213 11.2296 6.24208 11.794C6.29513 12.2935 6.38078 12.4163 6.38742 12.4282C6.44886 12.4677 6.51903 12.4918 6.59185 12.4981C6.60509 12.493 6.74596 12.4499 7.08839 12.0959C7.47694 11.6943 7.9645 11.0699 8.66529 10.17L10.0788 8.35482C10.5231 7.78426 10.8199 7.4016 11.0067 7.10408C11.173 6.83938 11.1833 6.74442 11.184 6.73641C11.1738 6.62741 11.1242 6.52588 11.0444 6.45084C11.0377 6.44651 10.9564 6.3963 10.6454 6.3648C10.2959 6.32941 9.81165 6.32848 9.08849 6.32848C9.08097 6.32848 9.07341 6.32848 9.06581 6.32849C8.92907 6.32852 8.78085 6.32856 8.65302 6.3169C8.50766 6.30364 8.31641 6.27065 8.12435 6.15889C7.93717 6.04998 7.7815 5.89431 7.67259 5.70714C7.56016 5.51391 7.52759 5.32108 7.51451 5.17603C7.50293 5.04752 7.50296 4.89806 7.503 4.75916C7.503 4.75154 7.503 4.74396 7.503 4.73642C7.503 3.5797 7.50196 2.77464 7.44201 2.21022C7.38896 1.71078 7.30331 1.58799 7.29667 1.57608C7.23522 1.5365 7.16505 1.51249 7.09223 1.50611C7.07897 1.51121 6.9381 1.55442 6.5957 1.90833ZM5.51765 0.86535C5.9389 0.429932 6.4849 -0.0337295 7.17131 0.00799328C7.52395 0.0294277 7.86414 0.14626 8.15553 0.346009C8.72474 0.73619 8.86918 1.44513 8.93362 2.05179C9.00303 2.70528 9.00302 3.59095 9.003 4.6881V4.73642C9.003 4.77008 9.00301 4.80051 9.00308 4.82842C9.02911 4.82848 9.05739 4.82848 9.08849 4.82848L9.12954 4.82848C9.80093 4.82846 10.3622 4.82845 10.7966 4.87244C11.2266 4.91598 11.7023 5.01434 12.0637 5.35029C12.4173 5.67907 12.6364 6.12738 12.6785 6.60843C12.7216 7.09996 12.5069 7.53571 12.2771 7.90176C12.0449 8.27152 11.7 8.71434 11.2875 9.24406L11.2623 9.27643L9.84878 11.0916L9.81883 11.1301C9.15502 11.9825 8.61811 12.672 8.16644 13.1389C7.74519 13.5743 7.19919 14.038 6.51277 13.9962C6.16014 13.9748 5.81995 13.858 5.52855 13.6582C4.95935 13.2681 4.81491 12.5591 4.75047 11.9525C4.68106 11.299 4.68107 10.4133 4.68108 9.31614V9.26782C4.68108 9.23417 4.68108 9.20373 4.68101 9.17582C4.65497 9.17576 4.6267 9.17576 4.5956 9.17576H4.55453C3.88315 9.17578 3.3219 9.17579 2.88752 9.13181C2.4575 9.08826 1.9818 8.9899 1.62042 8.65396C1.26675 8.32517 1.04765 7.87686 1.00554 7.39581C0.96251 6.90428 1.17718 6.46853 1.40703 6.10248C1.63921 5.73273 1.98405 5.28992 2.39657 4.76021L2.4218 4.72782L3.83531 2.91263L3.86525 2.87419C4.52906 2.02171 5.06598 1.33221 5.51765 0.86535ZM4.90863 9.18274C4.90862 9.18275 4.90826 9.18269 4.90756 9.18257L4.90863 9.18274ZM8.77546 4.8215C8.77546 4.82149 8.77583 4.82155 8.77653 4.82167L8.77546 4.8215Z" fill="currentColor"/>
</svg>
